<svg width="1410" height="264" viewBox="0 0 1410 264" fill="none" xmlns="http://www.w3.org/2000/svg">
<mask id="mask0_1_1072" style="mask-type:alpha" maskUnits="userSpaceOnUse" x="0" y="0" width="1410" height="264">
<rect y="0.697266" width="1409.5" height="263.046" fill="white"/>
</mask>
<g mask="url(#mask0_1_1072)">
<path d="M1335.5 108.164C1337.07 107.856 1338.61 107.123 1340.28 106.712C1345.47 105.04 1349.3 100.991 1350.24 96.9428C1352.42 93.3051 1352.63 87.9071 1350.14 82.9198C1342.65 68.3688 1333.32 56.0914 1324.81 42.1712C1323.14 39.6775 1321.6 36.8759 1323.24 35.2037C1324.9 33.5315 1327.71 34.8956 1330.2 36.7732C1344.1 45.2955 1356.47 54.7566 1370.9 62.1348C1375.78 64.5257 1381.06 64.4231 1384.9 62.2375C1388.95 61.2987 1392.89 57.5583 1394.66 52.263C1395.07 50.8108 1395.7 49.1533 1396.11 47.6865L1366.21 17.1323C1358.02 9.34338 1349.39 1.95052 1343.49 -7.08518C1334.46 -20.9028 1334.24 -31.0973 1320.03 -43.4627C1304.26 -52.8211 1289.93 -52.1904 1279.97 -37.434C1275.82 -31.4053 1273.32 -24.7606 1269.9 -18.2038L1269.8 -18.1011C1263.25 -14.6687 1256.72 -12.0724 1250.6 -8.02397C1236.06 1.95052 1235.33 16.1935 1244.57 32.094C1257.13 46.337 1267.19 46.645 1280.91 55.578C1289.93 61.504 1297.31 70.1291 1305.09 78.3287L1335.5 108.164Z" fill="#5C7F94"/>
<path d="M1483.49 134.817C1481.93 135.125 1480.39 135.858 1478.72 136.269C1473.53 137.941 1469.69 141.989 1468.76 146.038C1466.57 149.676 1466.37 155.073 1468.86 160.061C1476.35 174.612 1485.68 186.889 1494.19 200.809C1495.86 203.318 1497.4 206.105 1495.76 207.777C1494.1 209.449 1491.29 208.085 1488.8 206.207C1474.9 197.685 1462.53 188.224 1448.1 180.846C1443.22 178.455 1437.93 178.558 1434.1 180.743C1430.05 181.682 1426.11 185.422 1424.34 190.718C1423.93 192.17 1423.3 193.827 1422.89 195.294L1452.79 225.848C1460.98 233.637 1469.61 241.03 1475.51 250.066C1484.53 263.883 1484.75 274.078 1498.96 286.443C1514.74 295.802 1529.07 295.171 1539.03 280.415C1543.18 274.386 1545.68 267.741 1549.1 261.184L1549.2 261.082C1555.75 257.649 1562.28 255.053 1568.4 251.004C1582.94 241.03 1583.67 226.787 1574.42 210.887C1561.87 196.644 1551.81 196.336 1538.09 187.403C1529.07 181.477 1521.69 172.852 1513.91 164.652L1483.49 134.817Z" fill="#3AADA7"/>
<path d="M1366.58 59.6856C1367.91 60.5658 1369.53 61.1525 1370.99 62.0472C1375.83 64.5555 1381.41 64.4089 1384.94 62.1939C1389.05 61.1672 1393.01 57.4854 1394.77 52.2048C1399.76 36.627 1401.81 21.3279 1405.64 5.47139C1406.22 2.52305 1407.1 -0.557312 1409.45 -0.557312C1411.79 -0.557312 1412.83 2.39103 1413.26 5.47139C1417.06 21.3572 1419.13 36.7883 1424.13 52.2048C1425.88 57.3534 1429.71 61.0205 1433.96 62.1939C1437.49 64.3942 1442.91 64.5555 1447.9 62.0472C1449.23 61.3138 1450.85 60.5804 1452.15 59.847L1452.59 17.0741C1452.3 5.75008 1451.42 -5.55922 1453.61 -16.1498C1457 -32.3143 1464.03 -39.6632 1462.73 -58.4827C1458.19 -76.2754 1447.62 -85.9712 1430.15 -82.5975C1422.95 -81.2626 1416.49 -78.3436 1409.45 -76.1287H1409.3C1402.25 -78.329 1395.79 -81.1306 1388.6 -82.5975C1371.27 -85.8245 1360.71 -76.2754 1356 -58.4827C1354.83 -39.5165 1361.73 -32.1676 1365.12 -16.1498C1367.31 -5.57389 1366.45 5.75008 1366.14 17.0741L1366.58 59.6856Z" fill="#3AADA7"/>
<path d="M1452.4 183.311C1451.07 182.43 1449.45 181.844 1447.99 180.949C1443.16 178.441 1437.57 178.587 1434.04 180.802C1429.93 181.829 1425.97 185.511 1424.21 190.791C1419.22 206.369 1417.17 221.668 1413.34 237.525C1412.76 240.473 1411.88 243.553 1409.53 243.553C1407.19 243.553 1406.15 240.605 1405.73 237.525C1401.92 221.639 1399.85 206.208 1394.86 190.791C1393.1 185.643 1389.27 181.976 1385.03 180.802C1381.49 178.602 1376.07 178.441 1371.08 180.949C1369.75 181.682 1368.13 182.416 1366.83 183.149L1366.39 225.922C1366.68 237.246 1367.56 248.555 1365.37 259.146C1361.98 275.31 1354.95 282.659 1356.25 301.479C1360.81 319.257 1371.37 328.967 1388.85 325.594C1396.04 324.259 1402.5 321.34 1409.55 319.125H1409.7C1416.74 321.325 1423.2 324.127 1430.4 325.594C1447.73 328.821 1458.29 319.271 1462.99 301.479C1464.16 282.513 1457.26 275.164 1453.88 259.146C1451.68 248.57 1452.55 237.246 1452.85 225.922L1452.4 183.311Z" fill="#5C7F94"/>
<path d="M1347.76 164.461C1348.64 163.127 1349.23 161.513 1350.12 160.046C1352.63 155.206 1352.48 149.617 1350.27 146.082C1349.24 141.96 1345.57 138 1340.29 136.239C1324.73 131.238 1309.46 129.184 1293.62 125.356C1290.67 124.769 1287.6 123.889 1287.6 121.542C1287.6 119.195 1290.54 118.153 1293.62 117.728C1309.48 113.914 1324.9 111.846 1340.29 106.844C1345.43 105.084 1349.1 101.255 1350.27 97.0016C1352.47 93.4665 1352.63 88.0392 1350.12 83.0373C1349.39 81.7025 1348.66 80.089 1347.92 78.7835L1305.21 78.3434C1293.9 78.6368 1282.6 79.5169 1272.03 77.3166C1255.88 73.9282 1248.54 66.8874 1229.75 68.1929C1211.99 72.7548 1202.29 83.3307 1205.66 100.83C1207 108.032 1209.91 114.501 1212.12 121.556V121.703C1209.93 128.759 1207.13 135.227 1205.66 142.429C1202.44 159.782 1211.98 170.358 1229.75 175.067C1248.69 176.24 1256.03 169.331 1272.03 165.943C1282.59 163.743 1293.9 164.608 1305.21 164.916L1347.76 164.461Z" fill="#EEB83B"/>
<path d="M1471.23 78.5341C1470.35 79.8689 1469.77 81.4824 1468.87 82.9493C1466.37 87.7898 1466.51 93.3785 1468.73 96.9136C1469.75 101.035 1473.43 104.996 1478.7 106.756C1494.26 111.758 1509.54 113.811 1525.38 117.64C1528.32 118.227 1531.4 119.107 1531.4 121.454C1531.4 123.801 1528.45 124.842 1525.38 125.267C1509.51 129.081 1494.1 131.149 1478.7 136.151C1473.56 137.912 1469.9 141.74 1468.73 145.994C1466.53 149.529 1466.37 154.956 1468.87 159.958C1469.6 161.293 1470.34 162.906 1471.07 164.212L1513.79 164.652C1525.1 164.359 1536.39 163.479 1546.97 165.679C1563.11 169.067 1570.45 176.108 1589.25 174.803C1607 170.241 1616.7 159.665 1613.33 142.165C1612 134.963 1609.08 128.495 1606.87 121.439V121.292C1609.07 114.237 1611.87 107.768 1613.33 100.566C1616.55 83.2133 1607.02 72.6374 1589.25 67.9289C1570.31 66.7554 1562.97 73.6642 1546.97 77.0526C1536.41 79.2528 1525.1 78.3874 1513.79 78.0794L1471.23 78.5341Z" fill="#E28D3A"/>
<path d="M1422.8 47.4006C1423.11 48.9701 1423.84 50.5103 1424.25 52.1825C1425.92 57.3751 1429.97 61.2182 1434.01 62.157C1437.64 64.3426 1443.03 64.5479 1448.01 62.0543C1462.55 54.5588 1474.81 45.215 1488.71 36.6927C1491.22 35.0205 1494 33.4803 1495.67 35.1232C1497.34 36.7807 1495.98 39.5971 1494.1 42.0907C1485.59 56.0109 1476.14 68.391 1468.77 82.8394C1466.39 87.7239 1466.49 93.0192 1468.67 96.8623C1469.61 100.911 1473.34 104.857 1478.63 106.631C1480.08 107.042 1481.74 107.673 1483.2 108.084L1513.72 78.1455C1521.5 69.9459 1528.88 61.3062 1537.9 55.3949C1551.7 46.3592 1561.89 46.1391 1574.24 31.9108C1583.58 16.113 1582.95 1.76736 1568.21 -8.20713C1562.19 -12.3583 1555.56 -14.8666 1549.01 -18.2843L1548.91 -18.387C1545.48 -24.9437 1542.89 -31.4858 1538.84 -37.6172C1528.88 -52.1682 1514.66 -52.9016 1498.78 -43.6459C1484.55 -31.0751 1484.24 -20.9979 1475.32 -7.26836C1469.4 1.76735 1460.79 9.16021 1452.6 16.9491L1422.8 47.4006Z" fill="#EEB83B"/>
<path d="M1396.2 195.595C1395.89 194.025 1395.16 192.485 1394.75 190.813C1393.08 185.621 1389.04 181.777 1384.99 180.839C1381.36 178.653 1375.97 178.448 1370.99 180.941C1356.45 188.437 1344.19 197.781 1330.29 206.303C1327.8 207.975 1325 209.515 1323.33 207.872C1321.66 206.215 1323.02 203.399 1324.9 200.905C1333.41 186.985 1342.86 174.605 1350.23 160.156C1352.62 155.272 1352.51 149.976 1350.33 146.133C1349.39 142.085 1345.66 138.139 1340.37 136.364C1338.92 135.953 1337.26 135.323 1335.8 134.912L1305.28 164.85C1297.51 173.05 1290.12 181.689 1281.1 187.601C1267.3 196.636 1257.12 196.856 1244.77 211.085C1235.42 226.883 1236.05 241.228 1250.79 251.203C1256.81 255.354 1263.44 257.862 1269.99 261.28L1270.1 261.383C1273.52 267.939 1276.12 274.481 1280.16 280.613C1290.12 295.164 1304.35 295.897 1320.23 286.641C1334.45 274.071 1334.76 263.994 1343.68 250.264C1349.6 241.228 1358.21 233.835 1366.4 226.046L1396.2 195.595Z" fill="#E28D3A"/>
<g opacity="0.3">
<path d="M-129.965 435.132C-123.384 433.84 -116.926 430.763 -109.914 429.041C-88.1412 422.026 -72.0267 405.044 -68.0903 388.062C-58.926 372.803 -58.0649 350.161 -68.5209 329.241C-99.9503 268.205 -139.129 216.705 -174.864 158.314C-181.876 147.854 -188.334 136.103 -181.445 129.088C-174.495 122.074 -162.686 127.796 -152.23 135.672C-93.8613 171.42 -41.9504 211.106 18.6328 242.055C39.1141 252.084 61.3178 251.653 77.4323 242.486C94.4079 238.548 110.953 222.858 118.395 200.646C120.117 194.555 122.762 187.602 124.484 181.449L-1.04907 53.2849C-35.4308 20.6132 -71.6577 -10.3973 -96.4445 -48.299C-134.332 -106.259 -135.255 -149.021 -194.915 -200.89C-261.157 -240.145 -321.31 -237.5 -363.133 -175.602C-380.54 -150.314 -391.057 -122.441 -405.388 -94.9377L-405.818 -94.507C-433.312 -80.1093 -460.743 -69.2188 -486.452 -52.2368C-547.466 -10.3973 -550.541 49.3471 -511.731 116.044C-459.021 175.789 -416.766 177.081 -359.197 214.552C-321.31 239.409 -290.311 275.588 -257.651 309.983L-129.965 435.132Z" fill="#E6E6E6"/>
<path d="M491.366 546.93C484.785 548.222 478.327 551.298 471.315 553.021C449.542 560.035 433.428 577.017 429.491 593.999C420.327 609.258 419.466 631.901 429.922 652.821C461.351 713.857 500.531 765.357 536.265 823.747C543.277 834.269 549.735 845.959 542.846 852.973C535.896 859.988 524.087 854.265 513.631 846.39C455.262 810.642 403.351 770.956 342.768 740.007C322.287 729.978 300.083 730.408 283.969 739.576C266.993 743.514 250.448 759.204 243.006 781.416C241.284 787.507 238.639 794.459 236.917 800.612L362.45 928.777C396.832 961.448 433.059 992.459 457.845 1030.36C495.733 1088.32 496.656 1131.08 556.316 1182.95C622.558 1222.21 682.711 1219.56 724.535 1157.66C741.941 1132.38 752.458 1104.5 766.789 1077L767.219 1076.57C794.712 1062.17 822.144 1051.28 847.854 1034.3C908.867 992.459 911.942 932.714 873.132 866.017C820.422 806.273 778.167 804.981 720.598 767.51C682.71 742.652 651.712 706.474 619.052 672.079L491.366 546.93Z" fill="#E6E6E6"/>
<path d="M236.544 180.22C237.835 186.804 240.91 193.264 242.633 200.278C249.644 222.059 266.62 238.18 283.595 242.118C298.849 251.286 321.483 252.147 342.395 241.687C403.409 210.246 454.889 171.052 513.258 135.304C523.775 128.29 535.461 121.829 542.473 128.72C549.485 135.673 543.765 147.487 535.892 157.947C500.157 216.337 460.486 268.268 429.549 328.873C419.523 349.362 419.954 371.574 429.118 387.695C433.054 404.677 448.738 421.228 470.942 428.673C477.031 430.396 483.981 433.041 490.132 434.764L618.248 309.184C650.908 274.79 681.907 238.549 719.794 213.753C777.733 175.851 820.479 174.928 872.328 115.246C911.569 48.9792 908.924 -11.1959 847.05 -53.0354C821.771 -70.448 793.909 -80.9694 766.416 -95.3056L765.985 -95.7363C751.593 -123.24 740.706 -150.681 723.731 -176.4C681.907 -237.437 622.185 -240.513 555.512 -201.689C495.79 -148.959 494.499 -106.688 457.042 -49.0976C432.193 -11.1959 396.028 19.8146 361.646 52.4864L236.544 180.22Z" fill="#E6E6E6"/>
<path d="M124.849 801.844C123.557 795.26 120.482 788.8 118.76 781.786C111.748 760.005 94.7725 743.884 77.7969 739.946C62.5435 730.779 39.9094 729.917 18.9974 740.377C-42.0163 771.818 -93.4966 811.012 -151.866 846.76C-162.322 853.774 -174.069 860.235 -181.081 853.344C-188.093 846.391 -182.372 834.578 -174.5 824.118C-138.765 765.727 -99.0937 713.797 -68.1563 653.191C-58.1309 632.702 -58.5614 610.49 -67.7258 594.37C-71.6621 577.388 -87.3461 560.836 -109.55 553.391C-115.639 551.669 -122.589 549.023 -128.739 547.3L-256.856 672.88C-289.515 707.275 -320.514 743.515 -358.402 768.311C-416.34 806.213 -459.087 807.136 -510.936 866.818C-550.177 933.085 -547.532 993.26 -485.657 1035.1C-460.378 1052.51 -432.516 1063.03 -405.023 1077.37L-404.593 1077.8C-390.2 1105.3 -379.314 1132.75 -362.338 1158.46C-320.514 1219.5 -260.792 1222.58 -194.12 1183.75C-134.398 1131.02 -133.106 1088.75 -95.6493 1031.16C-70.801 993.26 -34.6357 962.249 -0.253967 929.578L124.849 801.844Z" fill="#E6E6E6"/>
<path d="M-78.4944 671.28C-74.804 665.68 -72.3438 658.912 -68.592 652.759C-58.0745 632.455 -58.6895 609.012 -67.9768 594.184C-72.2822 576.894 -87.7203 560.282 -109.862 552.898C-175.181 531.917 -239.332 523.303 -305.82 507.244C-318.182 504.783 -331.099 501.091 -331.099 491.247C-331.099 481.402 -318.736 477.034 -305.82 475.249C-239.209 459.252 -174.505 450.576 -109.862 429.595C-88.2738 422.211 -72.8973 406.152 -67.9768 388.309C-58.751 373.481 -58.0745 350.715 -68.592 329.734C-71.6672 324.135 -74.7425 317.367 -77.8178 311.89L-257.169 310.045C-304.651 311.275 -352.072 314.967 -396.479 305.738C-464.259 291.524 -495.073 261.991 -573.985 267.467C-648.53 286.602 -689.247 330.964 -675.1 404.368C-669.503 434.579 -657.264 461.713 -647.976 491.308V491.923C-657.202 521.519 -668.95 548.653 -675.1 578.864C-688.632 651.652 -648.591 696.014 -573.985 715.765C-494.458 720.687 -463.643 691.707 -396.479 677.494C-352.134 668.265 -304.651 671.895 -257.169 673.187L-78.4944 671.28Z" fill="#E6E6E6"/>
<path d="M439.876 310.844C436.186 316.443 433.726 323.212 429.974 329.364C419.457 349.669 420.072 373.111 429.359 387.94C433.664 405.229 449.102 421.842 471.244 429.226C536.563 450.207 600.714 458.821 667.201 474.88C679.564 477.341 692.48 481.033 692.48 490.877C692.48 500.722 680.118 505.09 667.201 506.875C600.591 522.872 535.887 531.548 471.244 552.529C449.656 559.913 434.279 575.971 429.359 593.815C420.133 608.643 419.457 631.409 429.974 652.39C433.049 657.989 436.125 664.757 439.2 670.233L618.55 672.079C666.033 670.849 713.454 667.157 757.861 676.386C825.64 690.599 856.454 720.133 935.366 714.657C1009.91 695.522 1050.63 651.16 1036.48 577.756C1030.88 547.545 1018.65 520.411 1009.36 490.816V490.201C1018.58 460.605 1030.33 433.471 1036.48 403.26C1050.01 330.472 1009.97 286.11 935.366 266.359C855.839 261.437 825.025 290.417 757.861 304.63C713.515 313.859 666.033 310.229 618.55 308.937L439.876 310.844Z" fill="#E6E6E6"/>
<path d="M0.511353 231.782C6.1084 235.474 12.874 237.935 19.0245 241.688C39.3214 252.209 62.7551 251.594 77.578 242.303C94.8611 237.996 111.468 222.553 118.848 200.402C139.822 135.059 148.433 70.8843 164.486 4.3718C166.946 -7.99548 170.636 -20.9165 180.477 -20.9165C190.318 -20.9165 194.685 -8.54926 196.469 4.3718C212.46 71.0074 221.132 135.736 242.106 200.402C249.486 221.999 265.539 237.381 283.376 242.303C298.199 251.533 320.956 252.209 341.93 241.688C347.527 238.612 354.292 235.535 359.766 232.459L361.611 53.041C360.381 5.54083 356.691 -41.8978 365.917 -86.3215C380.125 -154.126 409.647 -184.952 404.173 -263.893C385.107 -338.528 340.761 -379.198 267.385 -365.047C237.185 -359.448 210.061 -347.203 180.477 -337.912H179.862C150.278 -347.142 123.154 -358.894 92.9545 -365.047C20.1932 -378.583 -24.1525 -338.528 -43.8958 -263.893C-48.8162 -184.337 -19.847 -153.511 -5.63922 -86.3215C3.58667 -41.9593 -0.0422363 5.54083 -1.33386 53.041L0.511353 231.782Z" fill="#E6E6E6"/>
<path d="M360.812 750.346C355.215 746.654 348.45 744.193 342.299 740.44C322.002 729.918 298.568 730.534 283.745 739.824C266.462 744.131 249.856 759.575 242.475 781.725C221.502 847.069 212.891 911.243 196.838 977.755C194.378 990.123 190.687 1003.04 180.846 1003.04C171.005 1003.04 166.639 990.677 164.855 977.755C148.863 911.12 140.191 846.392 119.218 781.725C111.837 760.129 95.784 744.747 77.9473 739.824C63.1244 730.595 40.3672 729.918 19.3938 740.44C13.7968 743.516 7.03119 746.592 1.55719 749.669L-0.288025 929.086C0.942078 976.586 4.63245 1024.03 -4.59338 1068.45C-18.8012 1136.25 -48.324 1167.08 -42.85 1246.02C-23.7217 1320.59 20.624 1361.33 94.0003 1347.17C124.2 1341.57 151.324 1329.33 180.908 1320.04H181.523C211.107 1329.27 238.231 1341.02 268.431 1347.17C341.192 1360.71 385.538 1320.65 405.281 1246.02C410.201 1166.46 381.232 1135.64 367.024 1068.45C357.798 1024.09 361.427 976.586 362.719 929.086L360.812 750.346Z" fill="#E6E6E6"/>
</g>
</g>
</svg>
