<svg width="905" height="266" viewBox="0 0 905 266" fill="none" xmlns="http://www.w3.org/2000/svg">
<g clip-path="url(#clip0_306_238)">
<g opacity="0.3">
<path d="M-126.965 437.435C-120.384 436.143 -113.926 433.066 -106.914 431.343C-85.1412 424.329 -69.0267 407.347 -65.0903 390.365C-55.9259 375.106 -55.0649 352.464 -65.5209 331.544C-96.9503 270.507 -136.129 219.008 -171.864 160.617C-178.876 150.157 -185.334 138.405 -178.445 131.391C-171.495 124.377 -159.686 130.099 -149.23 137.975C-90.8613 173.723 -38.9504 213.409 21.6327 244.358C42.1142 254.387 64.3178 253.956 80.4323 244.788C97.4079 240.851 113.953 225.161 121.395 202.949C123.117 196.858 125.762 189.905 127.484 183.752L1.95092 55.5877C-32.4308 22.9159 -68.6576 -8.09455 -93.4444 -45.9962C-131.332 -103.956 -132.255 -146.719 -191.915 -198.587C-258.157 -237.843 -318.31 -235.197 -360.133 -173.299C-377.54 -148.011 -388.057 -120.138 -402.388 -92.635L-402.818 -92.2043C-430.312 -77.8066 -457.743 -66.916 -483.452 -49.9341C-544.466 -8.09457 -547.541 51.6498 -508.731 118.347C-456.021 178.091 -413.766 179.383 -356.197 216.854C-318.31 241.712 -287.311 277.891 -254.651 312.285L-126.965 437.435Z" fill="#E6E6E6"/>
<path d="M494.366 549.233C487.785 550.525 481.327 553.601 474.315 555.324C452.542 562.338 436.428 579.32 432.491 596.302C423.327 611.561 422.466 634.204 432.922 655.123C464.351 716.16 503.53 767.659 539.265 826.05C546.277 836.571 552.735 848.262 545.846 855.276C538.896 862.29 527.087 856.568 516.631 848.692C458.262 812.944 406.351 773.258 345.768 742.31C325.287 732.28 303.083 732.711 286.969 741.879C269.993 745.817 253.448 761.506 246.006 783.718C244.284 789.81 241.639 796.762 239.917 802.915L365.45 931.079C399.832 963.751 436.059 994.762 460.845 1032.66C498.733 1090.62 499.656 1133.39 559.316 1185.25C625.558 1224.51 685.711 1221.86 727.534 1159.97C744.941 1134.68 755.458 1106.81 769.789 1079.3L770.219 1078.87C797.712 1064.47 825.144 1053.58 850.853 1036.6C911.867 994.761 914.942 935.017 876.132 868.32C823.422 808.576 781.167 807.284 723.598 769.813C685.71 744.955 654.712 708.776 622.052 674.382L494.366 549.233Z" fill="#E6E6E6"/>
<path d="M239.544 182.523C240.835 189.106 243.91 195.567 245.633 202.581C252.644 224.362 269.62 240.483 286.595 244.42C301.849 253.588 324.483 254.45 345.395 243.99C406.409 212.549 457.889 173.355 516.258 137.607C526.775 130.592 538.461 124.132 545.473 131.023C552.485 137.976 546.765 149.789 538.892 160.249C503.157 218.64 463.486 270.57 432.549 331.176C422.523 351.665 422.954 373.877 432.118 389.997C436.054 406.979 451.738 423.531 473.942 430.976C480.031 432.698 486.981 435.344 493.132 437.067L621.248 311.487C653.908 277.092 684.907 240.852 722.794 216.056C780.732 178.154 823.479 177.231 875.328 117.548C914.569 51.2819 911.924 -8.89312 850.05 -50.7326C824.771 -68.1453 796.909 -78.6667 769.416 -93.0029L768.985 -93.4336C754.593 -120.937 743.706 -148.379 726.731 -174.098C684.907 -235.134 625.185 -238.211 558.512 -199.386C498.79 -146.656 497.499 -104.386 460.042 -46.7948C435.193 -8.89314 399.028 22.1174 364.646 54.7891L239.544 182.523Z" fill="#E6E6E6"/>
<path d="M127.849 804.147C126.557 797.563 123.482 791.103 121.76 784.089C114.748 762.307 97.7725 746.187 80.7969 742.249C65.5435 733.081 42.9094 732.22 21.9974 742.68C-39.0163 774.121 -90.4967 813.315 -148.866 849.063C-159.322 856.077 -171.069 862.538 -178.081 855.646C-185.093 848.694 -179.372 836.88 -171.5 826.42C-135.765 768.03 -96.0937 716.099 -65.1563 655.494C-55.1309 635.005 -55.5614 612.793 -64.7258 596.672C-68.6621 579.69 -84.3461 563.139 -106.55 555.694C-112.639 553.971 -119.589 551.326 -125.739 549.603L-253.856 675.183C-286.515 709.577 -317.514 745.818 -355.402 770.614C-413.34 808.515 -456.087 809.438 -507.936 869.121C-547.177 935.388 -544.532 995.563 -482.657 1037.4C-457.378 1054.81 -429.516 1065.34 -402.023 1079.67L-401.593 1080.1C-387.2 1107.61 -376.314 1135.05 -359.338 1160.77C-317.514 1221.8 -257.792 1224.88 -191.12 1186.06C-131.398 1133.33 -130.106 1091.06 -92.6493 1033.46C-67.801 995.563 -31.6357 964.552 2.74606 931.88L127.849 804.147Z" fill="#E6E6E6"/>
<path d="M-75.4944 673.582C-71.804 667.983 -69.3438 661.215 -65.592 655.062C-55.0745 634.758 -55.6895 611.315 -64.9768 596.487C-69.2822 579.197 -84.7203 562.585 -106.862 555.201C-172.181 534.22 -236.332 525.606 -302.82 509.547C-315.182 507.086 -328.099 503.394 -328.099 493.549C-328.099 483.705 -315.736 479.336 -302.82 477.552C-236.209 461.554 -171.505 452.879 -106.862 431.898C-85.2738 424.514 -69.8973 408.455 -64.9768 390.612C-55.751 375.783 -55.0745 353.018 -65.592 332.036C-68.6673 326.437 -71.7425 319.669 -74.8178 314.193L-254.169 312.347C-301.651 313.578 -349.072 317.27 -393.479 308.04C-461.259 293.827 -492.073 264.293 -570.985 269.769C-645.53 288.905 -686.247 333.267 -672.1 406.671C-666.503 436.881 -654.264 464.016 -644.976 493.611V494.226C-654.202 523.821 -665.95 550.956 -672.1 581.166C-685.632 653.955 -645.591 698.317 -570.985 718.068C-491.458 722.99 -460.643 694.01 -393.479 679.797C-349.134 670.567 -301.651 674.198 -254.169 675.49L-75.4944 673.582Z" fill="#E6E6E6"/>
<path d="M442.876 313.147C439.186 318.746 436.726 325.514 432.974 331.667C422.457 351.972 423.071 375.414 432.359 390.243C436.664 407.532 452.102 424.145 474.244 431.528C539.563 452.51 603.714 461.124 670.201 477.183C682.564 479.644 695.48 483.336 695.48 493.18C695.48 503.025 683.118 507.393 670.201 509.178C603.591 525.175 538.887 533.851 474.244 554.832C452.656 562.215 437.279 578.274 432.359 596.118C423.133 610.946 422.457 633.712 432.974 654.693C436.049 660.292 439.125 667.06 442.2 672.536L621.55 674.382C669.033 673.151 716.454 669.46 760.861 678.689C828.64 692.902 859.454 722.436 938.366 716.96C1012.91 697.825 1053.63 653.462 1039.48 580.059C1033.88 549.848 1021.64 522.714 1012.36 493.119V492.503C1021.58 462.908 1033.33 435.774 1039.48 405.563C1053.01 332.775 1012.97 288.413 938.366 268.662C858.839 263.74 828.025 292.72 760.861 306.933C716.515 316.162 669.033 312.532 621.55 311.24L442.876 313.147Z" fill="#E6E6E6"/>
<path d="M3.51135 234.085C9.10837 237.776 15.874 240.238 22.0245 243.991C42.3214 254.512 65.7551 253.897 80.578 244.606C97.8611 240.299 114.468 224.855 121.848 202.705C142.822 137.361 151.433 73.1871 167.486 6.67452C169.946 -5.69275 173.636 -18.6138 183.477 -18.6138C193.318 -18.6138 197.685 -6.24651 199.469 6.67452C215.46 73.3101 224.132 138.038 245.106 202.705C252.486 224.302 268.539 239.684 286.376 244.606C301.199 253.835 323.956 254.512 344.93 243.991C350.527 240.914 357.292 237.838 362.766 234.761L364.611 55.3437C363.381 7.84356 359.691 -39.5951 368.917 -84.0188C383.125 -151.823 412.647 -182.649 407.173 -261.591C388.107 -336.225 343.761 -376.896 270.385 -362.744C240.185 -357.145 213.061 -344.901 183.477 -335.61H182.862C153.278 -344.839 126.154 -356.591 95.9544 -362.744C23.1932 -376.28 -21.1524 -336.225 -40.8958 -261.591C-45.8162 -182.034 -16.847 -151.208 -2.63922 -84.0188C6.58664 -39.6566 2.95778 7.84356 1.66616 55.3437L3.51135 234.085Z" fill="#E6E6E6"/>
<path d="M363.812 752.648C358.215 748.957 351.45 746.496 345.299 742.742C325.002 732.221 301.568 732.836 286.745 742.127C269.462 746.434 252.856 761.878 245.475 784.028C224.502 849.371 215.891 913.546 199.838 980.058C197.378 992.425 193.687 1005.35 183.846 1005.35C174.006 1005.35 169.639 992.979 167.855 980.058C151.863 913.423 143.191 848.695 122.218 784.028C114.837 762.431 98.784 747.049 80.9473 742.127C66.1244 732.898 43.3673 732.221 22.3938 742.742C16.7968 745.819 10.0312 748.895 4.55718 751.972L2.71198 931.389C3.9421 978.889 7.63247 1026.33 -1.59339 1070.75C-15.8012 1138.56 -45.324 1169.38 -39.85 1248.32C-20.7217 1322.9 23.624 1363.63 97.0003 1349.48C127.2 1343.88 154.324 1331.63 183.908 1322.34H184.523C214.107 1331.57 241.231 1343.32 271.431 1349.48C344.192 1363.01 388.538 1322.96 408.281 1248.32C413.201 1168.77 384.232 1137.94 370.024 1070.75C360.798 1026.39 364.427 978.889 365.719 931.389L363.812 752.648Z" fill="#E6E6E6"/>
</g>
</g>
<defs>
<clipPath id="clip0_306_238">
<rect width="905" height="266" fill="white"/>
</clipPath>
</defs>
</svg>
