<svg width="409" height="410" viewBox="0 0 409 410" fill="none" xmlns="http://www.w3.org/2000/svg">
<path d="M130.506 191.255C132.074 190.947 133.612 190.214 135.282 189.804C140.468 188.133 144.306 184.088 145.244 180.044C147.427 176.409 147.632 171.016 145.141 166.033C137.655 151.495 128.323 139.229 119.812 125.321C118.142 122.829 116.604 120.03 118.244 118.36C119.9 116.689 122.713 118.052 125.203 119.928C139.106 128.442 151.47 137.895 165.9 145.267C170.778 147.655 176.067 147.553 179.905 145.369C183.949 144.431 187.889 140.694 189.662 135.404C190.072 133.953 190.702 132.297 191.112 130.831L161.212 100.304C153.023 92.5224 144.394 85.1361 138.49 76.1085C129.466 62.3032 129.246 52.1178 115.036 39.7634C99.2582 30.4134 84.9307 31.0435 74.9688 45.7867C70.8229 51.81 68.3178 58.4489 64.9044 64.9998L64.8019 65.1024C58.2534 68.5317 51.7196 71.1257 45.596 75.1705C31.0634 85.1361 30.3309 99.3664 39.5749 115.253C52.1298 129.483 62.1942 129.791 75.9064 138.716C84.9307 144.636 92.3142 153.254 100.093 161.446L130.506 191.255Z" fill="#E6E6E6"/>
<path d="M278.498 217.884C276.931 218.191 275.393 218.924 273.723 219.334C268.537 221.005 264.698 225.05 263.761 229.095C261.578 232.729 261.373 238.122 263.863 243.105C271.349 257.643 280.681 269.91 289.193 283.817C290.863 286.324 292.401 289.108 290.76 290.779C289.105 292.449 286.292 291.086 283.802 289.211C269.899 280.696 257.535 271.243 243.105 263.872C238.226 261.483 232.938 261.585 229.099 263.769C225.056 264.707 221.115 268.444 219.343 273.735C218.932 275.186 218.302 276.842 217.892 278.307L247.792 308.834C255.982 316.616 264.61 324.002 270.514 333.03C279.539 346.835 279.758 357.02 293.969 369.375C309.747 378.725 324.074 378.095 334.036 363.352C338.182 357.328 340.687 350.689 344.1 344.138L344.203 344.036C350.751 340.607 357.285 338.013 363.409 333.968C377.941 324.002 378.674 309.772 369.43 293.886C356.875 279.655 346.81 279.348 333.098 270.423C324.074 264.502 316.69 255.885 308.911 247.692L278.498 217.884Z" fill="#E6E6E6"/>
<path d="M217.803 130.538C218.111 132.107 218.843 133.645 219.254 135.316C220.924 140.504 224.967 144.344 229.01 145.282C232.644 147.465 238.035 147.67 243.016 145.179C257.548 137.69 269.81 128.355 283.713 119.84C286.218 118.169 289.001 116.631 290.671 118.272C292.342 119.928 290.979 122.742 289.104 125.233C280.592 139.141 271.143 151.51 263.774 165.946C261.386 170.826 261.489 176.116 263.672 179.956C264.609 184.001 268.345 187.943 273.634 189.716C275.084 190.127 276.739 190.757 278.204 191.167L308.72 161.256C316.499 153.064 323.882 144.432 332.907 138.526C346.707 129.498 356.889 129.278 369.238 115.062C378.585 99.2787 377.955 84.9459 363.217 74.9803C357.196 70.8329 350.56 68.3268 344.011 64.9122L343.909 64.8096C340.481 58.2587 337.888 51.7224 333.844 45.5965C323.883 31.0585 309.658 30.3257 293.777 39.5732C279.552 52.1328 279.245 62.2009 270.323 75.9182C264.404 84.9459 255.79 92.3322 247.601 100.114L217.803 130.538Z" fill="#E6E6E6"/>
<path d="M191.199 278.6C190.892 277.032 190.159 275.494 189.749 273.823C188.079 268.635 184.035 264.795 179.992 263.857C176.359 261.674 170.968 261.468 165.987 263.96C151.454 271.449 139.192 280.784 125.29 289.299C122.799 290.97 120.001 292.508 118.331 290.867C116.661 289.211 118.024 286.397 119.899 283.906C128.41 269.998 137.859 257.629 145.228 243.193C147.616 238.313 147.514 233.023 145.331 229.183C144.393 225.138 140.657 221.196 135.369 219.423C133.919 219.012 132.263 218.382 130.798 217.972L100.283 247.883C92.5036 256.075 85.1201 264.707 76.0958 270.613C62.2957 279.641 52.1141 279.861 39.7643 294.076C30.4178 309.86 31.0477 324.193 45.7854 334.159C51.8065 338.306 58.4428 340.812 64.9913 344.227L65.0938 344.329C68.5219 350.88 71.1149 357.416 75.1582 363.542C85.1201 378.08 99.345 378.813 115.225 369.566C129.45 357.006 129.758 346.938 138.68 333.221C144.598 324.193 153.212 316.807 161.402 309.025L191.199 278.6Z" fill="#E6E6E6"/>
<path d="M142.766 247.502C143.645 246.168 144.231 244.556 145.124 243.091C147.63 238.254 147.483 232.671 145.271 229.139C144.245 225.021 140.568 221.064 135.294 219.305C119.736 214.308 104.457 212.256 88.6201 208.431C85.6755 207.845 82.5991 206.965 82.5991 204.621C82.5991 202.276 85.5437 201.235 88.6201 200.81C104.486 197 119.897 194.933 135.294 189.936C140.436 188.177 144.099 184.352 145.271 180.102C147.468 176.57 147.63 171.148 145.124 166.15C144.392 164.817 143.659 163.205 142.927 161.9L100.208 161.461C88.8985 161.754 77.6035 162.633 67.0263 160.435C50.8823 157.05 43.5427 150.015 24.747 151.319C6.99148 155.877 -2.70669 166.444 0.662759 183.927C1.99589 191.123 4.91119 197.586 7.12331 204.635V204.782C4.92584 211.831 2.12774 218.294 0.662759 225.49C-2.5602 242.827 6.97683 253.393 24.747 258.098C43.6892 259.27 51.0288 252.367 67.0263 248.982C77.5889 246.784 88.8985 247.648 100.208 247.956L142.766 247.502Z" fill="#E6E6E6"/>
<path d="M266.234 161.651C265.355 162.985 264.769 164.597 263.876 166.063C261.371 170.899 261.517 176.482 263.729 180.014C264.755 184.132 268.432 188.089 273.706 189.848C289.264 194.845 304.544 196.897 320.38 200.722C323.325 201.308 326.401 202.188 326.401 204.533C326.401 206.877 323.456 207.918 320.38 208.343C304.514 212.153 289.103 214.22 273.706 219.217C268.564 220.976 264.901 224.801 263.729 229.051C261.532 232.583 261.371 238.005 263.876 243.003C264.608 244.336 265.341 245.948 266.073 247.253L308.792 247.692C320.102 247.399 331.397 246.52 341.974 248.718C358.118 252.104 365.457 259.138 384.253 257.834C402.009 253.276 411.707 242.71 408.337 225.226C407.004 218.03 404.089 211.567 401.877 204.518V204.371C404.074 197.322 406.872 190.859 408.337 183.663C411.56 166.326 402.023 155.76 384.253 151.056C365.311 149.883 357.971 156.786 341.974 160.171C331.411 162.369 320.102 161.505 308.792 161.197L266.234 161.651Z" fill="#E6E6E6"/>
<path d="M161.584 142.82C162.917 143.699 164.528 144.285 165.993 145.179C170.828 147.685 176.409 147.539 179.94 145.326C184.057 144.3 188.012 140.621 189.77 135.346C194.766 119.782 196.817 104.496 200.64 88.6539C201.226 85.7082 202.105 82.6306 204.449 82.6306C206.793 82.6306 207.833 85.5763 208.258 88.6539C212.067 104.526 214.133 119.943 219.128 135.346C220.886 140.49 224.71 144.153 228.958 145.326C232.489 147.524 237.909 147.685 242.905 145.179C244.238 144.446 245.849 143.714 247.153 142.981L247.593 100.246C247.3 88.9323 246.421 77.6331 248.618 67.052C252.002 50.9019 259.034 43.5596 257.73 24.7569C253.189 6.98009 242.626 -2.70704 225.149 0.663675C217.956 1.9973 211.496 4.9137 204.449 7.12665H204.303C197.256 4.92836 190.796 2.1292 183.602 0.663675C166.272 -2.56048 155.709 6.98009 151.007 24.7569C149.835 43.7062 156.735 51.0485 160.119 67.052C162.316 77.6185 161.452 88.9323 161.144 100.246L161.584 142.82Z" fill="#E6E6E6"/>
<path d="M247.402 266.334C246.069 265.455 244.458 264.869 242.993 263.975C238.158 261.469 232.577 261.615 229.046 263.828C224.93 264.854 220.974 268.533 219.216 273.808C214.221 289.372 212.17 304.658 208.346 320.5C207.76 323.446 206.881 326.523 204.537 326.523C202.193 326.523 201.153 323.578 200.728 320.5C196.919 304.628 194.854 289.211 189.858 273.808C188.1 268.664 184.276 265.001 180.028 263.828C176.497 261.63 171.077 261.469 166.081 263.975C164.748 264.708 163.137 265.44 161.833 266.173L161.393 308.908C161.686 320.222 162.565 331.521 160.368 342.102C156.984 358.252 149.952 365.594 151.256 384.397C155.812 402.159 166.374 411.861 183.852 408.49C191.045 407.157 197.505 404.24 204.552 402.027H204.698C211.745 404.225 218.205 407.025 225.398 408.49C242.729 411.714 253.292 402.174 257.994 384.397C259.166 365.448 252.266 358.105 248.882 342.102C246.685 331.535 247.549 320.222 247.857 308.908L247.402 266.334Z" fill="#E6E6E6"/>
</svg>
