<svg width="3273" height="850" viewBox="0 0 3273 850" fill="none" xmlns="http://www.w3.org/2000/svg">
<path d="M271.223 397.325C274.481 396.685 277.678 395.163 281.148 394.311C291.926 390.84 299.903 382.437 301.852 374.034C306.388 366.483 306.814 355.279 301.638 344.928C286.081 314.725 266.687 289.242 248.998 260.349C245.527 255.174 242.33 249.358 245.74 245.888C249.18 242.417 255.026 245.248 260.202 249.145C289.095 266.834 314.791 286.472 344.78 301.786C354.919 306.749 365.91 306.536 373.886 301.999C382.289 300.051 390.479 292.287 394.163 281.296C395.016 278.282 396.325 274.841 397.177 271.797L335.038 208.378C318.018 192.212 300.086 176.867 287.816 158.113C269.062 129.433 268.605 108.273 239.072 82.6071C206.282 63.1827 176.506 64.4919 155.803 95.1203C147.187 107.633 141.981 121.425 134.887 135.035L134.674 135.248C121.065 142.372 107.486 147.761 94.7594 156.164C64.5571 176.867 63.0348 206.43 82.2461 239.433C108.338 268.996 129.254 269.635 157.752 288.177C176.506 300.477 191.851 318.379 208.018 335.398L271.223 397.325Z" fill="#5C7F94"/>
<path d="M578.787 452.645C575.529 453.284 572.332 454.806 568.861 455.659C558.083 459.13 550.107 467.533 548.158 475.936C543.622 483.486 543.195 494.69 548.371 505.042C563.929 535.244 583.323 560.727 601.012 589.62C604.483 594.826 607.68 600.611 604.27 604.082C600.829 607.552 594.984 604.721 589.808 600.824C560.915 583.135 535.219 563.497 505.23 548.183C495.091 543.221 484.1 543.434 476.123 547.97C467.72 549.919 459.531 557.682 455.847 568.673C454.994 571.687 453.685 575.128 452.832 578.172L514.972 641.591C531.991 657.757 549.924 673.102 562.194 691.857C580.948 720.536 581.405 741.696 610.937 767.362C643.727 786.786 673.503 785.477 694.207 754.849C702.823 742.336 708.029 728.544 715.123 714.935L715.336 714.721C728.945 707.597 742.524 702.208 755.25 693.805C785.453 673.102 786.975 643.539 767.764 610.536C741.672 580.973 720.755 580.334 692.258 561.793C673.503 549.492 658.159 531.59 641.992 514.571L578.787 452.645Z" fill="#3AADA7"/>
<path d="M335.81 296.702C338.581 298.529 341.93 299.747 344.974 301.604C355.021 306.81 366.621 306.506 373.959 301.909C382.514 299.778 390.734 292.136 394.388 281.175C404.77 248.842 409.032 217.087 416.979 184.175C418.196 178.055 420.023 171.662 424.894 171.662C429.766 171.662 431.927 177.781 432.81 184.175C440.726 217.148 445.019 249.177 455.401 281.175C459.055 291.862 467.001 299.473 475.83 301.909C483.168 306.476 494.433 306.81 504.815 301.604C507.585 300.082 510.934 298.56 513.644 297.037L514.557 208.258C513.948 184.753 512.122 161.28 516.688 139.298C523.721 105.747 538.335 90.4935 535.626 51.4316C526.188 14.5009 504.236 -5.62376 467.914 1.37876C452.965 4.14932 439.539 10.208 424.894 14.8053H424.59C409.946 10.2385 396.519 4.42333 381.57 1.37876C345.553 -5.31931 323.601 14.5009 313.828 51.4316C311.393 90.7979 325.733 106.051 332.766 139.298C337.332 161.249 335.536 184.753 334.897 208.258L335.81 296.702Z" fill="#3AADA7"/>
<path d="M514.162 553.299C511.391 551.472 508.042 550.255 504.997 548.397C494.95 543.191 483.35 543.496 476.013 548.093C467.458 550.224 459.237 557.866 455.584 568.826C445.202 601.16 440.94 632.915 432.993 665.827C431.775 671.946 429.949 678.34 425.077 678.34C420.206 678.34 418.044 672.22 417.161 665.827C409.245 632.854 404.953 600.825 394.571 568.826C390.917 558.14 382.971 550.529 374.141 548.093C366.804 543.526 355.539 543.191 345.157 548.397C342.386 549.92 339.037 551.442 336.328 552.964L335.414 641.744C336.023 665.248 337.85 688.722 333.283 710.704C326.25 744.255 311.636 759.508 314.346 798.57C323.815 835.47 345.766 855.625 382.088 848.623C397.037 845.852 410.463 839.793 425.108 835.196H425.412C440.057 839.763 453.483 845.578 468.432 848.623C504.449 855.321 526.401 835.5 536.174 798.57C538.61 759.204 524.27 743.95 517.237 710.704C512.67 688.752 514.466 665.248 515.105 641.744L514.162 553.299Z" fill="#5C7F94"/>
<path d="M296.702 514.176C298.528 511.405 299.746 508.056 301.603 505.011C306.81 494.964 306.505 483.365 301.908 476.027C299.777 467.472 292.135 459.252 281.174 455.598C248.841 445.216 217.086 440.954 184.174 433.007C178.054 431.789 171.661 429.963 171.661 425.091C171.661 420.22 177.78 418.059 184.174 417.176C217.147 409.26 249.176 404.967 281.174 394.585C291.861 390.931 299.472 382.985 301.908 374.156C306.475 366.818 306.81 355.553 301.603 345.171C300.081 342.401 298.559 339.052 297.036 336.342L208.257 335.429C184.752 336.038 161.279 337.864 139.297 333.297C105.746 326.265 90.4922 311.651 51.4303 314.36C14.53 323.829 -5.62516 345.78 1.37737 382.102C4.14794 397.051 10.2066 410.477 14.804 425.122V425.426C10.2371 440.071 4.42195 453.497 1.37737 468.446C-5.3207 504.463 14.4995 526.415 51.4303 536.188C90.7967 538.624 106.05 524.284 139.297 517.251C161.248 512.684 184.752 514.48 208.257 515.119L296.702 514.176Z" fill="#EEB83B"/>
<path d="M553.299 335.824C551.472 338.595 550.254 341.944 548.397 344.989C543.191 355.036 543.495 366.636 548.093 373.973C550.224 382.528 557.866 390.749 568.826 394.402C601.16 404.784 632.914 409.046 665.826 416.993C671.946 418.211 678.339 420.037 678.339 424.909C678.339 429.78 672.22 431.942 665.826 432.825C632.854 440.74 600.825 445.033 568.826 455.415C558.14 459.069 550.528 467.015 548.093 475.844C543.526 483.182 543.191 494.447 548.397 504.829C549.919 507.599 551.442 510.948 552.964 513.658L641.744 514.571C665.248 513.962 688.721 512.136 710.703 516.703C744.255 523.736 759.508 538.349 798.57 535.64C835.47 526.171 855.625 504.22 848.623 467.898C845.852 452.949 839.793 439.523 835.196 424.878V424.574C839.763 409.929 845.578 396.503 848.623 381.554C855.321 345.537 835.501 323.585 798.57 313.812C759.203 311.377 743.95 325.716 710.703 332.749C688.752 337.316 665.248 335.52 641.744 334.881L553.299 335.824Z" fill="#E28D3A"/>
<path d="M452.653 271.204C453.293 274.461 454.815 277.658 455.667 281.129C459.138 291.907 467.541 299.883 475.944 301.832C483.495 306.368 494.699 306.795 505.05 301.619C535.253 286.061 560.736 266.667 589.629 248.978C594.835 245.507 600.62 242.311 604.091 245.721C607.561 249.161 604.73 255.007 600.833 260.182C583.144 289.075 563.506 314.771 548.192 344.761C543.229 354.899 543.443 365.89 547.979 373.867C549.927 382.27 557.691 390.46 568.682 394.144C571.696 394.996 575.137 396.305 578.181 397.158L641.6 335.018C657.766 317.999 673.111 300.066 691.866 287.797C720.546 269.042 741.706 268.585 767.371 239.053C786.796 206.263 785.486 176.487 754.858 155.784C742.345 147.168 728.553 141.961 714.944 134.868L714.73 134.654C707.606 121.045 702.217 107.466 693.814 94.7401C673.111 64.5379 643.548 63.0156 610.545 82.2269C580.982 108.319 580.343 129.235 561.801 157.732C549.501 176.487 531.599 191.832 514.58 207.998L452.653 271.204Z" fill="#EEB83B"/>
<path d="M397.364 578.797C396.724 575.539 395.202 572.342 394.349 568.872C390.879 558.094 382.476 550.117 374.073 548.168C366.522 543.632 355.318 543.206 344.966 548.382C314.764 563.939 289.281 583.333 260.388 601.022C255.212 604.493 249.397 607.69 245.926 604.28C242.455 600.84 245.287 594.994 249.184 589.818C266.873 560.925 286.51 535.229 301.825 505.24C306.787 495.102 306.574 484.111 302.038 476.134C300.089 467.731 292.326 459.541 281.335 455.857C278.321 455.005 274.88 453.695 271.836 452.843L208.417 514.983C192.25 532.002 176.906 549.934 158.151 562.204C129.471 580.958 108.311 581.415 82.6455 610.948C63.2211 643.738 64.5303 673.513 95.1588 694.217C107.672 702.833 121.464 708.039 135.073 715.133L135.286 715.346C142.411 728.955 147.8 742.534 156.203 755.26C176.906 785.462 206.469 786.985 239.472 767.773C269.035 741.681 269.674 720.765 288.215 692.268C300.516 673.513 318.418 658.169 335.437 642.002L397.364 578.797Z" fill="#E28D3A"/>
<path d="M1255.38 231.187C1248.48 212.474 1238.36 196.103 1225.31 182.531C1212.32 169.031 1196.71 158.575 1178.91 151.451C1160.93 144.261 1141.06 140.615 1119.84 140.615H1028.03C1020.16 140.615 1013.75 147 1013.75 154.846V439.101C1013.75 446.947 1020.16 453.333 1028.03 453.333H1119.41C1140.96 453.333 1161.14 449.375 1179.4 441.575C1197.22 433.964 1212.85 422.853 1225.85 408.558C1238.75 394.383 1248.75 377.429 1255.58 358.16C1262.5 338.656 1266 317.205 1266 294.399C1266 271.593 1262.43 250.297 1255.38 231.187ZM1228.72 295.687C1228.72 332.238 1219 362.986 1200.61 384.6C1191.13 395.745 1179.39 404.369 1165.73 410.238C1151.24 416.461 1134.5 419.617 1115.97 419.617H1051.29C1050.2 419.617 1049.31 418.729 1049.31 417.64V176.308C1049.31 175.218 1050.2 174.33 1051.29 174.33H1115.97C1135.16 174.33 1152.42 177.722 1167.27 184.412C1180.9 190.552 1192.58 199.508 1201.99 211.024C1210.82 221.847 1217.61 234.85 1222.16 249.671C1226.51 263.853 1228.72 279.333 1228.72 295.687Z" fill="black"/>
<path d="M1521.98 439.138C1520.66 447.361 1513.63 453.333 1505.27 453.333H1336.97C1327.63 453.333 1320.05 445.768 1320.05 436.475V157.473C1320.05 148.179 1327.63 140.615 1336.97 140.615H1500.24C1509.57 140.615 1517.16 148.179 1517.16 157.473C1517.16 166.766 1509.57 174.33 1500.24 174.33H1360.23C1357.68 174.33 1355.61 176.397 1355.61 178.934V267.357C1355.61 269.894 1357.68 271.96 1360.23 271.96H1492.48C1501.81 271.96 1509.4 279.521 1509.4 288.818C1509.4 298.115 1501.81 305.676 1492.48 305.676H1360.23C1357.68 305.676 1355.61 307.743 1355.61 310.28V415.013C1355.61 417.55 1357.68 419.617 1360.23 419.617H1505.27C1510.23 419.617 1514.93 421.773 1518.14 425.536C1521.36 429.298 1522.76 434.256 1521.98 439.138Z" fill="black"/>
<path d="M1812.79 147.689V427.37C1812.79 430.507 1811.99 433.458 1810.59 436.041C1809.33 439.022 1807.26 441.711 1804.44 443.745C1796.25 449.65 1784.81 447.822 1778.88 439.661L1606.43 202.217C1606.43 202.217 1606.4 202.21 1606.4 202.227V425.121C1606.4 435.389 1598.02 443.864 1587.72 443.659C1577.78 443.463 1569.78 435.375 1569.78 425.423V146.089C1569.78 134.587 1580.23 125.655 1591.57 127.827C1595.23 128.529 1598.5 130.318 1601.04 132.842C1602.09 133.885 1603.01 135.054 1603.78 136.322L1776.13 373.647C1776.13 373.647 1776.17 373.654 1776.17 373.637V148.037C1776.17 136.534 1786.61 127.602 1797.95 129.775C1801.61 130.477 1804.89 132.265 1807.42 134.789C1810.74 138.091 1812.79 142.652 1812.79 147.689Z" fill="black"/>
<path d="M2090.54 157.473C2090.54 166.769 2082.95 174.33 2073.62 174.33H1993.49C1990.94 174.33 1988.87 176.397 1988.87 178.934V436.475C1988.87 445.768 1981.28 453.333 1971.95 453.333H1969.8C1960.47 453.333 1952.88 445.768 1952.88 436.475V178.934C1952.88 176.397 1950.8 174.33 1948.26 174.33H1868.56C1859.23 174.33 1851.64 166.769 1851.64 157.473C1851.64 148.176 1859.23 140.615 1868.56 140.615H2073.62C2082.95 140.615 2090.54 148.179 2090.54 157.473Z" fill="black"/>
<path d="M2317.84 429.967L2210.91 151.673C2208.37 145.059 2201.88 140.615 2194.78 140.615H2182.62C2175.41 140.615 2168.89 145.149 2166.41 151.895L2063.86 430.189C2061.91 435.465 2062.68 441.367 2065.91 445.974C2069.14 450.581 2074.43 453.333 2080.07 453.333C2087.28 453.333 2093.8 448.802 2096.29 442.062L2129.27 352.702C2129.98 350.762 2131.86 349.457 2133.94 349.457H2245.56C2247.62 349.457 2249.49 350.748 2250.22 352.669L2284 442.178C2286.51 448.848 2293.01 453.333 2300.17 453.333H2301.71C2307.4 453.333 2312.72 450.544 2315.94 445.874C2319.17 441.208 2319.88 435.259 2317.84 429.967ZM2233.54 313.608C2232.59 314.963 2231.1 315.741 2229.45 315.741H2150.11C2148.47 315.741 2146.99 314.979 2146.04 313.644C2145.1 312.313 2144.87 310.664 2145.42 309.127C2151.82 291.143 2157.82 274.361 2163.11 259.554C2173.9 229.362 2182.53 205.208 2188.42 188.151C2193.41 202.111 2200.79 221.466 2210.86 247.869C2214.2 256.619 2217.76 265.956 2221.61 276.08C2225.46 286.208 2229.6 297.124 2234.1 309.038C2234.69 310.584 2234.48 312.25 2233.54 313.608Z" fill="black"/>
<path d="M2560 439.78C2558.42 447.633 2551.44 453.333 2543.41 453.333H2382.07C2372.74 453.333 2365.15 445.768 2365.15 436.475V157.473C2365.15 148.179 2372.74 140.615 2382.07 140.615H2383.79C2393.12 140.615 2400.71 148.179 2400.71 157.473V415.013C2400.71 417.55 2402.78 419.617 2405.33 419.617H2543.41C2548.49 419.617 2553.26 421.866 2556.49 425.787C2559.71 429.709 2560.99 434.809 2560 439.78Z" fill="black"/>
<path d="M2644.11 158.33V435.614C2644.11 445.384 2636.13 453.333 2626.33 453.333C2616.52 453.333 2608.55 445.384 2608.55 435.614V158.33C2608.55 148.563 2616.52 140.615 2626.33 140.615C2636.13 140.615 2644.11 148.563 2644.11 158.33Z" fill="black"/>
<path d="M2955.31 443.728C2952.5 449.65 2946.68 453.333 2940.11 453.333H2938.86C2933.84 453.333 2929.12 451.124 2925.92 447.272L2805.15 302.003C2804.36 301.062 2803.26 300.489 2802.04 300.393C2800.81 300.297 2799.63 300.688 2798.71 301.496L2767.48 328.879C2766.51 329.731 2765.95 330.956 2765.95 332.244V436.594C2765.95 445.825 2758.42 453.333 2749.16 453.333H2747.19C2737.93 453.333 2730.39 445.825 2730.39 436.594V157.35C2730.39 148.123 2737.93 140.615 2747.19 140.615H2749.16C2758.42 140.615 2765.95 148.123 2765.95 157.35V278.183C2765.95 280.849 2767.86 281.952 2768.68 282.303C2769.5 282.654 2771.61 283.267 2773.55 281.432C2780.44 274.908 2788.49 267.297 2797.32 258.954C2832.67 225.543 2881.08 179.785 2916.55 145.361C2919.71 142.301 2923.87 140.615 2928.27 140.615C2935.19 140.615 2941.31 144.751 2943.87 151.15C2946.44 157.549 2944.85 164.749 2939.84 169.492L2831.13 272.281C2829.42 273.898 2829.26 276.577 2830.76 278.385L2953.06 425.94C2957.25 430.987 2958.11 437.803 2955.31 443.728Z" fill="black"/>
<path d="M3265.1 429.967L3158.16 151.673C3155.63 145.059 3149.14 140.615 3142.03 140.615H3129.88C3122.67 140.615 3116.15 145.149 3113.67 151.895L3011.12 430.189C3009.17 435.465 3009.94 441.367 3013.17 445.974C3016.4 450.581 3021.69 453.333 3027.33 453.333C3034.54 453.333 3041.05 448.802 3043.54 442.062L3076.53 352.702C3077.24 350.762 3079.12 349.457 3081.2 349.457H3192.82C3194.88 349.457 3196.75 350.748 3197.48 352.669L3231.26 442.178C3233.77 448.848 3240.27 453.333 3247.43 453.333H3248.97C3254.66 453.333 3259.98 450.544 3263.2 445.874C3266.43 441.208 3267.14 435.259 3265.1 429.967ZM3090.32 315.741C3097.63 295.184 3104.35 276.378 3110.36 259.56C3121.15 229.385 3129.78 205.221 3135.68 188.151C3140.67 202.124 3148.06 221.496 3158.12 247.872C3165.17 266.353 3173.78 288.934 3183.89 315.741H3090.32Z" fill="black"/>
<path d="M1098.65 646.431C1098.65 641.375 1097.87 636.772 1096.32 632.623C1094.76 628.345 1092.56 624.65 1089.72 621.538C1087 618.427 1083.7 616.028 1079.81 614.343C1075.93 612.657 1071.59 611.814 1066.8 611.814C1062.4 611.814 1058.19 612.528 1054.18 613.954C1050.16 615.25 1046.6 617.26 1043.5 619.982C1040.39 622.705 1037.93 626.141 1036.12 630.29C1034.31 634.309 1033.4 639.041 1033.4 644.486C1033.4 649.931 1034.18 654.923 1035.73 659.461C1037.41 663.869 1039.68 667.693 1042.53 670.935C1045.5 674.046 1049.06 676.509 1053.21 678.325C1057.35 680.14 1061.95 681.047 1066.99 681.047C1072.04 681.047 1076.51 680.14 1080.39 678.325C1084.41 676.509 1087.77 674.046 1090.49 670.935C1093.21 667.693 1095.22 663.998 1096.51 659.85C1097.94 655.571 1098.65 651.098 1098.65 646.431ZM1067.58 600.535C1074.18 600.535 1080.26 601.637 1085.83 603.841C1091.4 606.045 1096.12 609.157 1100.01 613.176C1104.02 617.195 1107.13 622.057 1109.33 627.761C1111.53 633.336 1112.63 639.559 1112.63 646.431C1112.63 653.432 1111.4 659.785 1108.94 665.489C1106.48 671.194 1103.18 676.056 1099.04 680.075C1094.89 683.964 1090.04 687.011 1084.47 689.215C1078.91 691.289 1073.01 692.327 1066.8 692.327C1059.55 692.327 1053.01 691.16 1047.19 688.826C1041.49 686.492 1036.64 683.186 1032.62 678.908C1028.61 674.5 1025.5 669.249 1023.3 663.156C1021.1 656.932 1020 649.996 1020 642.347C1020 638.587 1020.06 634.957 1020.19 631.456C1020.45 627.956 1020.71 624.52 1020.97 621.149C1023.04 598.201 1029.06 581.023 1039.03 569.614C1049.13 558.205 1064.34 552.5 1084.67 552.5H1110.88V563.779H1084.28C1074.83 563.779 1066.99 565.076 1060.78 567.669C1054.7 570.262 1049.71 573.957 1045.83 578.754C1041.94 583.551 1038.97 589.32 1036.89 596.062C1034.95 602.804 1033.46 610.259 1032.43 618.427C1035.79 612.981 1040.58 608.638 1046.8 605.397C1053.01 602.156 1059.94 600.535 1067.58 600.535Z" fill="black"/>
<path d="M1210.24 637.485C1209.85 628.928 1207.07 621.862 1201.89 616.287C1196.84 610.583 1189.59 607.731 1180.14 607.731C1175.74 607.731 1171.66 608.573 1167.9 610.259C1164.15 611.814 1160.85 614.019 1158 616.871C1155.15 619.593 1152.89 622.77 1151.2 626.4C1149.52 629.901 1148.55 633.596 1148.29 637.485H1210.24ZM1223.64 641.763C1223.64 642.671 1223.64 643.643 1223.64 644.681C1223.64 645.718 1223.57 646.82 1223.44 647.987H1148.1C1148.23 652.524 1149.13 656.803 1150.82 660.822C1152.5 664.841 1154.83 668.342 1157.81 671.323C1160.78 674.305 1164.28 676.704 1168.29 678.519C1172.31 680.204 1176.64 681.047 1181.3 681.047C1188.16 681.047 1194.06 679.491 1198.97 676.38C1204.02 673.139 1207.84 669.444 1210.43 665.295L1220.34 673.074C1214.9 679.945 1208.88 684.872 1202.28 687.854C1195.8 690.836 1188.81 692.327 1181.3 692.327C1174.57 692.327 1168.29 691.16 1162.47 688.826C1156.77 686.363 1151.85 682.992 1147.71 678.713C1143.57 674.435 1140.26 669.379 1137.8 663.545C1135.47 657.71 1134.31 651.357 1134.31 644.486C1134.31 637.615 1135.47 631.262 1137.8 625.428C1140.13 619.593 1143.37 614.537 1147.51 610.259C1151.66 605.98 1156.51 602.674 1162.08 600.341C1167.65 597.877 1173.67 596.646 1180.14 596.646C1187.26 596.646 1193.54 597.877 1198.97 600.341C1204.41 602.674 1208.94 605.915 1212.57 610.064C1216.19 614.083 1218.91 618.816 1220.72 624.261C1222.67 629.706 1223.64 635.54 1223.64 641.763Z" fill="black"/>
<path d="M1254.76 619.982L1244.47 613.759C1246.02 610.388 1248.29 607.406 1251.26 604.813C1253.85 602.609 1257.28 600.6 1261.56 598.785C1265.83 596.84 1271.27 595.868 1277.87 595.868C1283.69 595.868 1288.68 596.646 1292.82 598.201C1296.96 599.757 1300.33 601.832 1302.92 604.424C1305.51 606.888 1307.39 609.675 1308.55 612.787C1309.85 615.769 1310.49 618.686 1310.49 621.538C1310.49 624.52 1309.91 627.308 1308.75 629.901C1307.58 632.494 1305.96 634.762 1303.89 636.707C1301.82 638.652 1299.36 640.208 1296.51 641.375C1293.66 642.541 1290.62 643.19 1287.38 643.319V643.903C1290.88 643.903 1294.25 644.292 1297.48 645.07C1300.72 645.847 1303.5 647.079 1305.83 648.765C1308.29 650.45 1310.23 652.589 1311.66 655.182C1313.08 657.775 1313.79 660.887 1313.79 664.517C1313.79 672.685 1310.49 679.362 1303.89 684.548C1297.29 689.734 1288.29 692.327 1276.9 692.327C1269.91 692.327 1264.15 691.419 1259.61 689.604C1255.21 687.659 1251.72 685.585 1249.13 683.381C1246.02 680.788 1243.76 677.741 1242.33 674.241L1253.01 667.628C1254.05 670.351 1255.73 672.75 1258.06 674.824C1259.87 676.639 1262.4 678.26 1265.63 679.686C1269 681.112 1273.21 681.825 1278.26 681.825C1285.25 681.825 1290.75 680.269 1294.76 677.158C1298.78 674.046 1300.78 669.897 1300.78 664.711C1300.78 660.433 1299.1 656.803 1295.73 653.821C1292.5 650.709 1286.93 649.153 1279.03 649.153H1267.38V639.041H1277.09C1282.92 639.041 1287.84 637.744 1291.85 635.151C1295.86 632.429 1297.87 628.345 1297.87 622.899C1297.87 620.695 1297.48 618.556 1296.71 616.482C1295.93 614.407 1294.7 612.592 1293.02 611.037C1291.46 609.481 1289.39 608.249 1286.8 607.342C1284.21 606.304 1281.17 605.786 1277.67 605.786C1273.01 605.786 1269.2 606.564 1266.22 608.119C1263.24 609.546 1260.91 611.166 1259.23 612.981C1257.16 615.056 1255.67 617.389 1254.76 619.982Z" fill="black"/>
<path d="M1373.2 675.796H1373.59L1401.74 598.979H1416.11L1370.87 713.524C1368.15 720.525 1364.65 726.1 1360.38 730.249C1356.24 734.527 1350.22 736.667 1342.32 736.667C1338.31 736.667 1334.36 736.278 1330.47 735.5L1331.83 723.442C1334.94 724.48 1338.18 724.998 1341.54 724.998C1346.07 724.998 1349.63 723.572 1352.22 720.72C1354.81 717.997 1357.08 714.043 1359.02 708.857L1366.4 689.798L1327.56 598.979H1342.32L1373.2 675.796Z" fill="black"/>
<path d="M1449.18 689.993H1435.98V598.979H1512.68V689.993H1499.48V610.064H1449.18V689.993Z" fill="black"/>
<path d="M1560.14 736.667H1546.93V598.979H1560.14V614.732H1560.72C1564.48 608.768 1569.46 604.295 1575.68 601.313C1582.02 598.201 1588.43 596.646 1594.9 596.646C1602.02 596.646 1608.43 597.877 1614.13 600.341C1619.95 602.804 1624.87 606.175 1628.88 610.453C1633.03 614.732 1636.2 619.788 1638.4 625.622C1640.73 631.456 1641.9 637.744 1641.9 644.486C1641.9 651.228 1640.73 657.516 1638.4 663.35C1636.2 669.184 1633.03 674.241 1628.88 678.519C1624.87 682.797 1619.95 686.168 1614.13 688.632C1608.43 691.095 1602.02 692.327 1594.9 692.327C1588.43 692.327 1582.02 690.836 1575.68 687.854C1569.46 684.742 1564.48 680.334 1560.72 674.63H1560.14V736.667ZM1627.91 644.486C1627.91 639.43 1627.14 634.698 1625.58 630.29C1624.03 625.752 1621.76 621.862 1618.79 618.621C1615.94 615.25 1612.38 612.592 1608.11 610.648C1603.83 608.703 1598.98 607.731 1593.54 607.731C1588.49 607.731 1583.83 608.703 1579.56 610.648C1575.29 612.463 1571.6 615.056 1568.49 618.427C1565.38 621.668 1562.92 625.557 1561.11 630.095C1559.43 634.503 1558.59 639.3 1558.59 644.486C1558.59 649.672 1559.43 654.534 1561.11 659.072C1562.92 663.48 1565.38 667.304 1568.49 670.546C1571.6 673.787 1575.29 676.38 1579.56 678.325C1583.83 680.14 1588.49 681.047 1593.54 681.047C1598.98 681.047 1603.83 680.14 1608.11 678.325C1612.38 676.38 1615.94 673.787 1618.79 670.546C1621.76 667.175 1624.03 663.285 1625.58 658.877C1627.14 654.339 1627.91 649.542 1627.91 644.486Z" fill="black"/>
<path d="M1739.53 637.485C1739.14 628.928 1736.36 621.862 1731.18 616.287C1726.13 610.583 1718.88 607.731 1709.43 607.731C1705.03 607.731 1700.95 608.573 1697.19 610.259C1693.44 611.814 1690.14 614.019 1687.29 616.871C1684.44 619.593 1682.18 622.77 1680.49 626.4C1678.81 629.901 1677.84 633.596 1677.58 637.485H1739.53ZM1752.93 641.763C1752.93 642.671 1752.93 643.643 1752.93 644.681C1752.93 645.718 1752.86 646.82 1752.73 647.987H1677.39C1677.52 652.524 1678.42 656.803 1680.11 660.822C1681.79 664.841 1684.12 668.342 1687.1 671.323C1690.07 674.305 1693.57 676.704 1697.58 678.519C1701.6 680.204 1705.93 681.047 1710.59 681.047C1717.46 681.047 1723.35 679.491 1728.27 676.38C1733.31 673.139 1737.13 669.444 1739.72 665.295L1749.63 673.074C1744.19 679.945 1738.17 684.872 1731.57 687.854C1725.09 690.836 1718.1 692.327 1710.59 692.327C1703.86 692.327 1697.58 691.16 1691.76 688.826C1686.06 686.363 1681.14 682.992 1677 678.713C1672.86 674.435 1669.55 669.379 1667.09 663.545C1664.76 657.71 1663.6 651.357 1663.6 644.486C1663.6 637.615 1664.76 631.262 1667.09 625.428C1669.42 619.593 1672.66 614.537 1676.8 610.259C1680.95 605.98 1685.8 602.674 1691.37 600.341C1696.94 597.877 1702.96 596.646 1709.43 596.646C1716.55 596.646 1722.83 597.877 1728.27 600.341C1733.7 602.674 1738.23 605.915 1741.86 610.064C1745.48 614.083 1748.2 618.816 1750.02 624.261C1751.96 629.706 1752.93 635.54 1752.93 641.763Z" fill="black"/>
<path d="M1773.56 598.979H1786.77V612.203C1786.77 618.167 1786.96 623.224 1787.35 627.372C1787.74 631.521 1788.78 634.957 1790.46 637.68C1792.27 640.272 1795.05 642.152 1798.81 643.319C1802.56 644.486 1807.74 645.07 1814.34 645.07H1834.15V598.979H1847.36V689.993H1834.15V656.155H1814.15C1805.74 656.155 1798.87 655.377 1793.57 653.821C1788.26 652.265 1784.12 649.931 1781.14 646.82C1778.16 643.708 1776.15 639.884 1775.12 635.346C1774.08 630.678 1773.56 625.363 1773.56 619.399V598.979Z" fill="black"/>
<path d="M1893.89 689.993H1880.69V598.979H1893.89V635.735H1945.74V598.979H1958.95V689.993H1945.74V646.82H1893.89V689.993Z" fill="black"/>
<path d="M2083.46 644.486C2083.46 651.357 2082.23 657.71 2079.77 663.545C2077.44 669.379 2074.14 674.435 2069.87 678.713C2065.6 682.992 2060.48 686.363 2054.53 688.826C2048.57 691.16 2042.03 692.327 2034.91 692.327C2027.92 692.327 2021.45 691.16 2015.49 688.826C2009.54 686.363 2004.43 682.992 2000.15 678.713C1995.88 674.435 1992.51 669.379 1990.05 663.545C1987.72 657.71 1986.56 651.357 1986.56 644.486C1986.56 637.615 1987.72 631.262 1990.05 625.428C1992.51 619.593 1995.88 614.537 2000.15 610.259C2004.43 605.98 2009.54 602.674 2015.49 600.341C2021.45 597.877 2027.92 596.646 2034.91 596.646C2042.03 596.646 2048.57 597.877 2054.53 600.341C2060.48 602.674 2065.6 605.98 2069.87 610.259C2074.14 614.537 2077.44 619.593 2079.77 625.428C2082.23 631.262 2083.46 637.615 2083.46 644.486ZM2069.48 644.486C2069.48 639.43 2068.64 634.698 2066.96 630.29C2065.4 625.752 2063.14 621.862 2060.16 618.621C2057.18 615.25 2053.56 612.592 2049.28 610.648C2045.01 608.703 2040.22 607.731 2034.91 607.731C2029.61 607.731 2024.82 608.703 2020.54 610.648C2016.4 612.592 2012.84 615.25 2009.86 618.621C2006.88 621.862 2004.55 625.752 2002.87 630.29C2001.32 634.698 2000.54 639.43 2000.54 644.486C2000.54 649.542 2001.32 654.339 2002.87 658.877C2004.55 663.285 2006.88 667.175 2009.86 670.546C2012.84 673.787 2016.4 676.38 2020.54 678.325C2024.82 680.14 2029.61 681.047 2034.91 681.047C2040.22 681.047 2045.01 680.14 2049.28 678.325C2053.56 676.38 2057.18 673.787 2060.16 670.546C2063.14 667.175 2065.4 663.285 2066.96 658.877C2068.64 654.339 2069.48 649.542 2069.48 644.486Z" fill="black"/>
<path d="M2177.32 619.788C2175.12 616.287 2171.88 613.435 2167.61 611.231C2163.47 608.897 2158.94 607.731 2154.02 607.731C2148.71 607.731 2143.92 608.703 2139.65 610.648C2135.38 612.463 2131.69 615.056 2128.58 618.427C2125.6 621.668 2123.27 625.557 2121.59 630.095C2120.03 634.503 2119.26 639.3 2119.26 644.486C2119.26 649.672 2120.03 654.469 2121.59 658.877C2123.27 663.285 2125.6 667.175 2128.58 670.546C2131.56 673.787 2135.18 676.38 2139.45 678.325C2143.73 680.14 2148.52 681.047 2153.82 681.047C2159.65 681.047 2164.57 679.945 2168.58 677.741C2172.6 675.537 2175.9 672.685 2178.49 669.184L2188.39 676.574C2184.51 681.371 2179.72 685.196 2174.02 688.048C2168.45 690.9 2161.72 692.327 2153.82 692.327C2146.44 692.327 2139.78 691.16 2133.82 688.826C2127.87 686.363 2122.75 682.992 2118.48 678.713C2114.34 674.435 2111.1 669.379 2108.77 663.545C2106.44 657.71 2105.28 651.357 2105.28 644.486C2105.28 637.615 2106.44 631.262 2108.77 625.428C2111.1 619.593 2114.34 614.537 2118.48 610.259C2122.75 605.98 2127.87 602.674 2133.82 600.341C2139.78 597.877 2146.44 596.646 2153.82 596.646C2159.91 596.646 2166.06 598.007 2172.27 600.729C2178.62 603.322 2183.73 607.212 2187.61 612.398L2177.32 619.788Z" fill="black"/>
<path d="M2193.44 598.979H2273.25V610.064H2238.88V689.993H2225.68V610.064H2193.44V598.979Z" fill="black"/>
<path d="M2305.03 598.979V630.484H2327.56C2334.29 630.484 2339.99 631.262 2344.65 632.818C2349.44 634.244 2353.26 636.318 2356.11 639.041C2359.09 641.634 2361.22 644.745 2362.52 648.376C2363.81 652.006 2364.46 655.895 2364.46 660.044C2364.46 664.193 2363.68 668.082 2362.13 671.712C2360.57 675.343 2358.24 678.519 2355.14 681.242C2352.16 683.964 2348.4 686.103 2343.87 687.659C2339.47 689.215 2334.29 689.993 2328.34 689.993H2291.83V598.979H2305.03ZM2305.03 679.297H2325.23C2328.86 679.297 2332.22 679.038 2335.33 678.519C2338.44 677.871 2341.09 676.834 2343.29 675.407C2345.62 673.852 2347.37 671.842 2348.53 669.379C2349.83 666.915 2350.48 663.804 2350.48 660.044C2350.48 656.284 2349.83 653.173 2348.53 650.709C2347.24 648.246 2345.43 646.301 2343.1 644.875C2340.77 643.449 2337.98 642.477 2334.75 641.958C2331.64 641.31 2328.27 640.986 2324.65 640.986H2305.03V679.297Z" fill="black"/>
<path d="M2480.93 689.993H2439.37V598.979H2478.6C2490.12 598.979 2498.66 601.248 2504.23 605.786C2509.8 610.194 2512.58 616.093 2512.58 623.483C2512.58 626.854 2512.06 629.706 2511.03 632.04C2509.99 634.244 2508.5 636.124 2506.56 637.68C2504.75 639.106 2502.61 640.272 2500.15 641.18C2497.69 642.088 2495.1 642.93 2492.39 643.708C2495.75 643.967 2498.92 644.551 2501.9 645.458C2504.88 646.366 2507.47 647.727 2509.67 649.542C2512 651.228 2513.81 653.432 2515.11 656.155C2516.4 658.747 2517.05 661.924 2517.05 665.684C2517.05 673.074 2514.01 678.973 2507.92 683.381C2501.84 687.789 2492.84 689.993 2480.93 689.993ZM2452.58 679.297H2469.47C2474.26 679.297 2478.66 679.232 2482.68 679.102C2486.69 678.843 2490.19 678.26 2493.16 677.352C2496.14 676.315 2498.47 674.759 2500.15 672.685C2501.84 670.61 2502.68 667.693 2502.68 663.933C2502.68 657.71 2500.35 653.626 2495.69 651.682C2491.16 649.737 2485.01 648.765 2477.24 648.765H2452.58V679.297ZM2477.82 639.235C2484.29 639.235 2489.34 638.263 2492.97 636.318C2496.72 634.244 2498.6 630.225 2498.6 624.261C2498.6 620.89 2497.89 618.232 2496.46 616.287C2495.04 614.343 2493.03 612.917 2490.44 612.009C2487.85 610.972 2484.75 610.324 2481.12 610.064C2477.5 609.805 2473.48 609.675 2469.08 609.675H2452.58V639.235H2477.82Z" fill="black"/>
<path d="M2589.29 717.025H2576.28V678.519H2590.84L2624.25 598.979H2635.9L2666.77 678.519H2681.92V717.025H2669.1V689.993H2589.29V717.025ZM2604.24 678.519H2653.57L2629.68 614.926L2604.24 678.519Z" fill="black"/>
<path d="M2768.72 637.485C2768.33 628.928 2765.54 621.862 2760.37 616.287C2755.32 610.583 2748.07 607.731 2738.62 607.731C2734.21 607.731 2730.14 608.573 2726.38 610.259C2722.63 611.814 2719.33 614.019 2716.48 616.871C2713.63 619.593 2711.36 622.77 2709.68 626.4C2708 629.901 2707.03 633.596 2706.77 637.485H2768.72ZM2782.11 641.763C2782.11 642.671 2782.11 643.643 2782.11 644.681C2782.11 645.718 2782.05 646.82 2781.92 647.987H2706.57C2706.7 652.524 2707.61 656.803 2709.29 660.822C2710.98 664.841 2713.31 668.342 2716.28 671.323C2719.26 674.305 2722.76 676.704 2726.77 678.519C2730.78 680.204 2735.12 681.047 2739.78 681.047C2746.64 681.047 2752.53 679.491 2757.45 676.38C2762.5 673.139 2766.32 669.444 2768.91 665.295L2778.81 673.074C2773.38 679.945 2767.36 684.872 2760.75 687.854C2754.28 690.836 2747.29 692.327 2739.78 692.327C2733.05 692.327 2726.77 691.16 2720.94 688.826C2715.25 686.363 2710.33 682.992 2706.19 678.713C2702.04 674.435 2698.74 669.379 2696.28 663.545C2693.95 657.71 2692.79 651.357 2692.79 644.486C2692.79 637.615 2693.95 631.262 2696.28 625.428C2698.61 619.593 2701.85 614.537 2705.99 610.259C2710.13 605.98 2714.99 602.674 2720.56 600.341C2726.12 597.877 2732.14 596.646 2738.62 596.646C2745.74 596.646 2752.01 597.877 2757.45 600.341C2762.89 602.674 2767.42 605.915 2771.05 610.064C2774.67 614.083 2777.39 618.816 2779.2 624.261C2781.14 629.706 2782.11 635.54 2782.11 641.763Z" fill="black"/>
<path d="M2794.98 598.979H2874.8V610.064H2840.42V689.993H2827.22V610.064H2794.98V598.979Z" fill="black"/>
<path d="M2951.44 631.262C2951.44 623.353 2949.37 617.454 2945.22 613.565C2941.08 609.675 2935.06 607.731 2927.16 607.731C2921.73 607.731 2916.68 608.703 2912.02 610.648C2907.36 612.592 2903.41 615.185 2900.17 618.427L2892.79 609.675C2896.55 605.915 2901.47 602.804 2907.55 600.341C2913.76 597.877 2920.76 596.646 2928.52 596.646C2933.44 596.646 2938.04 597.359 2942.31 598.785C2946.58 600.081 2950.34 602.091 2953.57 604.813C2956.81 607.536 2959.33 610.972 2961.15 615.121C2962.96 619.269 2963.87 624.131 2963.87 629.706V669.573C2963.87 673.074 2964 676.704 2964.25 680.464C2964.51 684.224 2964.9 687.4 2965.42 689.993H2953.57C2953.19 687.789 2952.86 685.39 2952.6 682.797C2952.34 680.204 2952.21 677.676 2952.21 675.213H2951.83C2947.68 681.306 2942.96 685.715 2937.65 688.437C2932.47 691.03 2926.19 692.327 2918.81 692.327C2915.32 692.327 2911.69 691.808 2907.94 690.771C2904.31 689.863 2900.95 688.308 2897.84 686.103C2894.86 683.899 2892.34 681.047 2890.27 677.547C2888.32 674.046 2887.35 669.768 2887.35 664.711C2887.35 657.71 2889.1 652.2 2892.6 648.181C2896.22 644.032 2901.01 640.986 2906.97 639.041C2912.92 636.966 2919.72 635.67 2927.36 635.151C2935.13 634.503 2943.15 634.179 2951.44 634.179V631.262ZM2947.55 644.486C2942.12 644.486 2936.61 644.745 2931.05 645.264C2925.61 645.653 2920.63 646.56 2916.09 647.987C2911.69 649.283 2908.07 651.228 2905.22 653.821C2902.37 656.414 2900.95 659.85 2900.95 664.128C2900.95 667.369 2901.53 670.092 2902.7 672.296C2903.99 674.5 2905.67 676.315 2907.74 677.741C2909.82 679.038 2912.08 680.01 2914.54 680.658C2917.13 681.177 2919.72 681.436 2922.31 681.436C2926.97 681.436 2931.11 680.658 2934.74 679.102C2938.36 677.417 2941.4 675.213 2943.86 672.49C2946.32 669.638 2948.2 666.397 2949.5 662.767C2950.79 659.136 2951.44 655.312 2951.44 651.293V644.486H2947.55Z" fill="black"/>
<path d="M3059.64 689.993L3029.54 614.926L2998.08 689.993H2984.29L3024.1 598.979H3035.75L3073.04 689.993H3059.64Z" fill="black"/>
<path d="M3135.97 650.904C3125.87 650.904 3118.17 654.404 3112.86 661.405C3107.55 668.277 3104.38 677.806 3103.35 689.993H3088.59C3088.98 684.937 3089.82 680.075 3091.11 675.407C3092.41 670.74 3094.15 666.526 3096.35 662.767C3098.68 658.877 3101.4 655.571 3104.51 652.848C3107.75 649.996 3111.44 647.857 3115.58 646.431V645.847C3108.98 645.199 3103.54 643.254 3099.27 640.013C3095 636.642 3092.86 631.651 3092.86 625.039C3092.86 616.741 3096.03 610.324 3102.37 605.786C3108.85 601.248 3118.23 598.979 3130.53 598.979H3164.9V689.993H3151.7V650.904H3135.97ZM3106.84 625.039C3106.84 628.15 3107.55 630.678 3108.98 632.623C3110.4 634.568 3112.28 636.059 3114.61 637.096C3117.07 638.004 3119.85 638.652 3122.96 639.041C3126.07 639.3 3129.24 639.43 3132.47 639.43H3151.7V610.453H3132.28C3128.78 610.453 3125.48 610.583 3122.38 610.842C3119.27 611.101 3116.55 611.75 3114.22 612.787C3112.02 613.694 3110.21 615.121 3108.78 617.065C3107.49 619.01 3106.84 621.668 3106.84 625.039Z" fill="black"/>
<path d="M3220.46 642.93L3186.86 598.979H3203.76L3228.61 633.596L3253.47 598.979H3269.39L3236.38 642.347L3272.5 689.993H3255.41L3228.42 652.071L3200.65 689.993H3184.72L3220.46 642.93Z" fill="black"/>
</svg>
