<svg width="742" height="1025" viewBox="0 0 742 1025" fill="none" xmlns="http://www.w3.org/2000/svg">
<g opacity="0.3">
<path d="M680.088 480.055C688.251 478.452 696.262 474.636 704.959 472.499C731.966 463.798 751.955 442.733 756.838 421.669C768.206 402.741 769.274 374.655 756.304 348.706C717.318 272.995 668.72 209.115 624.394 136.686C615.697 123.711 607.686 109.134 616.231 100.433C624.852 91.7327 639.5 98.8306 652.47 108.6C724.871 152.942 789.262 202.169 864.411 240.559C889.816 252.999 917.358 252.465 937.346 241.093C958.403 236.209 978.926 216.747 988.157 189.195C990.293 181.639 993.574 173.015 995.71 165.383L839.997 6.40576C797.349 -34.1207 752.413 -72.5866 721.667 -119.6C674.671 -191.495 673.526 -244.538 599.522 -308.877C517.355 -357.57 442.741 -354.288 390.862 -277.509C369.271 -246.141 356.225 -211.567 338.449 -177.452L337.915 -176.918C303.812 -159.058 269.786 -145.55 237.895 -124.485C162.213 -72.5866 158.398 1.52124 206.539 84.2533C271.922 158.361 324.335 159.964 395.745 206.443C442.741 237.277 481.193 282.154 521.704 324.817L680.088 480.055Z" fill="#E7E7E7"/>
<path d="M1450.8 618.73C1442.63 620.333 1434.62 624.149 1425.92 626.286C1398.92 634.986 1378.93 656.051 1374.05 677.116C1362.68 696.043 1361.61 724.13 1374.58 750.079C1413.57 825.789 1462.16 889.67 1506.49 962.099C1515.19 975.149 1523.2 989.65 1514.65 998.351C1506.03 1007.05 1491.38 999.954 1478.41 990.185C1406.01 945.842 1341.62 896.615 1266.47 858.226C1241.07 845.785 1213.53 846.319 1193.54 857.691C1172.48 862.576 1151.96 882.038 1142.73 909.59C1140.59 917.145 1137.31 925.77 1135.17 933.402L1290.89 1092.38C1333.53 1132.9 1378.47 1171.37 1409.22 1218.38C1456.21 1290.28 1457.36 1343.32 1531.36 1407.66C1613.53 1456.35 1688.14 1453.07 1740.02 1376.29C1761.61 1344.92 1774.66 1310.35 1792.43 1276.24L1792.97 1275.7C1827.07 1257.84 1861.1 1244.33 1892.99 1223.27C1968.67 1171.37 1972.48 1097.26 1924.34 1014.53C1858.96 940.423 1806.55 938.821 1735.14 892.341C1688.14 861.507 1649.69 816.631 1609.18 773.967L1450.8 618.73Z" fill="#E7E7E7"/>
<path d="M1134.71 163.858C1136.31 172.024 1140.13 180.038 1142.26 188.738C1150.96 215.756 1172.02 235.752 1193.07 240.637C1211.99 252.009 1240.07 253.077 1266.01 240.103C1341.69 201.102 1405.55 152.486 1477.95 108.143C1491 99.4427 1505.49 91.429 1514.19 99.977C1522.89 108.601 1515.79 123.255 1506.03 136.23C1461.7 208.658 1412.49 273.073 1374.12 348.25C1361.68 373.664 1362.21 401.216 1373.58 421.213C1378.47 442.277 1397.92 462.807 1425.46 472.042C1433.01 474.179 1441.64 477.461 1449.26 479.598L1608.18 323.827C1648.69 281.163 1687.15 236.21 1734.14 205.453C1806.01 158.439 1859.03 157.294 1923.35 83.2627C1972.02 1.06488 1968.74 -73.5771 1891.99 -125.475C1860.63 -147.074 1826.07 -160.125 1791.97 -177.908L1791.44 -178.442C1773.58 -212.558 1760.08 -246.597 1739.02 -278.499C1687.15 -354.21 1613.07 -358.026 1530.36 -309.867C1456.28 -244.46 1454.68 -192.027 1408.22 -120.591C1377.4 -73.5771 1332.54 -35.1113 1289.89 5.41522L1134.71 163.858Z" fill="#E7E7E7"/>
<path d="M996.162 934.93C994.56 926.763 990.746 918.75 988.609 910.049C979.912 883.031 958.855 863.035 937.799 858.151C918.878 846.779 890.802 845.71 864.863 858.685C789.181 897.685 725.323 946.302 652.922 990.644C639.952 999.345 625.38 1007.36 616.683 998.81C607.985 990.186 615.081 975.532 624.846 962.558C669.172 890.129 718.381 825.714 756.756 750.538C769.192 725.123 768.658 697.571 757.29 677.575C752.407 656.51 732.953 635.98 705.411 626.745C697.858 624.608 689.237 621.326 681.608 619.189L522.69 774.961C482.179 817.624 443.727 862.577 396.731 893.335C324.864 940.348 271.84 941.493 207.526 1015.52C158.851 1097.72 162.131 1172.36 238.882 1224.26C270.238 1245.86 304.799 1258.91 338.901 1276.7L339.435 1277.23C357.288 1311.34 370.792 1345.38 391.848 1377.29C443.727 1453 517.808 1456.81 600.509 1408.65C674.589 1343.25 676.191 1290.81 722.653 1219.38C753.476 1172.36 798.336 1133.9 840.983 1093.37L996.162 934.93Z" fill="#E7E7E7"/>
<path d="M743.933 772.975C748.51 766.03 751.562 757.635 756.216 750.003C769.262 724.817 768.499 695.738 756.979 677.345C751.638 655.899 732.489 635.292 705.023 626.134C624 600.108 544.427 589.423 461.955 569.503C446.62 566.451 430.599 561.871 430.599 549.66C430.599 537.448 445.934 532.03 461.955 529.816C544.58 509.973 624.84 499.212 705.023 473.186C731.802 464.028 750.875 444.108 756.979 421.975C768.423 403.581 769.262 375.342 756.216 349.317C752.401 342.372 748.586 333.976 744.772 327.184L522.302 324.894C463.405 326.421 404.583 331 349.5 319.552C265.425 301.922 227.203 265.287 129.319 272.08C36.8523 295.816 -13.6534 350.843 3.89387 441.894C10.8365 479.368 26.0187 513.026 37.5389 549.736V550.499C26.095 587.21 11.5231 620.868 3.89387 658.341C-12.8905 748.629 36.776 803.657 129.319 828.156C227.965 834.261 266.188 798.314 349.5 780.684C404.507 769.236 463.405 773.739 522.302 775.341L743.933 772.975Z" fill="#E7E7E7"/>
<path d="M1386.93 325.886C1382.35 332.831 1379.3 341.227 1374.64 348.859C1361.6 374.045 1362.36 403.123 1373.88 421.517C1379.22 442.963 1398.37 463.57 1425.84 472.728C1506.86 498.754 1586.43 509.438 1668.9 529.358C1684.24 532.411 1700.26 536.99 1700.26 549.202C1700.26 561.413 1684.93 566.832 1668.9 569.045C1586.28 588.889 1506.02 599.65 1425.84 625.676C1399.06 634.834 1379.98 654.754 1373.88 676.887C1362.44 695.28 1361.6 723.519 1374.64 749.545C1378.46 756.49 1382.27 764.885 1386.09 771.678L1608.56 773.967C1667.46 772.441 1726.28 767.862 1781.36 779.31C1865.43 796.94 1903.66 833.574 2001.54 826.782C2094.01 803.046 2144.51 748.018 2126.97 656.967C2120.02 619.494 2104.84 585.836 2093.32 549.125V548.362C2104.76 511.652 2119.34 477.994 2126.97 440.521C2143.75 350.233 2094.08 295.205 2001.54 270.706C1902.89 264.6 1864.67 300.548 1781.36 318.178C1726.35 329.626 1667.46 325.123 1608.56 323.52L1386.93 325.886Z" fill="#E7E7E7"/>
<path d="M841.932 227.816C848.875 232.395 857.267 235.448 864.897 240.104C890.073 253.155 919.141 252.391 937.527 240.867C958.965 235.525 979.564 216.368 988.719 188.892C1014.74 107.839 1025.42 28.2363 1045.33 -54.2668C1048.38 -69.6074 1052.96 -85.6348 1065.16 -85.6348C1077.37 -85.6348 1082.79 -70.2943 1085 -54.2668C1104.84 28.389 1115.59 108.679 1141.61 188.892C1150.76 215.681 1170.68 234.761 1192.8 240.867C1211.19 252.315 1239.42 253.155 1265.43 240.104C1272.38 236.288 1280.77 232.472 1287.56 228.656L1289.85 6.10321C1288.32 -52.8167 1283.74 -111.66 1295.19 -166.764C1312.81 -250.87 1349.43 -289.107 1342.64 -387.027C1318.99 -479.604 1263.98 -530.053 1172.97 -512.499C1135.51 -505.554 1101.86 -490.366 1065.16 -478.841H1064.4C1027.7 -490.289 994.06 -504.867 956.6 -512.499C866.346 -529.289 811.339 -479.604 786.849 -387.027C780.746 -288.344 816.68 -250.107 834.303 -166.764C845.747 -111.737 841.246 -52.8167 839.644 6.10321L841.932 227.816Z" fill="#E7E7E7"/>
<path d="M1288.85 871.05C1281.91 866.471 1273.52 863.418 1265.89 858.762C1240.71 845.712 1211.65 846.475 1193.26 857.999C1171.82 863.342 1151.22 882.498 1142.07 909.974C1116.05 991.027 1105.37 1070.63 1085.46 1153.13C1082.41 1168.47 1077.83 1184.5 1065.62 1184.5C1053.42 1184.5 1048 1169.16 1045.79 1153.13C1025.95 1070.48 1015.19 990.187 989.177 909.974C980.022 883.185 960.11 864.105 937.985 857.999C919.599 846.551 891.37 845.712 865.355 858.762C858.412 862.578 850.02 866.395 843.23 870.211L840.941 1092.76C842.467 1151.68 847.044 1210.53 835.6 1265.63C817.977 1349.74 781.356 1387.97 788.146 1485.89C811.873 1578.39 866.88 1628.92 957.898 1611.36C995.357 1604.42 1029 1589.23 1065.7 1577.71H1066.46C1103.16 1589.15 1136.8 1603.73 1174.26 1611.36C1264.52 1628.15 1319.52 1578.47 1344.01 1485.89C1350.12 1387.21 1314.18 1348.97 1296.56 1265.63C1285.12 1210.6 1289.62 1151.68 1291.22 1092.76L1288.85 871.05Z" fill="#E7E7E7"/>
</g>
</svg>
