<svg width="1410" height="510" viewBox="0 0 1410 510" fill="none" xmlns="http://www.w3.org/2000/svg">
<mask id="mask0_349_50" style="mask-type:alpha" maskUnits="userSpaceOnUse" x="0" y="0" width="1410" height="510">
<rect width="1410" height="510" fill="url(#paint0_linear_349_50)"/>
</mask>
<g mask="url(#mask0_349_50)">
<rect x="-35.0593" width="1463.35" height="534.744" fill="#EEB83B"/>
<rect y="-43" width="1430.07" height="576" rx="20" fill="#F7FAFF"/>
<path d="M-433.656 1673.7C-415.987 1670.23 -398.648 1661.99 -379.822 1657.38C-321.364 1638.59 -278.098 1593.11 -267.53 1547.62C-242.924 1506.75 -240.613 1446.11 -268.686 1390.07C-353.07 1226.59 -458.262 1088.65 -554.206 932.256C-573.032 904.239 -590.371 872.762 -571.876 853.975C-553.215 835.188 -521.509 850.514 -493.436 871.609C-336.722 967.358 -197.347 1073.65 -34.688 1156.55C20.3023 1183.41 79.9167 1182.26 123.182 1157.7C168.76 1147.16 213.181 1105.13 233.163 1045.64C237.786 1029.32 244.887 1010.7 249.511 994.221L-87.5315 650.94C-179.843 563.431 -277.107 480.371 -343.657 378.854C-445.381 223.611 -447.859 109.075 -608.041 -29.8527C-785.892 -134.996 -947.395 -127.909 -1059.69 37.8805C-1106.42 105.614 -1134.66 180.269 -1173.14 253.935L-1174.29 255.088C-1248.11 293.652 -1321.76 322.821 -1390.79 368.306C-1554.6 480.371 -1562.86 640.393 -1458.66 819.037C-1317.13 979.059 -1203.69 982.52 -1049.12 1082.88C-947.395 1149.46 -864.167 1246.37 -776.479 1338.49L-433.656 1673.7Z" fill="#5C7F94"/>
<path d="M1234.55 1973.14C1216.88 1976.6 1199.54 1984.84 1180.71 1989.45C1122.26 2008.24 1078.99 2053.73 1068.42 2099.21C1043.82 2140.08 1041.5 2200.73 1069.58 2256.76C1153.96 2420.24 1259.15 2558.18 1355.1 2714.58C1373.92 2742.76 1391.26 2774.07 1372.77 2792.86C1354.11 2811.65 1322.4 2796.32 1294.33 2775.22C1137.61 2679.48 998.239 2573.18 835.58 2490.28C780.59 2463.42 720.976 2464.58 677.71 2489.13C632.132 2499.68 587.711 2541.7 567.729 2601.2C563.106 2617.51 556.005 2636.13 551.381 2652.61L888.424 2995.89C980.735 3083.4 1078 3166.46 1144.55 3267.98C1246.27 3423.22 1248.75 3537.76 1408.93 3676.69C1586.78 3781.83 1748.29 3774.74 1860.58 3608.95C1907.31 3541.22 1935.55 3466.56 1974.03 3392.9L1975.18 3391.74C2049 3353.18 2122.65 3324.01 2191.68 3278.53C2355.49 3166.46 2363.75 3006.44 2259.55 2827.8C2118.03 2667.77 2004.58 2664.31 1850.01 2563.95C1748.29 2497.37 1665.06 2400.47 1577.37 2308.34L1234.55 1973.14Z" fill="#3AADA7"/>
<path d="M-83.3406 1129.03C-68.3132 1138.92 -50.148 1145.51 -33.6344 1155.57C20.8605 1183.75 83.7772 1182.1 123.575 1157.21C169.978 1145.68 214.565 1104.31 234.381 1044.98C290.692 869.966 313.812 698.079 356.912 519.929C355.091 527.5 372.578 519.929 399 519.929C425.422 519.929 440.996 512.5 442.783 519.929C485.718 698.408 509.002 871.779 565.314 1044.98C585.13 1102.83 628.23 1144.03 676.12 1157.21C715.917 1181.93 777.018 1183.75 833.329 1155.57C848.357 1147.33 866.522 1139.09 881.219 1130.85L886.173 650.286C882.87 523.06 872.962 395.998 897.732 277.012C935.879 95.4011 1015.14 12.8358 1000.45 -198.604C949.255 -398.508 830.192 -507.441 633.185 -469.537C552.103 -454.54 479.278 -421.745 399.847 -396.86H398.196C318.765 -421.58 245.941 -453.057 164.859 -469.537C-30.497 -505.793 -149.56 -398.508 -202.569 -198.604C-215.78 14.4838 -138.001 97.0492 -99.8541 277.012C-75.0837 395.833 -84.8268 523.06 -88.2947 650.286L-83.3406 1129.03Z" fill="#3AADA7"/>
<path d="M884.027 2517.98C868.999 2508.09 850.834 2501.5 834.321 2491.44C779.826 2463.26 716.909 2464.91 677.111 2489.8C630.708 2501.33 586.122 2542.7 566.305 2602.02C509.994 2777.04 486.874 2948.93 443.774 3127.08C437.168 3160.21 427.26 3194.81 400.838 3194.81C374.417 3194.81 362.692 3161.69 357.903 3127.08C314.968 2948.6 291.684 2775.23 235.372 2602.02C215.556 2544.18 172.456 2502.98 124.566 2489.8C84.7682 2465.08 23.6679 2463.26 -32.6436 2491.44C-47.6709 2499.68 -65.8358 2507.92 -80.533 2516.16L-85.4871 2996.72C-82.1843 3123.95 -72.2762 3251.01 -97.0466 3370C-135.193 3551.61 -214.458 3634.17 -199.761 3845.61C-148.404 4045.35 -29.3409 4154.45 167.667 4116.54C248.748 4101.55 321.573 4068.75 401.004 4043.87H402.655C482.085 4068.59 554.911 4100.06 635.992 4116.54C831.348 4152.8 950.412 4045.52 1003.42 3845.61C1016.63 3632.52 938.852 3549.96 900.706 3370C875.935 3251.18 885.678 3123.95 889.146 2996.72L884.027 2517.98Z" fill="#5C7F94"/>
<path d="M-295.463 2306.2C-285.555 2291.21 -278.95 2273.08 -268.876 2256.6C-240.638 2202.21 -242.289 2139.42 -267.225 2099.71C-278.784 2053.4 -320.234 2008.9 -379.683 1989.13C-555.057 1932.93 -727.294 1909.86 -905.806 1866.84C-938.999 1860.25 -973.677 1850.36 -973.677 1823.99C-973.677 1797.63 -940.485 1785.93 -905.806 1781.15C-726.964 1738.3 -553.241 1715.06 -379.683 1658.86C-321.72 1639.09 -280.436 1596.08 -267.225 1548.28C-242.454 1508.57 -240.638 1447.59 -268.876 1391.39C-277.133 1376.4 -285.39 1358.27 -293.647 1343.6L-775.184 1338.66C-902.669 1341.95 -1029.99 1351.84 -1149.22 1327.12C-1331.2 1289.05 -1413.93 1209.95 -1625.8 1224.61C-1825.94 1275.87 -1935.26 1394.69 -1897.28 1591.3C-1882.26 1672.21 -1849.39 1744.89 -1824.46 1824.16V1825.81C-1849.23 1905.08 -1880.77 1977.75 -1897.28 2058.67C-1933.61 2253.63 -1826.11 2372.45 -1625.8 2425.35C-1412.28 2438.54 -1329.55 2360.92 -1149.22 2322.85C-1030.15 2298.13 -902.669 2307.85 -775.184 2311.31L-295.463 2306.2Z" fill="#EEB83B"/>
<path d="M1096.3 1340.8C1086.4 1355.8 1079.79 1373.92 1069.72 1390.4C1041.48 1444.79 1043.13 1507.58 1068.07 1547.29C1079.63 1593.6 1121.07 1638.1 1180.52 1657.88C1355.9 1714.07 1528.13 1737.14 1706.65 1780.16C1739.84 1786.75 1774.52 1796.64 1774.52 1823.01C1774.52 1849.37 1741.33 1861.07 1706.65 1865.85C1527.8 1908.7 1354.08 1931.94 1180.52 1988.14C1122.56 2007.91 1081.28 2050.93 1068.07 2098.72C1043.3 2138.44 1041.48 2199.41 1069.72 2255.61C1077.97 2270.61 1086.23 2288.73 1094.49 2303.4L1576.02 2308.34C1703.51 2305.05 1830.83 2295.16 1950.06 2319.88C2132.04 2357.95 2214.77 2437.05 2426.64 2422.39C2626.78 2371.13 2736.1 2252.31 2698.12 2055.7C2683.1 1974.79 2650.23 1902.11 2625.3 1822.84V1821.19C2650.07 1741.92 2681.61 1669.25 2698.12 1588.33C2734.45 1393.37 2626.95 1274.55 2426.64 1221.65C2213.12 1208.46 2130.39 1286.08 1950.06 1324.15C1830.99 1348.87 1703.51 1339.15 1576.02 1335.69L1096.3 1340.8Z" fill="#E28D3A"/>
<path d="M550.409 991.01C553.877 1008.64 562.134 1025.95 566.758 1044.73C585.583 1103.07 631.16 1146.25 676.738 1156.8C717.692 1181.35 778.462 1183.66 834.608 1155.65C998.423 1071.43 1136.64 966.454 1293.36 870.705C1321.59 851.917 1352.97 834.613 1371.8 853.071C1390.62 871.693 1375.26 903.335 1354.13 931.351C1258.18 1087.75 1151.67 1226.84 1068.61 1389.17C1041.69 1444.05 1042.84 1503.54 1067.45 1546.72C1078.02 1592.2 1120.13 1636.53 1179.74 1656.48C1196.09 1661.09 1214.75 1668.18 1231.27 1672.79L1575.24 1336.43C1662.93 1244.31 1746.16 1147.24 1847.88 1080.83C2003.44 979.309 2118.21 976.836 2257.42 816.979C2362.78 639.489 2355.68 478.313 2189.55 366.249C2121.68 319.61 2046.87 291.429 1973.06 253.03L1971.9 251.877C1933.26 178.211 1904.03 104.709 1858.45 35.8226C1746.16 -127.66 1585.81 -135.9 1406.8 -31.9105C1246.46 109.324 1242.99 222.542 1142.42 376.796C1075.71 478.313 978.607 561.373 886.296 648.882L550.409 991.01Z" fill="#EEB83B"/>
<path d="M250.521 2655.99C247.054 2638.36 238.797 2621.06 234.173 2602.27C215.348 2543.93 169.77 2500.75 124.193 2490.2C83.2389 2465.65 22.4689 2463.34 -33.6774 2491.36C-197.492 2575.57 -335.712 2680.55 -492.426 2776.3C-520.499 2795.09 -552.04 2812.39 -570.865 2793.93C-589.691 2775.31 -574.333 2743.67 -553.196 2715.65C-457.252 2559.26 -350.739 2420.16 -267.675 2257.83C-240.758 2202.96 -241.914 2143.46 -266.519 2100.28C-277.088 2054.8 -319.198 2010.47 -378.812 1990.53C-395.16 1985.91 -413.821 1978.83 -430.334 1974.21L-774.313 2310.57C-862 2402.69 -945.229 2499.76 -1046.95 2566.18C-1202.51 2667.69 -1317.28 2670.17 -1456.49 2830.02C-1561.85 3007.51 -1554.75 3168.69 -1388.62 3280.75C-1320.75 3327.39 -1245.94 3355.57 -1172.13 3393.97L-1170.97 3395.13C-1132.33 3468.79 -1103.1 3542.29 -1057.52 3611.18C-945.229 3774.66 -784.882 3782.9 -605.874 3678.91C-445.527 3537.68 -442.059 3424.46 -341.491 3270.21C-274.776 3168.69 -177.676 3085.63 -85.3651 2998.12L250.521 2655.99Z" fill="#E28D3A"/>
</g>
<defs>
<linearGradient id="paint0_linear_349_50" x1="8.49954" y1="7.69084e-06" x2="1192.61" y2="822.835" gradientUnits="userSpaceOnUse">
<stop stop-color="#FBFCFB"/>
<stop offset="1" stop-color="#D4DADA"/>
</linearGradient>
</defs>
</svg>
