<svg width="40" height="40" viewBox="0 0 40 40" fill="none" xmlns="http://www.w3.org/2000/svg">
	<circle cx="20.0041" cy="19.9928" r="19.9928" fill="white" />
	<path fill-rule="evenodd" clip-rule="evenodd" d="M20.0041 0C31.0458 0 39.9969 8.9511 39.9969 19.9928C39.9969 31.0346 31.0458 39.9857 20.0041 39.9857C8.96233 39.9857 0.0112305 31.0346 0.0112305 19.9928C0.0112305 8.9511 8.96233 0 20.0041 0ZM25.3306 17.4591C25.2333 16.6691 24.9905 16.0488 24.5593 15.4994C23.9994 14.7919 23.2839 14.3683 22.2245 14.117C21.5342 13.9494 21.2552 13.9687 21.0055 14.1968C20.773 14.4104 20.7275 14.8388 20.9053 15.1162C21.0303 15.3176 21.1745 15.3897 21.5755 15.4684C22.1096 15.5667 22.4787 15.6942 22.8144 15.8862C23.527 16.2976 23.8589 16.9415 23.8944 17.9839C23.911 18.4734 23.9533 18.6239 24.1242 18.7975C24.4411 19.1148 25.005 19.0531 25.2442 18.6733C25.3319 18.5302 25.3453 18.4679 25.3546 18.1356C25.3607 17.9298 25.3519 17.6235 25.3306 17.4591ZM25.3401 12.6123C27.0343 13.9823 27.9809 15.9295 28.1217 18.3498C28.1809 19.3031 28.1022 19.6135 27.7659 19.7904C27.4625 19.9543 27.1186 19.9003 26.8827 19.6536C26.7265 19.4932 26.6665 19.2737 26.6687 18.8851C26.6756 17.8107 26.4281 16.6109 26.0256 15.7783C25.5598 14.8093 24.8398 13.9847 23.934 13.3818C23.1406 12.8523 22.0906 12.4946 21.0725 12.4055C20.4121 12.3478 20.1763 12.2359 20.0496 11.9193C19.971 11.73 19.9918 11.4026 20.0838 11.2559C20.1709 11.1207 20.3662 10.9712 20.5043 10.9317C20.6506 10.889 21.5036 10.9636 21.9669 11.0557C23.2317 11.3131 24.3855 11.8425 25.3401 12.6123ZM31.2103 27.6704C31.1629 27.532 31.0525 27.3186 30.9735 27.1961C30.4763 26.4453 27.8051 24.3548 26.4713 23.6711C25.7098 23.2799 25.1456 23.1495 24.7273 23.272C24.2775 23.3985 24.0407 23.6079 23.2871 24.5445C22.9833 24.9199 22.6715 25.2716 22.5887 25.3269C22.3835 25.4692 21.981 25.5839 21.6969 25.5839C21.0379 25.5798 19.8424 25.1531 18.923 24.5919C18.2088 24.1572 17.2934 23.3787 16.591 22.6081C15.7623 21.7032 15.1982 20.9049 14.7522 20.0039C14.1762 18.846 14.0302 18.1386 14.2708 17.6209C14.33 17.4905 14.409 17.3522 14.4444 17.3087C14.48 17.2693 14.8509 16.9649 15.2612 16.633C16.0662 15.9928 16.1964 15.8466 16.3463 15.4079C16.5357 14.8507 16.4845 14.2816 16.1925 13.7087C15.9675 13.2739 15.3796 12.3255 14.9535 11.713C14.3892 10.9069 12.9845 9.18388 12.7043 8.95066C12.1993 8.53971 11.5522 8.46853 10.8379 8.74522C10.0844 9.03766 8.67171 10.1758 8.06798 10.9701C7.52346 11.6893 7.31439 12.1991 7.2828 12.8709C7.25519 13.4241 7.30253 13.6533 7.59452 14.3607C9.87916 19.909 13.2883 24.339 17.972 27.8561C20.4184 29.6937 22.9556 31.0926 25.5875 32.049C27.1224 32.6062 27.7892 32.6338 28.5744 32.1755C28.9059 31.9778 29.7266 31.1361 30.1843 30.5236C30.942 29.504 31.2221 29.0338 31.301 28.6583C31.3563 28.4015 31.3129 27.9549 31.2103 27.6704ZM30.2014 15.1617C30.682 16.4137 30.9125 17.5366 30.963 18.9057C30.9711 19.1761 30.9673 19.6716 30.9498 20.0073C30.9134 20.6507 30.8784 20.7786 30.6932 20.9488C30.3954 21.2282 29.8151 21.1616 29.595 20.8249C29.48 20.6443 29.4639 20.512 29.4861 19.7602C29.55 17.5365 29.1002 15.7953 28.0168 14.0543C26.7221 11.9655 24.7855 10.5583 22.2672 9.86994C21.625 9.69472 21.0838 9.58793 20.2422 9.47461C19.6939 9.40284 19.5738 9.3725 19.4385 9.28921C19.0297 9.02739 19.0242 8.3644 19.4318 8.09859C19.642 7.95827 19.7971 7.952 20.4826 8.03979C22.4925 8.29096 24.286 8.88821 25.7598 9.79071C26.8161 10.4385 27.4821 11.0204 28.3396 12.0395C29.2466 13.1265 29.7268 13.9301 30.2014 15.1617Z" fill="url(#paint0_linear_113_37)" />
	<defs>
		<linearGradient id="paint0_linear_113_37" x1="5.07922" y1="39.9274" x2="47.9653" y2="27.0255" gradientUnits="userSpaceOnUse">
			<stop stop-color="#3878B9" />
			<stop offset="1" stop-color="#008CE0" />
		</linearGradient>
	</defs>
</svg>
