<svg width="40" height="40" viewBox="0 0 40 40" fill="none" xmlns="http://www.w3.org/2000/svg">
	<circle cx="19.9928" cy="19.9928" r="19.9928" fill="white" />
	<path fill-rule="evenodd" clip-rule="evenodd" d="M39.9857 19.9928C39.9857 31.0346 31.0346 39.9857 19.9928 39.9857C8.95113 39.9857 0 31.0346 0 19.9928C0 8.95113 8.95113 0 19.9928 0C31.0346 0 39.9857 8.95113 39.9857 19.9928ZM13.3881 18.1614C11.3853 19.0359 9.32758 19.9344 7.44588 20.9708C6.46333 21.6902 7.7692 22.1991 8.99436 22.6765C9.18913 22.7524 9.38181 22.8274 9.56299 22.9024C9.71377 22.9488 9.86705 22.9976 10.0224 23.0471C11.385 23.4812 12.9043 23.9653 14.2272 23.2371C16.4002 21.9888 18.4509 20.5456 20.5001 19.1036C21.1714 18.6311 21.8426 18.1588 22.5179 17.6934C22.5495 17.6732 22.5852 17.65 22.6242 17.6248C23.1994 17.2518 24.4932 16.4132 24.0147 17.5688C22.8831 18.8064 21.6709 19.9018 20.4523 21.0033C19.6309 21.7456 18.8065 22.4907 18.0018 23.2838C17.301 23.8532 16.5732 24.9984 17.358 25.7958C19.1656 27.0612 21.0014 28.296 22.8362 29.53C23.4332 29.9315 24.0302 30.3331 24.626 30.7356C25.6358 31.5418 27.214 30.8896 27.436 29.6298C27.5347 29.0503 27.6339 28.4708 27.733 27.8913C28.2808 24.6885 28.8288 21.4846 29.3128 18.2714C29.3787 17.7673 29.4532 17.2633 29.5278 16.7591C29.7087 15.5369 29.8898 14.3133 29.9464 13.0846C29.8006 11.8583 28.3138 12.128 27.4864 12.4037C23.2336 14.022 19.0233 15.7602 14.8296 17.5291C14.3545 17.7395 13.873 17.9497 13.3881 18.1614Z" fill="url(#paint0_linear_113_43)" />
	<defs>
		<linearGradient id="paint0_linear_113_43" x1="5.06799" y1="39.9274" x2="47.954" y2="27.0255" gradientUnits="userSpaceOnUse">
			<stop stop-color="#3878B9" />
			<stop offset="1" stop-color="#008CE0" />
		</linearGradient>
	</defs>
</svg>
