<svg width="40" height="40" viewBox="0 0 40 40" fill="none" xmlns="http://www.w3.org/2000/svg">
	<circle cx="20.007" cy="19.9928" r="19.9928" fill="white" />
	<path fill-rule="evenodd" clip-rule="evenodd" d="M20.007 39.9857C8.96526 39.9857 0.0141602 31.0346 0.0141602 19.9928C0.0141602 8.9511 8.96526 0 20.007 0C31.0487 0 39.9998 8.9511 39.9998 19.9928C39.9998 31.0346 31.0487 39.9857 20.007 39.9857ZM20.666 31.116C27.2207 31.1133 32.5517 25.781 32.5543 19.2277C32.5556 16.0512 31.3201 13.0643 29.0756 10.8173C26.8311 8.57015 23.8462 7.33208 20.6659 7.33071C14.1131 7.33071 8.78001 12.6635 8.7774 19.2183C8.77651 21.3136 9.32394 23.3587 10.3643 25.1617L8.67773 31.3221L14.9799 29.6689C16.7163 30.6161 18.6714 31.1153 20.6611 31.116H20.666Z" fill="url(#paint0_linear_113_33)" />
	<path fill-rule="evenodd" clip-rule="evenodd" d="M15.272 27.5169L11.5322 28.4979L12.5304 24.8516L12.2954 24.4778C11.3063 22.9046 10.7839 21.0863 10.7847 19.2192C10.7868 13.7712 15.2195 9.33887 20.6699 9.33887C23.3092 9.33978 25.7901 10.3689 27.6557 12.2366C29.5213 14.1044 30.5481 16.5869 30.5471 19.2272C30.5449 24.6756 26.1122 29.1084 20.666 29.1084H20.662C18.8889 29.1077 17.1499 28.6313 15.6328 27.731L15.272 27.5169ZM26.6553 22.0549C26.5811 21.931 26.3831 21.8566 26.086 21.7079C25.789 21.5592 24.3286 20.8407 24.0562 20.7415C23.784 20.6424 23.5859 20.5929 23.3879 20.8901C23.1899 21.1875 22.6206 21.8566 22.4473 22.0549C22.274 22.2531 22.1007 22.278 21.8038 22.1292C21.5068 21.9806 20.5496 21.6669 19.415 20.6549C18.5319 19.8672 17.9357 18.8945 17.7625 18.5971C17.5892 18.2997 17.744 18.139 17.8927 17.9908C18.0263 17.8577 18.1898 17.6438 18.3383 17.4704C18.4868 17.297 18.5363 17.173 18.6353 16.9749C18.7343 16.7766 18.6848 16.6032 18.6106 16.4545C18.5363 16.3058 17.9422 14.8436 17.6947 14.2488C17.4536 13.6696 17.2087 13.7481 17.0263 13.7389C16.8533 13.7302 16.655 13.7284 16.457 13.7284C16.259 13.7284 15.9372 13.8027 15.6649 14.1001C15.3926 14.3975 14.6252 15.1162 14.6252 16.5782C14.6252 18.0404 15.6896 19.4529 15.8382 19.6511C15.9867 19.8494 17.9328 22.8497 20.9127 24.1364C21.6214 24.4425 22.1746 24.6253 22.6061 24.7622C23.3176 24.9883 23.9653 24.9564 24.477 24.8799C25.0478 24.7946 26.2345 24.1613 26.4821 23.4675C26.7296 22.7735 26.7296 22.1787 26.6553 22.0549Z" fill="url(#paint1_linear_113_33)" />
	<defs>
		<linearGradient id="paint0_linear_113_33" x1="5.08215" y1="39.9274" x2="47.9682" y2="27.0255" gradientUnits="userSpaceOnUse">
			<stop stop-color="#3878B9" />
			<stop offset="1" stop-color="#008CE0" />
		</linearGradient>
		<linearGradient id="paint1_linear_113_33" x1="13.2895" y1="29.0795" x2="34.4866" y2="22.7049" gradientUnits="userSpaceOnUse">
			<stop stop-color="#3878B9" />
			<stop offset="1" stop-color="#008CE0" />
		</linearGradient>
	</defs>
</svg>
