<svg width="94" height="93" viewBox="0 0 94 93" fill="none" xmlns="http://www.w3.org/2000/svg">
<path fill-rule="evenodd" clip-rule="evenodd" d="M46.3098 92.0313C71.173 92.0313 91.3286 71.8841 91.3286 47.0313C91.3286 22.1784 71.173 2.03125 46.3098 2.03125C21.4466 2.03125 1.29102 22.1784 1.29102 47.0313C1.29102 71.8841 21.4466 92.0313 46.3098 92.0313Z" stroke="white" stroke-opacity="0.428725"/>
<path opacity="0.8" d="M89.7947 58.6781C91.4542 52.4872 91.7716 46.0133 90.7255 39.6899C89.6794 33.3664 87.2941 27.3393 83.7291 22.0119C80.1641 16.6845 75.5018 12.1798 70.0542 8.79936C64.6065 5.41888 58.4993 3.24062 52.1414 2.41039" stroke="#EEB83B" stroke-width="4"/>
<path fill-rule="evenodd" clip-rule="evenodd" d="M61.3262 47.0316L40.9176 59.6316V34.4316L61.3262 47.0316Z" fill="#EEB83B"/>
</svg>
