<svg width="25" height="15" viewBox="0 0 25 15" fill="none" xmlns="http://www.w3.org/2000/svg">
<path fill-rule="evenodd" clip-rule="evenodd" d="M18.7653 1.0097C18.4398 0.684266 17.9122 0.684266 17.5867 1.0097C17.2613 1.33514 17.2613 1.86278 17.5867 2.18821L21.9981 6.59961H12.3598C12.3408 6.59831 12.3216 6.59766 12.3023 6.59766H1.46895C1.00872 6.59766 0.63562 6.97075 0.63562 7.43099C0.63562 7.89123 1.00872 8.26432 1.46895 8.26432H12.2852C12.3042 8.26562 12.3234 8.26628 12.3427 8.26628H21.9968L17.5867 12.6764C17.2613 13.0018 17.2613 13.5294 17.5867 13.8549C17.9122 14.1803 18.4398 14.1803 18.7653 13.8549L24.5986 8.02155C24.924 7.69611 24.924 7.16847 24.5986 6.84304L18.7653 1.0097Z" fill="#EEB83B"/>
</svg>
