<svg width="40" height="40" viewBox="0 0 40 40" fill="none" xmlns="http://www.w3.org/2000/svg">
<circle cx="19.9928" cy="19.9928" r="19.9928" fill="url(#paint0_linear_655_64)"/>
<path d="M19.993 9.49756C16.9658 9.49756 16.5862 9.5104 15.3973 9.56462C14.2109 9.61875 13.4007 9.8072 12.6917 10.0827C11.9587 10.3675 11.3371 10.7487 10.7175 11.3683C10.0978 11.988 9.71666 12.6096 9.43184 13.3426C9.15628 14.0516 8.9679 14.8618 8.91371 16.0482C8.85949 17.2371 8.84668 17.6167 8.84668 20.6438C8.84668 23.6709 8.85949 24.0505 8.91371 25.2394C8.9679 26.4258 9.15628 27.236 9.43184 27.945C9.71669 28.678 10.0978 29.2996 10.7175 29.9193C11.3372 30.5389 11.9587 30.9201 12.6917 31.2049C13.4007 31.4804 14.2109 31.6688 15.3973 31.723C16.5862 31.7772 16.9658 31.79 19.993 31.79C23.02 31.79 23.3996 31.7772 24.5885 31.723C25.7749 31.6689 26.5851 31.4804 27.2941 31.2049C28.0271 30.9201 28.6487 30.5389 29.2684 29.9193C29.888 29.2996 30.2692 28.678 30.554 27.945C30.8295 27.236 31.018 26.4258 31.0721 25.2394C31.1263 24.0505 31.1392 23.6709 31.1392 20.6438C31.1392 17.6167 31.1263 17.2371 31.0721 16.0482C31.018 14.8618 30.8295 14.0516 30.554 13.3426C30.2692 12.6096 29.888 11.988 29.2684 11.3683C28.6487 10.7487 28.0271 10.3675 27.2941 10.0827C26.5851 9.8072 25.7749 9.61875 24.5885 9.56462C23.3996 9.5104 23.02 9.49756 19.993 9.49756ZM19.993 11.5059C22.9691 11.5059 23.3216 11.5173 24.497 11.5709C25.5837 11.6204 26.1739 11.802 26.5666 11.9547C27.087 12.1569 27.4582 12.3984 27.8483 12.7884C28.2383 13.1785 28.4798 13.5498 28.6821 14.0701C28.8347 14.4628 29.0163 15.053 29.0658 16.1398C29.1195 17.3151 29.1308 17.6676 29.1308 20.6438C29.1308 23.62 29.1195 23.9725 29.0658 25.1478C29.0163 26.2346 28.8347 26.8248 28.6821 27.2175C28.4798 27.7378 28.2383 28.1091 27.8483 28.4991C27.4582 28.8892 27.0869 29.1307 26.5667 29.3329C26.1739 29.4856 25.5837 29.6672 24.497 29.7167C23.3218 29.7703 22.9693 29.7817 19.9929 29.7817C17.0165 29.7817 16.6641 29.7703 15.4889 29.7167C14.4021 29.6672 13.8119 29.4856 13.4192 29.3329C12.8989 29.1307 12.5276 28.8892 12.1376 28.4991C11.7475 28.1091 11.506 27.7378 11.3038 27.2175C11.1511 26.8248 10.9696 26.2346 10.92 25.1478C10.8664 23.9725 10.855 23.62 10.855 20.6438C10.855 17.6676 10.8664 17.3151 10.92 16.1398C10.9696 15.053 11.1511 14.4628 11.3038 14.0701C11.506 13.5498 11.7475 13.1785 12.1376 12.7885C12.5276 12.3984 12.8989 12.1569 13.4192 11.9547C13.8119 11.802 14.4021 11.6204 15.4889 11.5709C16.6642 11.5173 17.0168 11.5059 19.9929 11.5059" fill="white"/>
<path d="M19.9931 24.3593C17.941 24.3593 16.2776 22.6959 16.2776 20.6439C16.2776 18.5919 17.941 16.9285 19.9931 16.9285C22.045 16.9285 23.7085 18.5919 23.7085 20.6439C23.7085 22.6959 22.045 24.3593 19.9931 24.3593ZM19.9931 14.9202C16.8319 14.9202 14.2693 17.4828 14.2693 20.6439C14.2693 23.8051 16.8319 26.3676 19.9931 26.3676C23.1542 26.3676 25.7168 23.8051 25.7168 20.6439C25.7168 17.4828 23.1542 14.9202 19.9931 14.9202V14.9202ZM27.2805 14.694C27.2805 15.4328 26.6816 16.0316 25.9429 16.0316C25.2042 16.0316 24.6054 15.4328 24.6054 14.694C24.6054 13.9553 25.2042 13.3564 25.9429 13.3564C26.6816 13.3564 27.2805 13.9553 27.2805 14.694" fill="white"/>
<defs>
<linearGradient id="paint0_linear_655_64" x1="5.06799" y1="39.9274" x2="47.954" y2="27.0255" gradientUnits="userSpaceOnUse">
<stop stop-color="#3878B9"/>
<stop offset="1" stop-color="#008CE0"/>
</linearGradient>
</defs>
</svg>
