<svg width="51" height="51" viewBox="0 0 51 51" fill="none" xmlns="http://www.w3.org/2000/svg">
<path d="M25.5 31C22.4624 31 20 28.5376 20 25.5C20 22.4624 22.4624 20 25.5 20C28.5376 20 31 22.4624 31 25.5C31 28.5376 28.5376 31 25.5 31Z" fill="url(#paint0_linear_840_79)"/>
<path d="M25.5 31C22.4624 31 20 28.5376 20 25.5C20 22.4624 22.4624 20 25.5 20C28.5376 20 31 22.4624 31 25.5C31 28.5376 28.5376 31 25.5 31Z" fill="url(#paint1_radial_840_79)"/>
<path fill-rule="evenodd" clip-rule="evenodd" d="M32.1674 12.0692C30.4276 11.9898 29.9057 11.973 25.5 11.973C21.0943 11.973 20.5724 11.9898 18.8326 12.0692C17.2239 12.1425 16.3502 12.4113 15.7688 12.6373C14.9986 12.9366 14.4489 13.2942 13.8716 13.8716C13.2942 14.4489 12.9366 14.9986 12.6373 15.7688C12.4113 16.3502 12.1425 17.2239 12.0692 18.8326C11.9898 20.5724 11.973 21.0943 11.973 25.5C11.973 29.9057 11.9898 30.4276 12.0692 32.1674C12.1425 33.7761 12.4113 34.6498 12.6373 35.2312C12.9366 36.0014 13.2942 36.5511 13.8716 37.1284C14.4489 37.7058 14.9986 38.0634 15.7688 38.3627C16.3502 38.5887 17.2239 38.8575 18.8326 38.9308C20.5723 39.0102 21.094 39.027 25.5 39.027C29.906 39.027 30.4278 39.0102 32.1674 38.9308C33.7762 38.8575 34.6498 38.5887 35.2312 38.3627C36.0014 38.0634 36.5511 37.7058 37.1284 37.1284C37.7058 36.5511 38.0634 36.0014 38.3627 35.2312C38.5887 34.6498 38.8575 33.7761 38.9308 32.1674C39.0102 30.4276 39.027 29.9057 39.027 25.5C39.027 21.0943 39.0102 20.5724 38.9308 18.8326C38.8575 17.2239 38.5887 16.3502 38.3627 15.7688C38.0634 14.9986 37.7058 14.4489 37.1284 13.8716C36.5511 13.2942 36.0014 12.9366 35.2312 12.6373C34.6498 12.4113 33.7762 12.1425 32.1674 12.0692ZM34.3077 18.6722C35.4013 18.6722 36.2878 17.7858 36.2878 16.6923C36.2878 15.5987 35.4013 14.7122 34.3077 14.7122C33.2143 14.7122 32.3278 15.5987 32.3278 16.6923C32.3278 17.7858 33.2143 18.6722 34.3077 18.6722ZM17.027 25.5C17.027 20.8205 20.8205 17.027 25.5 17.027C30.1795 17.027 33.973 20.8205 33.973 25.5C33.973 30.1795 30.1795 33.973 25.5 33.973C20.8205 33.973 17.027 30.1795 17.027 25.5Z" fill="url(#paint2_linear_840_79)"/>
<path fill-rule="evenodd" clip-rule="evenodd" d="M32.1674 12.0692C30.4276 11.9898 29.9057 11.973 25.5 11.973C21.0943 11.973 20.5724 11.9898 18.8326 12.0692C17.2239 12.1425 16.3502 12.4113 15.7688 12.6373C14.9986 12.9366 14.4489 13.2942 13.8716 13.8716C13.2942 14.4489 12.9366 14.9986 12.6373 15.7688C12.4113 16.3502 12.1425 17.2239 12.0692 18.8326C11.9898 20.5724 11.973 21.0943 11.973 25.5C11.973 29.9057 11.9898 30.4276 12.0692 32.1674C12.1425 33.7761 12.4113 34.6498 12.6373 35.2312C12.9366 36.0014 13.2942 36.5511 13.8716 37.1284C14.4489 37.7058 14.9986 38.0634 15.7688 38.3627C16.3502 38.5887 17.2239 38.8575 18.8326 38.9308C20.5723 39.0102 21.094 39.027 25.5 39.027C29.906 39.027 30.4278 39.0102 32.1674 38.9308C33.7762 38.8575 34.6498 38.5887 35.2312 38.3627C36.0014 38.0634 36.5511 37.7058 37.1284 37.1284C37.7058 36.5511 38.0634 36.0014 38.3627 35.2312C38.5887 34.6498 38.8575 33.7761 38.9308 32.1674C39.0102 30.4276 39.027 29.9057 39.027 25.5C39.027 21.0943 39.0102 20.5724 38.9308 18.8326C38.8575 17.2239 38.5887 16.3502 38.3627 15.7688C38.0634 14.9986 37.7058 14.4489 37.1284 13.8716C36.5511 13.2942 36.0014 12.9366 35.2312 12.6373C34.6498 12.4113 33.7762 12.1425 32.1674 12.0692ZM34.3077 18.6722C35.4013 18.6722 36.2878 17.7858 36.2878 16.6923C36.2878 15.5987 35.4013 14.7122 34.3077 14.7122C33.2143 14.7122 32.3278 15.5987 32.3278 16.6923C32.3278 17.7858 33.2143 18.6722 34.3077 18.6722ZM17.027 25.5C17.027 20.8205 20.8205 17.027 25.5 17.027C30.1795 17.027 33.973 20.8205 33.973 25.5C33.973 30.1795 30.1795 33.973 25.5 33.973C20.8205 33.973 17.027 30.1795 17.027 25.5Z" fill="url(#paint3_radial_840_79)"/>
<path fill-rule="evenodd" clip-rule="evenodd" d="M25.5 51C11.4167 51 0 39.5833 0 25.5C0 11.4167 11.4167 0 25.5 0C39.5833 0 51 11.4167 51 25.5C51 39.5833 39.5833 51 25.5 51ZM18.6971 9.09929C20.457 9.01899 21.0189 9 25.5 9C29.9811 9 30.543 9.01899 32.3029 9.09929C34.0592 9.1794 35.2586 9.45835 36.3081 9.86626C37.3931 10.2879 38.3133 10.8521 39.2307 11.7693C40.1479 12.6867 40.7121 13.6069 41.1338 14.6919C41.5417 15.7414 41.8206 16.9408 41.9007 18.6971C41.981 20.457 42 21.0189 42 25.5C42 29.9811 41.981 30.543 41.9007 32.3029C41.8206 34.0592 41.5417 35.2586 41.1338 36.3081C40.7121 37.3931 40.1479 38.3133 39.2307 39.2307C38.3133 40.1479 37.3931 40.7121 36.3081 41.1338C35.2586 41.5417 34.0592 41.8206 32.3029 41.9007C30.543 41.981 29.9811 42 25.5 42C21.0189 42 20.457 41.981 18.6971 41.9007C16.9408 41.8206 15.7414 41.5417 14.6919 41.1338C13.6069 40.7121 12.6867 40.1479 11.7693 39.2307C10.8521 38.3133 10.2879 37.3931 9.86626 36.3081C9.45835 35.2586 9.1794 34.0592 9.09929 32.3029C9.01899 30.543 9 29.9811 9 25.5C9 21.0189 9.01899 20.457 9.09929 18.6971C9.1794 16.9408 9.45835 15.7414 9.86626 14.6919C10.2879 13.6069 10.8521 12.6867 11.7693 11.7693C12.6867 10.8521 13.6069 10.2879 14.6919 9.86626C15.7414 9.45835 16.9408 9.1794 18.6971 9.09929Z" fill="url(#paint4_linear_840_79)"/>
<path fill-rule="evenodd" clip-rule="evenodd" d="M25.5 51C11.4167 51 0 39.5833 0 25.5C0 11.4167 11.4167 0 25.5 0C39.5833 0 51 11.4167 51 25.5C51 39.5833 39.5833 51 25.5 51ZM18.6971 9.09929C20.457 9.01899 21.0189 9 25.5 9C29.9811 9 30.543 9.01899 32.3029 9.09929C34.0592 9.1794 35.2586 9.45835 36.3081 9.86626C37.3931 10.2879 38.3133 10.8521 39.2307 11.7693C40.1479 12.6867 40.7121 13.6069 41.1338 14.6919C41.5417 15.7414 41.8206 16.9408 41.9007 18.6971C41.981 20.457 42 21.0189 42 25.5C42 29.9811 41.981 30.543 41.9007 32.3029C41.8206 34.0592 41.5417 35.2586 41.1338 36.3081C40.7121 37.3931 40.1479 38.3133 39.2307 39.2307C38.3133 40.1479 37.3931 40.7121 36.3081 41.1338C35.2586 41.5417 34.0592 41.8206 32.3029 41.9007C30.543 41.981 29.9811 42 25.5 42C21.0189 42 20.457 41.981 18.6971 41.9007C16.9408 41.8206 15.7414 41.5417 14.6919 41.1338C13.6069 40.7121 12.6867 40.1479 11.7693 39.2307C10.8521 38.3133 10.2879 37.3931 9.86626 36.3081C9.45835 35.2586 9.1794 34.0592 9.09929 32.3029C9.01899 30.543 9 29.9811 9 25.5C9 21.0189 9.01899 20.457 9.09929 18.6971C9.1794 16.9408 9.45835 15.7414 9.86626 14.6919C10.2879 13.6069 10.8521 12.6867 11.7693 11.7693C12.6867 10.8521 13.6069 10.2879 14.6919 9.86626C15.7414 9.45835 16.9408 9.1794 18.6971 9.09929Z" fill="url(#paint5_radial_840_79)"/>
<defs>
<linearGradient id="paint0_linear_840_79" x1="2.97569" y1="2.68122" x2="19.0555" y2="64.8801" gradientUnits="userSpaceOnUse">
<stop stop-color="#4E60D3"/>
<stop offset="0.142763" stop-color="#913BAF"/>
<stop offset="0.761458" stop-color="#D52D88"/>
<stop offset="1" stop-color="#F26D4F"/>
</linearGradient>
<radialGradient id="paint1_radial_840_79" cx="0" cy="0" r="1" gradientUnits="userSpaceOnUse" gradientTransform="translate(15.4399 51) rotate(32.1601) scale(47.6313 34.2787)">
<stop stop-color="#FED276"/>
<stop offset="0.17024" stop-color="#FDBD61" stop-opacity="0.975006"/>
<stop offset="0.454081" stop-color="#F6804D"/>
<stop offset="1" stop-color="#E83D5C" stop-opacity="0.01"/>
</radialGradient>
<linearGradient id="paint2_linear_840_79" x1="2.97569" y1="2.68122" x2="19.0555" y2="64.8801" gradientUnits="userSpaceOnUse">
<stop stop-color="#4E60D3"/>
<stop offset="0.142763" stop-color="#913BAF"/>
<stop offset="0.761458" stop-color="#D52D88"/>
<stop offset="1" stop-color="#F26D4F"/>
</linearGradient>
<radialGradient id="paint3_radial_840_79" cx="0" cy="0" r="1" gradientUnits="userSpaceOnUse" gradientTransform="translate(15.4399 51) rotate(32.1601) scale(47.6313 34.2787)">
<stop stop-color="#FED276"/>
<stop offset="0.17024" stop-color="#FDBD61" stop-opacity="0.975006"/>
<stop offset="0.454081" stop-color="#F6804D"/>
<stop offset="1" stop-color="#E83D5C" stop-opacity="0.01"/>
</radialGradient>
<linearGradient id="paint4_linear_840_79" x1="2.97569" y1="2.68122" x2="19.0555" y2="64.8801" gradientUnits="userSpaceOnUse">
<stop stop-color="#4E60D3"/>
<stop offset="0.142763" stop-color="#913BAF"/>
<stop offset="0.761458" stop-color="#D52D88"/>
<stop offset="1" stop-color="#F26D4F"/>
</linearGradient>
<radialGradient id="paint5_radial_840_79" cx="0" cy="0" r="1" gradientUnits="userSpaceOnUse" gradientTransform="translate(15.4399 51) rotate(32.1601) scale(47.6313 34.2787)">
<stop stop-color="#FED276"/>
<stop offset="0.17024" stop-color="#FDBD61" stop-opacity="0.975006"/>
<stop offset="0.454081" stop-color="#F6804D"/>
<stop offset="1" stop-color="#E83D5C" stop-opacity="0.01"/>
</radialGradient>
</defs>
</svg>
