<svg width="19" height="28" viewBox="0 0 19 28" fill="none" xmlns="http://www.w3.org/2000/svg">
<path d="M9.00195 0.208008C4.03945 0.208008 0.00195312 4.24551 0.00195312 9.20803C0.00195312 10.6978 0.374415 12.1749 1.08248 13.485L8.50979 26.918C8.60866 27.0971 8.79708 27.208 9.00195 27.208C9.20683 27.208 9.39525 27.0971 9.49412 26.918L16.9242 13.4806C17.6295 12.1749 18.002 10.6977 18.002 9.20797C18.002 4.24551 13.9645 0.208008 9.00195 0.208008ZM9.00195 13.708C6.5207 13.708 4.50198 11.6893 4.50198 9.20803C4.50198 6.72677 6.5207 4.70804 9.00195 4.70804C11.4832 4.70804 13.5019 6.72677 13.5019 9.20803C13.5019 11.6893 11.4832 13.708 9.00195 13.708Z" fill="#5C7F94"/>
</svg>
