<svg width="26" height="26" viewBox="0 0 26 26" fill="none" xmlns="http://www.w3.org/2000/svg">
<path d="M23.0372 17.1186C21.504 17.1186 19.9986 16.8792 18.572 16.4086C17.8729 16.1706 17.0136 16.3889 16.5869 16.8264L13.7711 18.9484C10.5056 17.2082 8.4941 15.2008 6.77476 11.9653L8.83785 9.22754C9.37386 8.69316 9.56611 7.91257 9.33577 7.18014C8.86231 5.7485 8.62179 4.24635 8.62179 2.7151C8.62186 1.60892 7.72039 0.708984 6.61238 0.708984H2.01339C0.905378 0.708984 0.00390625 1.60892 0.00390625 2.71504C0.00390625 15.3941 10.3365 25.709 23.0372 25.709C24.1452 25.709 25.0467 24.809 25.0467 23.7029V19.1246C25.0466 18.0186 24.1451 17.1186 23.0372 17.1186Z" fill="#5C7F94"/>
</svg>
