<svg width="52" height="52" viewBox="0 0 52 52" fill="none" xmlns="http://www.w3.org/2000/svg">
<path fill-rule="evenodd" clip-rule="evenodd" d="M51.1758 25.9316C51.1758 40.0149 39.759 51.4316 25.6758 51.4316C11.5926 51.4316 0.175781 40.0149 0.175781 25.9316C0.175781 11.8484 11.5926 0.431641 25.6758 0.431641C39.759 0.431641 51.1758 11.8484 51.1758 25.9316ZM17.2518 23.5957C14.6973 24.711 12.0727 25.8571 9.67267 27.179C8.41947 28.0966 10.0851 28.7457 11.6477 29.3545C11.8961 29.4513 12.1419 29.547 12.373 29.6426C12.5653 29.7018 12.7608 29.7641 12.9589 29.8272C14.6969 30.3809 16.6347 30.9983 18.3219 30.0695C21.0935 28.4774 23.7091 26.6367 26.3227 24.7974C27.179 24.1948 28.0351 23.5923 28.8963 22.9988C28.9367 22.973 28.9822 22.9435 29.032 22.9113C29.7657 22.4356 31.4158 21.366 30.8054 22.8399C29.3621 24.4183 27.8161 25.8155 26.2617 27.2205C25.2141 28.1672 24.1627 29.1175 23.1363 30.129C22.2424 30.8554 21.3141 32.316 22.3151 33.3331C24.6206 34.9471 26.9622 36.5219 29.3023 38.0959C30.0638 38.608 30.8253 39.1201 31.5852 39.6335C32.8732 40.6618 34.8861 39.83 35.1692 38.2232C35.2951 37.484 35.4216 36.7449 35.548 36.0057C36.2467 31.9207 36.9456 27.8343 37.563 23.736C37.647 23.0931 37.7421 22.4503 37.8373 21.8071C38.0679 20.2483 38.2989 18.6876 38.3711 17.1204C38.1851 15.5564 36.2888 15.9004 35.2335 16.2521C29.8092 18.3161 24.4391 20.5331 19.0903 22.7892C18.4844 23.0576 17.8701 23.3258 17.2518 23.5957Z" fill="#EEB83B"/>
</svg>
