<svg width="26" height="26" viewBox="0 0 26 26" fill="none" xmlns="http://www.w3.org/2000/svg">
<g clip-path="url(#clip0_1_1113)">
<path d="M12.5253 0.228516C5.62072 0.228516 0.00390625 5.83574 0.00390625 12.7285C0.00390625 19.6213 5.62072 25.2285 12.5253 25.2285C19.4299 25.2285 25.0467 19.6213 25.0467 12.7285C25.0467 5.83574 19.4299 0.228516 12.5253 0.228516ZM18.4803 19.194C18.2768 19.3972 18.0097 19.4994 17.7426 19.4994C17.4755 19.4994 17.2082 19.3972 17.0049 19.194L11.7876 13.9858C11.5914 13.7911 11.4819 13.5264 11.4819 13.2494V6.47852C11.4819 5.9025 11.9492 5.43691 12.5253 5.43691C13.1013 5.43691 13.5687 5.9025 13.5687 6.47852V12.8182L18.4803 17.7212C18.8882 18.1286 18.8882 18.7868 18.4803 19.194Z" fill="#5C7F94"/>
</g>
<defs>
<clipPath id="clip0_1_1113">
<rect width="25.0428" height="25" fill="white" transform="translate(0.00390625 0.228516)"/>
</clipPath>
</defs>
</svg>
