<svg width="52" height="52" viewBox="0 0 52 52" fill="none" xmlns="http://www.w3.org/2000/svg">
<path fill-rule="evenodd" clip-rule="evenodd" d="M25.6758 0.394531C39.759 0.394531 51.1758 11.8113 51.1758 25.8945C51.1758 39.9778 39.759 51.3945 25.6758 51.3945C11.5925 51.3945 0.175781 39.9778 0.175781 25.8945C0.175781 11.8113 11.5925 0.394531 25.6758 0.394531ZM32.4695 22.6628C32.3455 21.6552 32.0358 20.8641 31.4858 20.1633C30.7717 19.261 29.859 18.7206 28.5079 18.4001C27.6273 18.1864 27.2716 18.211 26.9531 18.5019C26.6565 18.7744 26.5985 19.3208 26.8252 19.6746C26.9846 19.9314 27.1686 20.0234 27.6801 20.1238C28.3613 20.2492 28.832 20.4118 29.2602 20.6567C30.1691 21.1815 30.5924 22.0027 30.6377 23.3323C30.6589 23.9565 30.7128 24.1485 30.9309 24.3699C31.335 24.7746 32.0542 24.6959 32.3593 24.2116C32.4712 24.029 32.4883 23.9496 32.5001 23.5256C32.5079 23.2632 32.4967 22.8726 32.4695 22.6628ZM32.4816 16.4809C34.6425 18.2284 35.8499 20.712 36.0294 23.7989C36.105 25.0148 36.0046 25.4108 35.5757 25.6363C35.1886 25.8453 34.7501 25.7765 34.4492 25.4619C34.2499 25.2572 34.1734 24.9773 34.1763 24.4817C34.185 23.1113 33.8693 21.581 33.356 20.5191C32.7619 19.2831 31.8435 18.2314 30.6882 17.4624C29.6763 16.787 28.337 16.3308 27.0385 16.2172C26.1962 16.1436 25.8955 16.0009 25.7338 15.5971C25.6336 15.3556 25.6601 14.938 25.7775 14.751C25.8885 14.5785 26.1377 14.3878 26.3138 14.3374C26.5004 14.283 27.5884 14.3781 28.1793 14.4956C29.7925 14.8239 31.2641 15.4991 32.4816 16.4809ZM39.9688 35.6869C39.9084 35.5104 39.7675 35.2383 39.6668 35.082C39.0327 34.1244 35.6256 31.458 33.9245 30.586C32.9532 30.0871 32.2335 29.9208 31.7 30.0769C31.1263 30.2383 30.8243 30.5054 29.8631 31.7C29.4756 32.1788 29.078 32.6274 28.9723 32.6979C28.7106 32.8794 28.1973 33.0256 27.8349 33.0256C26.9944 33.0205 25.4695 32.4762 24.2969 31.7604C23.386 31.206 22.2184 30.2131 21.3226 29.2302C20.2656 28.076 19.546 27.0578 18.9773 25.9086C18.2425 24.4318 18.0563 23.5295 18.3633 22.8692C18.4388 22.7029 18.5395 22.5266 18.5847 22.471C18.63 22.4207 19.1031 22.0326 19.6265 21.6092C20.6532 20.7927 20.8193 20.6062 21.0105 20.0467C21.2521 19.3359 21.1867 18.6101 20.8143 17.8793C20.5274 17.3249 19.7775 16.1152 19.234 15.334C18.5143 14.3058 16.7226 12.1082 16.3653 11.8107C15.7211 11.2866 14.8958 11.1958 13.9848 11.5487C13.0236 11.9217 11.2218 13.3733 10.4518 14.3864C9.7573 15.3037 9.49065 15.9539 9.45035 16.8108C9.41514 17.5164 9.47551 17.8087 9.84794 18.711C12.7619 25.7876 17.1101 31.4379 23.084 35.9238C26.2043 38.2675 29.4403 40.0518 32.7972 41.2717C34.7549 41.9823 35.6054 42.0176 36.6069 41.4329C37.0296 41.1809 38.0765 40.1073 38.6603 39.326C39.6266 38.0256 39.9839 37.4258 40.0845 36.947C40.155 36.6194 40.0996 36.0498 39.9688 35.6869ZM38.682 19.7326C39.295 21.3295 39.589 22.7617 39.6535 24.5079C39.6637 24.8529 39.6589 25.4849 39.6366 25.913C39.5901 26.7337 39.5455 26.8967 39.3093 27.1138C38.9295 27.4702 38.1893 27.3852 37.9086 26.9558C37.762 26.7255 37.7414 26.5567 37.7697 25.5978C37.8512 22.7615 37.2775 20.5407 35.8956 18.3201C34.2443 15.656 31.7743 13.8612 28.5624 12.9832C27.7433 12.7597 27.053 12.6235 25.9794 12.479C25.2801 12.3874 25.127 12.3487 24.9544 12.2425C24.433 11.9086 24.426 11.063 24.9458 10.7239C25.214 10.545 25.4118 10.537 26.2861 10.6489C28.8497 10.9693 31.1372 11.731 33.0169 12.8822C34.3642 13.7083 35.2137 14.4505 36.3074 15.7504C37.4642 17.1368 38.0767 18.1618 38.682 19.7326Z" fill="#935ACC"/>
</svg>
