<svg width="120" height="60" viewBox="0 0 120 60" fill="none" xmlns="http://www.w3.org/2000/svg">
<path d="M95.3928 25.1387C95.8363 25.2009 96.2817 25.2532 96.7231 25.3273C96.9384 25.3638 97.1507 25.429 97.3581 25.5001C98.0751 25.745 98.5106 26.2457 98.6311 26.9894C98.7072 27.4595 98.7328 27.9375 98.7852 28.4431C97.8509 28.4431 96.967 28.4431 96.0683 28.4431C96.0624 28.3463 96.0594 28.2574 96.0496 28.1695C96.0101 27.7913 95.8234 27.5642 95.4521 27.4753C95.2783 27.4338 95.0966 27.4101 94.9178 27.4091C93.8255 27.4032 92.7333 27.4032 91.641 27.4091C91.4524 27.4101 91.2608 27.4358 91.0771 27.4782C90.5715 27.5958 90.1972 27.9049 90.1606 28.4224C90.1024 29.2341 90.0747 30.0568 90.1399 30.8666C90.1972 31.5777 90.5863 31.8927 91.3023 31.9065C92.5841 31.9302 93.868 31.9302 95.1499 31.9046C95.8363 31.8907 96.0525 31.6498 96.1464 30.9594C96.1562 30.8903 96.1681 30.8222 96.1859 30.7116C96.6214 30.7116 97.0589 30.7116 97.4954 30.7116C97.9359 30.7116 98.3753 30.7116 98.8484 30.7116C98.8652 31.4977 98.9274 32.268 98.557 32.979C98.2143 33.6387 97.5951 33.9074 96.9078 34.0555C96.6648 34.1078 96.4189 34.1434 96.174 34.1868C94.2887 34.1868 92.4034 34.1868 90.5181 34.1868C90.1448 34.1246 89.7666 34.0812 89.3982 33.9982C88.1242 33.7108 87.3895 32.8773 87.3441 31.5777C87.3006 30.3323 87.2937 29.0821 87.3401 27.8367C87.3954 26.3494 88.2092 25.4991 89.6925 25.2641C89.9681 25.2206 90.2436 25.1802 90.5191 25.1387C92.1437 25.1387 93.7683 25.1387 95.3928 25.1387Z" fill="black"/>
<path d="M6.8289 25.2582C9.30575 25.2582 11.7816 25.2533 14.2584 25.2622C14.6466 25.2631 15.0406 25.2977 15.4208 25.3708C16.5565 25.5861 17.2617 26.2784 17.3713 27.421C17.4503 28.2476 17.4503 29.1009 17.3328 29.9206C17.155 31.155 16.2514 31.8404 14.9952 31.8434C13.2807 31.8473 11.5663 31.8493 9.85188 31.8394C9.604 31.8384 9.52301 31.9056 9.52993 32.1574C9.54672 32.7756 9.53585 33.3939 9.53585 34.0664C8.62432 34.0664 7.7276 34.0664 6.83088 34.0664C6.8289 31.1303 6.8289 28.1943 6.8289 25.2582ZM9.53487 29.6569C9.65041 29.6687 9.71855 29.6825 9.7867 29.6825C11.0903 29.6835 12.3929 29.6835 13.6965 29.6825C13.7864 29.6825 13.8763 29.6707 13.9651 29.6559C14.3681 29.5897 14.61 29.3438 14.6574 28.9438C14.6742 28.8056 14.6742 28.6644 14.6742 28.5251C14.6722 27.7518 14.4204 27.4467 13.654 27.4299C12.3514 27.4012 11.0478 27.4161 9.74423 27.4249C9.67411 27.4249 9.54573 27.5365 9.54375 27.5978C9.52993 28.2743 9.53487 28.9527 9.53487 29.6569Z" fill="black"/>
<path d="M61.1012 27.7941C61.1012 29.867 61.1012 31.9399 61.1012 34.0395C60.2252 34.0395 59.371 34.0395 58.493 34.0395C58.493 31.1321 58.493 28.2217 58.493 25.2787C58.5849 25.2718 58.6797 25.259 58.7745 25.259C59.9774 25.258 61.1802 25.2629 62.3831 25.253C62.5836 25.2511 62.6833 25.3192 62.7752 25.491C63.6847 27.1887 64.6032 28.8814 65.5186 30.5751C65.5749 30.6798 65.6332 30.7835 65.7201 30.9415C65.8001 30.8062 65.8613 30.7104 65.9147 30.6106C66.8252 28.9248 67.7387 27.241 68.6404 25.5503C68.7589 25.3281 68.8922 25.2481 69.15 25.2511C70.4022 25.2669 71.6545 25.258 72.9373 25.258C72.9373 28.1931 72.9373 31.1084 72.9373 34.0454C72.088 34.0454 71.2426 34.0454 70.3627 34.0454C70.3627 31.9528 70.3627 29.8739 70.3627 27.7941C70.34 27.7862 70.3173 27.7783 70.2946 27.7714C70.2452 27.8474 70.1919 27.9215 70.1474 28.0005C69.0621 29.9322 67.9747 31.8629 66.8993 33.7995C66.7867 34.003 66.6662 34.082 66.4331 34.0721C65.9532 34.0533 65.4712 34.0573 64.9903 34.0701C64.7849 34.0761 64.6723 34.0119 64.5686 33.8262C63.5168 31.933 62.4542 30.0457 61.3945 28.1575C61.3224 28.0281 61.2454 27.9017 61.1713 27.7743C61.1486 27.7812 61.1249 27.7872 61.1012 27.7941Z" fill="black"/>
<path d="M56.027 25.2747C56.027 28.2157 56.027 31.1192 56.027 34.0483C55.9204 34.0542 55.8246 34.0651 55.7278 34.0651C54.5249 34.0661 53.3221 34.0602 52.1192 34.071C51.9039 34.073 51.7745 33.9999 51.6452 33.836C50.0887 31.8687 48.5254 29.9064 46.9631 27.9431C46.8969 27.8601 46.8248 27.7821 46.6944 27.631C46.6944 29.8244 46.6944 31.9309 46.6944 34.0513C45.7819 34.0513 44.9138 34.0513 44.0181 34.0513C44.0181 31.13 44.0181 28.2216 44.0181 25.2747C44.109 25.2687 44.2038 25.2579 44.2986 25.2579C45.5113 25.2569 46.7241 25.2608 47.9368 25.2529C48.1274 25.252 48.2449 25.3142 48.3624 25.4613C49.9317 27.4444 51.5079 29.4225 53.0821 31.4016C53.1433 31.4796 53.2085 31.5547 53.329 31.6998C53.329 29.5124 53.329 27.4019 53.329 25.2737C54.2533 25.2747 55.1293 25.2747 56.027 25.2747Z" fill="black"/>
<path d="M75.4467 25.2725C78.6692 25.2725 81.864 25.2725 85.0796 25.2725C85.0796 25.9401 85.0796 26.5929 85.0796 27.2723C82.7696 27.2723 80.4676 27.2723 78.1408 27.2723C78.1408 27.7602 78.1408 28.2224 78.1408 28.7161C80.3244 28.7161 82.5059 28.7161 84.7112 28.7161C84.7112 29.3294 84.7112 29.9101 84.7112 30.5214C82.5247 30.5214 80.3431 30.5214 78.1389 30.5214C78.1389 31.0123 78.1389 31.4744 78.1389 31.9702C80.5051 31.9702 82.8654 31.9702 85.2455 31.9702C85.2455 32.6773 85.2455 33.3508 85.2455 34.0451C81.9806 34.0451 78.7265 34.0451 75.4467 34.0451C75.4467 31.1327 75.4467 28.2145 75.4467 25.2725Z" fill="black"/>
<path d="M42.3925 34.0661C41.4158 34.0661 40.4845 34.07 39.5542 34.0582C39.4733 34.0572 39.3636 33.9673 39.3182 33.8893C39.098 33.5101 38.8866 33.1249 38.6881 32.7339C38.6062 32.5719 38.5104 32.5018 38.3198 32.5028C36.636 32.5097 34.9531 32.5097 33.2693 32.5037C33.0935 32.5028 32.9987 32.562 32.9237 32.7181C32.735 33.1141 32.5345 33.5051 32.3232 33.8893C32.2798 33.9673 32.1691 34.0582 32.0892 34.0592C31.1579 34.071 30.2266 34.0671 29.2509 34.0671C29.2963 33.9624 29.3239 33.8844 29.3634 33.8123C30.8675 31.0421 32.3736 28.274 33.8727 25.5008C33.9715 25.3181 34.0821 25.252 34.2905 25.2539C35.2928 25.2648 36.2943 25.2609 37.2966 25.2569C37.4566 25.2559 37.5672 25.2806 37.6571 25.4436C39.2027 28.2591 40.7561 31.0708 42.3076 33.8834C42.3303 33.9249 42.3481 33.9703 42.3925 34.0661ZM37.5495 30.6076C36.953 29.4867 36.3782 28.4053 35.7728 27.2666C35.1793 28.4181 34.6223 29.4995 34.0505 30.6076C35.2445 30.6076 36.3703 30.6076 37.5495 30.6076Z" fill="black"/>
<path d="M28.3186 31.8279C28.3186 32.5933 28.3186 33.3162 28.3186 34.0509C25.3865 34.0509 22.4741 34.0509 19.543 34.0509C19.543 31.1257 19.543 28.2173 19.543 25.2822C20.4199 25.2822 21.2959 25.2822 22.2084 25.2822C22.2084 27.446 22.2084 29.6157 22.2084 31.8269C24.2626 31.8279 26.2802 31.8279 28.3186 31.8279Z" fill="black"/>
<path d="M113.385 34.0651C112.411 34.0651 111.471 34.0691 110.531 34.0572C110.46 34.0562 110.366 33.9624 110.324 33.8884C110.107 33.5072 109.895 33.122 109.697 32.7299C109.615 32.568 109.516 32.5008 109.327 32.5008C107.643 32.5077 105.959 32.5077 104.274 32.5008C104.096 32.4998 104.004 32.564 103.928 32.7181C103.738 33.1131 103.538 33.5052 103.33 33.8913C103.29 33.9644 103.194 34.0562 103.123 34.0572C102.181 34.0681 101.24 34.0641 100.256 34.0641C100.306 33.9555 100.338 33.8765 100.378 33.8024C101.882 31.0313 103.389 28.2611 104.888 25.487C104.983 25.3122 105.086 25.25 105.283 25.252C106.296 25.2619 107.308 25.251 108.32 25.2648C108.433 25.2658 108.597 25.3458 108.648 25.4377C110.218 28.2641 111.777 31.0965 113.337 33.9288C113.353 33.9545 113.358 33.9842 113.385 34.0651ZM105.062 30.5987C106.251 30.5987 107.381 30.5987 108.553 30.5987C107.958 29.4778 107.386 28.4014 106.784 27.2676C106.196 28.4043 105.637 29.4867 105.062 30.5987Z" fill="black"/>
</svg>
