<svg width="119" height="60" viewBox="0 0 119 60" fill="none" xmlns="http://www.w3.org/2000/svg">
<path d="M50.9199 25.6867C50.9841 25.6867 51.1737 25.6551 51.2053 25.3687V24.6734C51.1737 24.4512 51.0473 24.387 50.9831 24.3574H44.2725C44.1787 24.3574 44.0503 24.4512 44.0207 24.7692V36.1925C44.0207 36.5421 44.2103 36.6063 44.2725 36.6063H50.9199C50.9199 36.6063 51.1737 36.636 51.2053 36.2913V35.596C51.1737 35.3403 51.0473 35.281 50.9515 35.281H45.5079V31.1638H50.9515C51.0157 31.1638 51.1737 31.0996 51.2053 30.8488V30.1515C51.1737 29.8977 51.0473 29.8355 50.9515 29.8355H45.5079V25.6245L50.9199 25.6867Z" fill="black"/>
<path d="M40.6659 36.6698H41.3295C41.7729 36.6698 41.7413 36.3844 41.7413 36.3844V24.6412C41.7413 24.4515 41.6159 24.4189 41.5833 24.4189H41.2673C41.2357 24.4189 41.1399 24.4505 41.0451 24.5789L36.2326 31.2559L31.3905 24.5789C31.2947 24.4505 31.2009 24.4189 31.1683 24.4189H30.8207C30.7891 24.4189 30.6627 24.4505 30.6627 24.6412V36.4141C30.6627 36.5118 30.7565 36.6698 31.0725 36.6698H31.7382C32.1184 36.6698 32.15 36.4486 32.15 36.3844V27.8063L36.1388 33.2824H36.2642L40.253 27.7737V36.3834C40.254 36.5415 40.3479 36.6698 40.6659 36.6698Z" fill="black"/>
<path d="M64.3084 29.8651H59.2145C59.1523 29.8948 58.9923 29.9589 58.9923 30.2453V30.8152C59.0239 31.069 59.1207 31.1628 59.2145 31.1954H63.3614C63.0453 33.6337 61.083 35.4686 58.7089 35.5022C56.1451 35.5022 54.0238 33.3187 54.0238 30.5614C54.0238 27.808 56.1441 25.6235 58.7089 25.6235C60.2594 25.6235 61.6528 26.4471 62.5081 27.7142C62.5081 27.7142 62.6019 27.8722 62.8241 27.9038H63.8986C64.027 27.8722 64.027 27.7754 64.027 27.7438C64.027 27.7142 63.9924 27.6816 63.9924 27.6816C62.9811 25.7193 60.9872 24.3584 58.6763 24.3584C55.3531 24.3584 52.6926 27.174 52.6926 30.6256C52.6926 34.0426 55.3521 36.8591 58.7079 36.8591C62.0291 36.8591 64.6916 34.0426 64.6916 30.594V30.3718C64.658 29.9589 64.4358 29.8957 64.3084 29.8651Z" fill="black"/>
<path d="M76.3391 36.3539L70.861 24.4506C70.8008 24.3568 70.7376 24.3252 70.6734 24.3252H70.23C70.1658 24.3252 70.1016 24.3568 70.0423 24.4506L64.4704 36.3845C64.4704 36.4487 64.4704 36.6057 64.7223 36.6363H65.6733C65.8609 36.6363 65.9557 36.5425 65.9893 36.4833L67.286 33.5985H73.5531L74.8804 36.5119C74.915 36.5761 75.0088 36.6353 75.2004 36.6353H76.0241C76.3737 36.6057 76.3737 36.3845 76.3391 36.3539ZM67.9171 32.3009L70.4512 26.6667L73.0149 32.3009H67.9171Z" fill="black"/>
<path d="M98.8154 36.2908V34.4519C98.7808 34.2643 98.6534 34.204 98.5931 34.1704H93.9387V31.3519H98.4055C98.4657 31.3519 98.5931 31.2877 98.6277 31.0981V29.3896C98.5931 29.1674 98.4055 29.1061 98.3374 29.1061H93.9081V26.5414H98.529C98.6267 26.5414 98.7808 26.4772 98.7808 26.2234V24.5791C98.7808 24.2937 98.5586 24.2611 98.4993 24.2295H91.5024C91.4085 24.2611 91.2456 24.3253 91.2456 24.5791V36.1673C91.2456 36.513 91.5616 36.513 91.5616 36.513H98.528C98.6524 36.512 98.7808 36.4478 98.8154 36.2908Z" fill="black"/>
<path d="M89.5055 29.1679H84.0619C84.0017 29.1679 83.7805 29.1995 83.7805 29.4859V31.3524C83.7805 31.6062 83.9336 31.6684 84.0323 31.6684H87.0395C86.5319 33.2495 85.1364 34.3586 83.5247 34.3586C81.5318 34.3586 79.8213 32.6521 79.8213 30.4359C79.8213 28.2198 81.5318 26.5113 83.5247 26.5113C84.4125 26.5113 85.2056 26.8273 85.8366 27.3962C85.8366 27.3962 86.0243 27.5858 86.3107 27.5858H88.747C88.9692 27.5858 89.0028 27.4604 88.9692 27.3962C87.9283 25.4013 85.8978 24.0088 83.5257 24.0088C80.0445 24.0088 77.3227 26.9528 77.3227 30.4675C77.3227 33.9833 80.0445 36.8927 83.5257 36.8927C87.0069 36.8927 89.7287 33.9487 89.7287 30.435V29.4849C89.7277 29.2637 89.5993 29.1679 89.5055 29.1679Z" fill="black"/>
<path d="M110.778 36.354V24.5149C110.748 24.4191 110.684 24.2927 110.496 24.2611H108.564C108.312 24.2611 108.249 24.4191 108.249 24.5149V31.2561L101.443 24.3579C101.349 24.2621 101.281 24.2295 101.252 24.2295H100.65C100.616 24.2295 100.492 24.2611 100.492 24.4191V36.2908C100.522 36.3846 100.556 36.512 100.778 36.5426H102.868C103.184 36.513 103.184 36.2276 103.184 36.2276V29.4864L109.989 36.3856C110.083 36.4833 110.147 36.513 110.211 36.513H110.719C110.649 36.5416 110.748 36.512 110.778 36.354Z" fill="black"/>
<path d="M75.5797 21.9512H74.914C74.4706 21.9512 74.5042 22.2346 74.5042 22.2346V28.0603C74.5338 28.1541 74.598 28.2825 74.914 28.2825H75.5797C76.0231 28.2825 75.9885 27.9971 75.9885 27.9971V22.1734C75.9895 22.0766 75.8957 21.9512 75.5797 21.9512Z" fill="#E04498"/>
<path d="M17.2089 23.5656V25.4005H19.9949V23.9458C19.9949 23.5982 20.2783 23.3118 20.6289 23.2802H21.26V20.4626C21.26 19.9896 20.8798 19.6094 20.4067 19.6094H16.3537C15.8796 19.6094 15.5004 19.9896 15.5004 20.4626V22.3627H16.0702C16.7033 22.424 17.2089 22.9316 17.2089 23.5656Z" fill="#FAAF1C"/>
<path d="M20.4067 25.4325H19.9949V25.9401C19.9949 26.2877 20.2783 26.6037 20.6289 26.5712H22.5596C22.9072 26.5712 23.1936 26.2877 23.1936 25.9075V23.9768C23.1936 23.6272 22.9082 23.3438 22.5596 23.3438H21.2303V24.5782C21.26 25.0207 20.8807 25.4325 20.4067 25.4325Z" fill="#75C044"/>
<path d="M21.0407 20.8438H15.7522V25.2108H21.0407V20.8438Z" fill="url(#paint0_radial_1_962)"/>
<path d="M19.9949 23.9781V25.4328H20.4067C20.8798 25.4328 21.26 25.0526 21.26 24.5796V23.3451H20.6289C20.2793 23.3125 19.9949 23.6285 19.9949 23.9781Z" fill="#06522C"/>
<path d="M16.0377 22.4238H9.6747C9.04364 22.4238 8.50344 22.9314 8.50344 23.5971V29.9581C8.50344 30.5911 9.01105 31.1293 9.6747 31.1293H12.9041V29.7042C12.9041 28.9132 13.5381 28.2495 14.3608 28.2495H17.1763V23.5971C17.2089 22.9314 16.7033 22.4238 16.0377 22.4238Z" fill="#E04197"/>
<path d="M17.2089 22.4238H15.4688V25.431H17.2089V22.4238Z" fill="url(#paint1_radial_1_962)"/>
<path d="M8.85304 24.0713H16.8929V30.7503H8.85304V24.0713Z" fill="url(#paint2_radial_1_962)"/>
<path d="M23.0643 28.2188H17.2089V29.9273C17.2089 30.5603 16.7033 31.0985 16.0702 31.0985H12.9683V38.3473C12.9683 39.1364 13.5993 39.802 14.423 39.802H23.0969C23.8879 39.802 24.5535 39.171 24.5535 38.3473V29.6754C24.4893 28.8844 23.8563 28.2188 23.0643 28.2188Z" fill="#29A3DD"/>
<path d="M17.2089 29.9273V28.2188H14.3914C13.6003 28.2188 12.9367 28.8518 12.9367 29.6754V31.0985H16.0386C16.7033 31.0985 17.2089 30.5613 17.2089 29.9273Z" fill="#2E388E"/>
<path d="M13.3485 30.5283H24.1101V39.3918H13.3801L13.3485 30.5283Z" fill="url(#paint3_radial_1_962)"/>
<path d="M16.0377 22.4238H15.4678V24.5777C15.4678 25.0508 15.8471 25.431 16.3231 25.431H17.1763V23.5961C17.2089 22.9314 16.7033 22.4238 16.0377 22.4238Z" fill="#962C6B"/>
<defs>
<radialGradient id="paint0_radial_1_962" cx="0" cy="0" r="1" gradientUnits="userSpaceOnUse" gradientTransform="translate(19.1426 22.0205) scale(2.99679)">
<stop stop-color="#FDDD00"/>
<stop offset="0.22" stop-color="#FDD800"/>
<stop offset="0.5078" stop-color="#FCCE11"/>
<stop offset="0.8318" stop-color="#FBBA19"/>
<stop offset="1" stop-color="#FAAF1C"/>
</radialGradient>
<radialGradient id="paint1_radial_1_962" cx="0" cy="0" r="1" gradientUnits="userSpaceOnUse" gradientTransform="translate(20.4389 20.7646) rotate(179.951) scale(5.66556)">
<stop stop-color="#FFCB10"/>
<stop offset="0.1653" stop-color="#FFC813"/>
<stop offset="0.3816" stop-color="#FCBB18"/>
<stop offset="0.6261" stop-color="#FAA71C"/>
<stop offset="0.8897" stop-color="#F58E21"/>
<stop offset="1" stop-color="#F48020"/>
</radialGradient>
<radialGradient id="paint2_radial_1_962" cx="0" cy="0" r="1" gradientUnits="userSpaceOnUse" gradientTransform="translate(11.7779 25.4426) rotate(-0.048674) scale(5.34743 5.34834)">
<stop stop-color="#F38AB8"/>
<stop offset="0.2015" stop-color="#EF84B4"/>
<stop offset="0.4651" stop-color="#EA77AD"/>
<stop offset="0.7618" stop-color="#E55FA3"/>
<stop offset="1" stop-color="#E04197"/>
</radialGradient>
<radialGradient id="paint3_radial_1_962" cx="0" cy="0" r="1" gradientUnits="userSpaceOnUse" gradientTransform="translate(16.5323 32.0399) rotate(-0.0479653) scale(7.59802)">
<stop stop-color="#82D2F4"/>
<stop offset="0.2134" stop-color="#7BCDF2"/>
<stop offset="0.4926" stop-color="#6AC2EE"/>
<stop offset="0.8069" stop-color="#49B0E4"/>
<stop offset="1" stop-color="#29A3DD"/>
</radialGradient>
</defs>
</svg>
