<svg width="120" height="60" viewBox="0 0 120 60" fill="none" xmlns="http://www.w3.org/2000/svg">
<path d="M22.1796 15.873C22.9035 15.873 23.6284 15.873 24.3522 15.873C24.4777 15.9046 24.6021 15.9501 24.7295 15.9659C29.3306 16.5239 32.8296 18.7992 35.2047 22.7644C35.5247 23.2986 35.8467 23.4488 36.4343 23.4488C55.0659 23.4339 73.6985 23.4379 92.3301 23.427C92.8042 23.427 92.976 23.511 92.973 24.0403C92.9484 28.4676 92.9592 32.8949 92.9592 37.3232C92.9592 37.499 92.9592 37.6758 92.9592 37.9049C92.657 37.9049 92.4151 37.9049 92.1721 37.9049C73.0793 37.9049 53.9865 37.9059 34.8936 37.896C34.4927 37.896 34.2409 38.0116 33.9851 38.3256C32.1304 40.597 29.7859 42.1426 26.9555 42.9119C26.1042 43.144 25.2213 43.2586 24.3522 43.4265C23.6284 43.4265 22.9035 43.4265 22.1796 43.4265C22.0532 43.3949 21.9287 43.3474 21.8003 43.3346C16.106 42.7361 11.3952 38.7236 9.92177 33.1882C9.7124 32.4002 9.59784 31.5874 9.43884 30.7855C9.43884 30.0616 9.43884 29.3367 9.43884 28.6128C9.48032 28.3402 9.52476 28.0677 9.56328 27.7951C10.3405 22.2646 14.3135 17.7761 19.7215 16.353C20.5274 16.1407 21.3599 16.0301 22.1796 15.873ZM22.9558 41.3209C23.0417 41.319 23.1276 41.318 23.2136 41.316C23.256 40.5161 23.2985 39.7171 23.3429 38.8599C23.658 39.1335 23.658 39.1335 23.6758 40.2958C24.4826 39.8188 24.5695 39.1117 23.9394 38.0511C24.5468 37.7064 25.2648 37.4348 25.4406 36.6685C25.641 35.7994 24.9152 35.4251 24.3661 34.9767C24.7354 34.7634 25.089 34.5866 25.4149 34.3674C26.7491 33.4687 26.7195 32.5631 25.3408 31.7523C25.1838 31.6605 25.0277 31.5676 24.8747 31.4768C25.4722 31.2348 26.04 31.0551 26.5585 30.7805C27.0483 30.5208 27.5935 30.1949 27.5224 29.5342C27.4493 28.8538 26.8696 28.5812 26.2948 28.3975C25.7516 28.2237 25.1946 28.0607 24.6317 27.9956C24.3434 27.962 24.0283 28.1546 23.6185 28.277C23.9217 28.5545 24.0886 28.7066 24.2732 28.8755C24.1537 29.0394 24.0431 29.1915 23.9039 29.3821C24.3908 29.4868 24.7759 29.469 25.1255 29.1234C25.2401 29.0098 25.5255 28.9259 25.646 28.99C25.9008 29.1273 26.118 29.3545 26.2938 29.5885C26.3195 29.6231 26.0558 29.9855 25.878 30.0408C25.1156 30.2759 24.3355 30.4526 23.575 30.6472C23.575 29.6873 23.5879 28.8202 23.5681 27.9531C23.5602 27.6084 23.7064 27.4139 23.9849 27.244C25.4366 26.3562 27.2458 26.4905 28.5909 27.5857C28.7321 27.7003 28.9435 27.8454 29.0906 27.8158C29.6624 27.7003 30.2214 27.5205 30.8999 27.3339C30.6777 27.2154 30.6056 27.1769 30.4841 27.1127C31.5951 26.925 32.0198 26.6663 32.2558 26.055C32.0228 26.1201 31.7946 26.1834 31.5665 26.2475C31.9151 25.9562 32.3259 25.7765 32.641 25.4911C32.958 25.2027 33.1792 24.8086 33.4429 24.461C33.4073 24.4186 33.3718 24.3751 33.3352 24.3326C32.0494 24.8096 30.9117 24.3879 29.779 23.8329C28.9692 23.4359 28.1376 23.0784 27.2962 22.7555C26.4973 22.4483 25.7279 22.5757 24.9922 23.0666C25.2796 23.6265 25.3102 24.148 24.8549 24.5884C24.528 24.9054 24.135 25.0328 23.6728 24.8215C23.6728 24.5183 23.6767 24.223 23.6718 23.9277C23.6659 23.5613 23.7172 23.2601 24.0224 22.9668C24.4984 22.5096 24.4066 21.7402 23.9138 21.2929C23.4476 20.8702 22.7129 20.8732 22.2497 21.2978C21.7707 21.7373 21.7283 22.4839 22.144 22.9935C22.2625 23.1387 22.4334 23.2957 22.4482 23.4596C22.4897 23.9129 22.463 24.3731 22.463 24.8304C22.0028 25.0259 21.6255 24.8946 21.3075 24.5963C20.8276 24.145 20.9184 23.5999 21.1485 23.0508C20.4138 22.5817 19.6504 22.4394 18.8692 22.7535C17.7582 23.1999 16.6679 23.7006 15.5756 24.1924C14.7974 24.543 13.9995 24.6319 13.1689 24.4423C13.0474 24.4146 12.925 24.3919 12.8035 24.3672C12.7719 24.4028 12.7403 24.4373 12.7087 24.4729C12.9714 24.8165 13.1926 25.2086 13.5096 25.4911C13.8365 25.7814 14.2572 25.9651 14.6374 26.1962C14.6315 26.215 14.6266 26.2347 14.6207 26.2535C14.3777 26.1903 14.1348 26.1271 13.802 26.0411C14.274 26.7739 14.8824 27.0732 15.7811 27.0712C15.5638 27.1838 15.4739 27.2312 15.3159 27.3122C15.7317 27.4623 16.0842 27.5946 16.4398 27.7171C16.9148 27.88 17.3029 27.8385 17.7414 27.482C19.0174 26.4431 20.8691 26.3947 22.2132 27.2885C22.3524 27.3813 22.542 27.5393 22.546 27.6716C22.5746 28.6355 22.5608 29.6004 22.5608 30.6502C21.8112 30.4546 21.03 30.2739 20.2686 30.0339C20.0928 29.9786 19.839 29.6043 19.8637 29.5727C20.0504 29.3426 20.2775 29.1244 20.5353 28.9831C20.6459 28.9229 20.9145 28.9999 21.0182 29.1056C21.3727 29.47 21.7668 29.4987 22.2556 29.3831C22.1154 29.1866 22.0048 29.0335 21.8892 28.8725C22.0779 28.7066 22.2477 28.5575 22.4334 28.3936C22.1648 28.04 21.8556 27.8919 21.4369 27.9975C20.9945 28.1091 20.5353 28.1733 20.1086 28.3294C19.7146 28.4726 19.3126 28.6572 18.9897 28.917C18.4791 29.3288 18.4554 29.8374 18.9453 30.267C19.3314 30.6057 19.8064 30.8556 20.2686 31.0926C20.5856 31.2546 20.9481 31.3276 21.2987 31.4422C20.8977 31.7247 20.5106 31.9478 20.1837 32.2402C19.6504 32.7172 19.6217 33.2732 20.1057 33.7986C20.3684 34.085 20.6992 34.3141 21.0202 34.5392C21.2631 34.7091 21.5406 34.8306 21.8181 34.9817C20.1708 36.1895 20.2686 36.867 22.225 38.0728C21.593 39.1117 21.7016 39.8988 22.5341 40.3126C22.5312 39.8356 22.2329 39.3013 22.8235 38.8214C22.8738 39.724 22.9143 40.523 22.9558 41.3209ZM44.1838 34.6973C44.1838 34.1027 44.1838 33.5793 44.1838 33.0569C44.1838 31.1153 44.1887 29.1737 44.1739 27.2331C44.1729 27.0771 44.0505 26.7976 43.9616 26.7878C43.529 26.7413 43.0876 26.767 42.6155 26.767C42.6155 28.5397 42.6155 30.2393 42.6155 31.938C42.5128 31.939 42.499 31.8916 42.4723 31.852C41.3751 30.2532 40.2769 28.6533 39.1738 27.0583C39.0948 26.9438 38.9713 26.7868 38.8607 26.7808C38.3432 26.7512 37.8238 26.768 37.2935 26.768C37.2935 29.4394 37.2935 32.0347 37.2935 34.6647C37.7961 34.6647 38.2781 34.6647 38.8084 34.6647C38.8084 33.7423 38.8084 32.8564 38.8084 31.9706C38.8084 31.0916 38.8084 30.2127 38.8084 29.2942C38.8755 29.3545 38.917 29.3792 38.9417 29.4157C40.0883 31.061 41.2299 32.7103 42.3854 34.3506C42.4881 34.4958 42.6629 34.6657 42.8189 34.6824C43.2387 34.7269 43.6673 34.6973 44.1838 34.6973ZM54.5859 30.6828C54.584 28.2899 52.9169 26.6307 50.5151 26.6297C48.0847 26.6288 46.3713 28.3343 46.3792 30.7479C46.388 33.1408 48.1321 34.8493 50.5566 34.8405C52.9416 34.8326 54.5889 33.1329 54.5859 30.6828ZM86.8599 31.5903C86.8599 32.0466 86.8441 32.4397 86.8659 32.8307C86.8807 33.0964 86.7592 33.2011 86.5291 33.286C84.9263 33.8776 83.4972 33.1013 83.1555 31.4432C82.6795 29.1313 84.2083 27.5936 86.454 28.1417C86.8106 28.2286 87.1434 28.4103 87.5068 28.5565C87.7488 28.1516 87.9818 27.7625 88.2554 27.3052C87.8692 27.1324 87.5424 26.9448 87.1898 26.8371C86.3099 26.5675 85.4092 26.5567 84.5085 26.7354C82.7625 27.083 81.4934 28.4735 81.3117 30.2275C81.1142 32.1394 82.009 33.8163 83.6602 34.479C85.1741 35.0874 86.6822 34.9382 88.1547 34.2687C88.4223 34.1472 88.4983 33.9704 88.4944 33.6899C88.4806 32.6875 88.4904 31.6842 88.4865 30.6808C88.4865 30.5573 88.4569 30.4339 88.4411 30.3193C87.409 30.3193 86.4155 30.3193 85.425 30.3193C85.425 30.7588 85.425 31.1588 85.425 31.5894C85.9059 31.5903 86.3464 31.5903 86.8599 31.5903ZM72.6141 34.6647C72.7998 34.6805 72.9114 34.6963 73.022 34.6992C74.2723 34.7279 74.2822 34.7308 74.7167 33.5527C74.8164 33.2811 74.9626 33.21 75.2253 33.2169C75.7181 33.2307 76.2129 33.2129 76.7057 33.2228C77.1303 33.2307 77.636 33.125 77.952 33.3196C78.2186 33.4835 78.2512 34.0129 78.4162 34.3684C78.4754 34.4968 78.6107 34.6745 78.7203 34.6815C79.2526 34.714 79.7869 34.6963 80.3429 34.6963C80.3202 34.5708 80.3182 34.5215 80.3014 34.479C79.3346 32.018 78.3638 29.5589 77.4049 27.0949C77.3041 26.8371 77.1679 26.7571 76.8953 26.7542C75.648 26.7413 75.647 26.7315 75.2065 27.884C74.3513 30.1198 73.496 32.3577 72.6141 34.6647ZM61.6906 26.7917C61.6906 27.0386 61.6906 27.2341 61.6906 27.4297C61.6886 28.8933 61.6994 30.3578 61.6807 31.8204C61.6688 32.6964 61.2718 33.2031 60.5272 33.3798C59.2127 33.6929 58.3476 33.0332 58.3328 31.6802C58.317 30.2334 58.3279 28.7856 58.3279 27.3378C58.3279 27.163 58.3279 26.9882 58.3279 26.7957C57.7294 26.7957 57.1971 26.7957 56.65 26.7957C56.65 28.6404 56.5917 30.4507 56.6697 32.254C56.727 33.5744 57.5812 34.4681 58.8473 34.7131C59.3589 34.8118 59.8951 34.8493 60.4146 34.8187C61.9987 34.7259 62.9468 33.8944 63.1887 32.33C63.3013 31.6061 63.2608 30.8556 63.2677 30.1179C63.2786 29.0197 63.2707 27.9215 63.2707 26.7907C62.7384 26.7917 62.2545 26.7917 61.6906 26.7917ZM64.673 26.7601C64.7678 27.0238 64.8232 27.1907 64.8873 27.3546C65.6981 29.4522 66.5099 31.5489 67.3207 33.6465C67.7316 34.7091 67.7306 34.6973 68.8643 34.7071C69.206 34.7101 69.3838 34.6212 69.5102 34.2765C70.3733 31.9192 71.2631 29.5707 72.1411 27.2183C72.1895 27.088 72.2171 26.9497 72.2705 26.7591C71.7974 26.7591 71.3876 26.7789 70.9807 26.7532C70.6775 26.7344 70.5481 26.8589 70.4583 27.1344C70.0425 28.3975 69.608 29.6537 69.1823 30.9129C68.9848 31.4975 68.7912 32.0841 68.5829 32.7063C67.9222 30.825 67.2872 28.9989 66.6314 27.1808C66.5721 27.0169 66.3914 26.7957 66.2492 26.7808C65.7623 26.7295 65.2686 26.7601 64.673 26.7601Z" fill="black"/>
<path d="M110.568 33.4524C110.508 33.6894 110.446 33.9255 110.39 34.1635C109.887 36.2779 108.425 37.3405 106.405 37.7741C106.023 37.856 105.623 37.8876 105.231 37.8886C101.694 37.8975 98.1588 37.8866 94.6223 37.9024C94.1828 37.9044 94.0298 37.7987 94.0317 37.3346C94.0475 32.8934 94.0426 28.4533 94.0396 24.0122C94.0396 23.7001 94.0169 23.4463 94.4821 23.4473C99.7942 23.4621 105.107 23.4581 110.42 23.4601C110.469 23.4601 110.517 23.472 110.567 23.4779C110.568 26.8031 110.568 30.1282 110.568 33.4524ZM107.208 28.9352C106.56 28.9352 105.971 28.9461 105.382 28.9323C104.879 28.9204 104.217 29.0577 103.923 28.796C103.669 28.5679 103.821 27.8726 103.813 27.3838C103.802 26.7813 103.81 26.1789 103.81 25.5607C102.619 25.5607 101.507 25.5607 100.321 25.5607C100.321 26.4851 100.322 27.3847 100.321 28.2844C100.32 28.9313 100.319 28.9323 99.6787 28.9333C98.778 28.9342 97.8774 28.9333 96.9599 28.9333C96.9599 30.1223 96.9599 31.2432 96.9599 32.3967C97.9386 32.3967 98.8748 32.4184 99.81 32.3868C100.237 32.373 100.34 32.5261 100.329 32.9231C100.304 33.7447 100.321 34.5674 100.323 35.3891C100.324 35.6024 100.298 35.8315 100.63 35.8295C101.664 35.8236 102.698 35.8275 103.777 35.8275C103.79 35.6103 103.808 35.4345 103.809 35.2577C103.812 34.4518 103.822 33.646 103.806 32.8401C103.799 32.4994 103.915 32.374 104.262 32.3898C104.82 32.4135 105.38 32.3967 105.939 32.3967C106.358 32.3967 106.777 32.3967 107.209 32.3967C107.208 31.2126 107.208 30.1144 107.208 28.9352Z" fill="black"/>
<path d="M22.704 31.873C22.704 32.7184 22.704 33.4147 22.704 34.2037C22.2378 33.9914 21.7776 33.8245 21.3629 33.5806C20.9629 33.3465 20.9392 32.99 21.3155 32.7036C21.7095 32.4054 22.1677 32.1891 22.704 31.873Z" fill="black"/>
<path d="M23.4901 34.2061C23.4358 34.0659 23.413 34.0353 23.413 34.0057C23.4111 33.3489 23.4111 32.6912 23.4111 32.0345C23.4605 31.9969 23.5088 31.9594 23.5582 31.9219C24.0086 32.1954 24.4846 32.4364 24.9023 32.7524C25.2322 33.0013 25.2025 33.3499 24.8391 33.5593C24.4194 33.8032 23.9641 33.983 23.4901 34.2061Z" fill="black"/>
<path d="M23.3943 37.2351C23.3943 36.8292 23.3913 36.4233 23.3963 36.0174C23.3972 35.9058 23.419 35.7952 23.4308 35.6846C23.4763 35.6549 23.5217 35.6253 23.5671 35.5967C23.8002 35.8949 24.214 36.1912 24.215 36.4904C24.2169 36.7719 23.7844 37.0553 23.5424 37.3388C23.493 37.3042 23.4437 37.2696 23.3943 37.2351Z" fill="black"/>
<path d="M22.7464 35.6709C22.7524 35.747 22.7642 35.823 22.7642 35.899C22.7662 36.3395 22.7652 36.779 22.7652 37.254C22.3643 37.1227 21.909 36.9241 21.9376 36.536C21.9623 36.2042 22.3475 35.899 22.5736 35.582C22.6309 35.6107 22.6892 35.6413 22.7464 35.6709Z" fill="black"/>
<path d="M52.833 30.6696C52.7767 31.0547 52.751 31.3668 52.6829 31.668C52.437 32.7573 51.6666 33.417 50.6248 33.4486C49.4802 33.4832 48.6792 32.9114 48.3602 31.8043C48.1222 30.9777 48.1272 30.1501 48.459 29.3462C48.8362 28.4327 49.5868 27.9873 50.6544 28.0159C51.563 28.0406 52.271 28.5433 52.5713 29.442C52.7105 29.8558 52.7579 30.3002 52.833 30.6696Z" fill="black"/>
<path d="M76.4084 28.7334C76.7807 29.799 77.1244 30.7826 77.4849 31.8127C76.7768 31.8127 76.1033 31.8127 75.3596 31.8127C75.7003 30.8093 76.0391 29.8178 76.4084 28.7334Z" fill="black"/>
</svg>
