<svg width="119" height="60" viewBox="0 0 119 60" fill="none" xmlns="http://www.w3.org/2000/svg">
<path d="M102.428 37.1334C102.379 37.3072 102.336 37.482 102.284 37.6548C101.435 40.4566 99.539 42.1345 96.7264 42.8258C96.0331 42.9956 95.3221 42.9986 94.615 43.0006C92.2902 43.0075 89.9645 43.0025 87.6397 43.0035C81.0763 43.0055 74.5119 43.0075 67.9484 43.0095C67.8635 43.0095 67.7796 43.0095 67.6719 43.0095C67.665 42.9403 67.6541 42.8771 67.6541 42.8139C67.6531 42.0446 67.6581 41.2763 67.6492 40.5069C67.6472 40.3381 67.7084 40.3084 67.8595 40.3084C69.652 40.3124 71.4445 40.3114 73.2369 40.3114C80.3643 40.3114 87.4906 40.3104 94.618 40.3124C95.9946 40.3124 97.2173 39.8956 98.2325 38.9564C99.2408 38.0232 99.7573 36.8657 99.6171 35.4802C99.4689 34.0116 98.6759 32.9322 97.4543 32.1451C96.758 31.6968 95.969 31.519 95.1749 31.3442C93.7884 31.04 92.3762 30.9314 90.9718 30.7645C89.5843 30.5996 88.1977 30.4297 86.8092 30.2707C85.6557 30.1384 84.5002 30.0198 83.3457 29.8944C82.1607 29.766 80.9756 29.6416 79.7915 29.5073C78.5056 29.3621 77.2178 29.2209 75.935 29.055C74.4181 28.8594 72.8903 28.7409 71.398 28.3745C70.3384 28.1138 69.3942 27.6299 68.541 26.9603C67.9968 26.5337 67.6887 25.9629 67.5811 25.2844C67.4171 24.2465 67.4349 23.2243 67.8437 22.2338C68.541 20.5431 70.1171 19.4844 71.9452 19.4844C75.2091 19.4844 78.473 19.4844 81.736 19.4844C81.813 19.4844 81.891 19.4844 81.9799 19.4844C81.9799 20.39 81.9799 21.2768 81.9799 22.1923C81.898 22.1923 81.8229 22.1923 81.7469 22.1923C78.6765 22.1923 75.6071 22.1913 72.5367 22.1933C71.9066 22.1933 71.3803 22.4353 70.9862 22.931C70.1902 23.9334 70.6327 25.3496 71.8711 25.6864C72.4696 25.8493 73.0917 25.9323 73.707 26.0202C75.0244 26.2088 76.3428 26.3846 77.6632 26.5525C78.7377 26.6887 79.8132 26.8073 80.8896 26.9317C82.1093 27.0729 83.329 27.2122 84.5486 27.3534C85.6241 27.4778 86.6996 27.6023 87.775 27.7316C88.9216 27.8699 90.0682 28.0131 91.2148 28.1543C92.3317 28.2916 93.4487 28.4269 94.5636 28.5691C95.6608 28.7093 96.7649 28.812 97.8108 29.2169C99.6763 29.9389 101.097 31.1486 101.922 32.9925C102.123 33.4418 102.231 33.9316 102.382 34.4037C102.395 34.4422 102.413 34.4797 102.428 34.5173C102.428 35.3903 102.428 36.2613 102.428 37.1334Z" fill="black"/>
<path d="M62.971 7.56055C62.9681 7.64548 62.9621 7.72942 62.9621 7.81435C62.9612 10.6467 62.9621 13.4801 62.9612 16.3125C62.9612 16.3895 62.9612 16.4675 62.9612 16.5564C62.0565 16.5564 61.1697 16.5564 60.2513 16.5564C60.2513 16.4764 60.2513 16.3944 60.2513 16.3125C60.2513 13.4801 60.2513 10.6467 60.2513 7.81435C60.2513 7.72942 60.2473 7.64548 60.2453 7.56055C61.1539 7.56055 62.0625 7.56055 62.971 7.56055Z" fill="black"/>
<path d="M53.0548 43.1738C53.0548 43.0771 53.0548 42.9941 53.0548 42.9111C53.0548 36.5176 53.0548 30.123 53.0528 23.7294C53.0528 23.2485 52.9738 22.7843 52.6291 22.415C52.2539 22.013 51.768 21.9113 51.2396 21.9172C50.7508 21.9222 50.3735 22.1375 50.093 22.5147C49.8155 22.888 49.5449 23.2692 49.3109 23.6692C45.6173 29.9828 41.9307 36.3003 38.2431 42.6178C38.1453 42.7847 38.0436 42.9497 37.9528 43.1215C37.9004 43.2212 37.8313 43.2499 37.7217 43.2489C36.9346 43.244 36.1475 43.2459 35.3604 43.2459C35.1135 43.2459 35.1125 43.2459 35.1125 43.001C35.1125 36.565 35.1125 30.1289 35.1105 23.6919C35.1105 23.5122 35.0937 23.3285 35.0572 23.1517C34.8478 22.1473 33.9995 21.8827 33.2677 21.9153C32.8085 21.936 32.4391 22.1256 32.1833 22.4861C31.7922 23.0371 31.414 23.601 31.0733 24.1847C27.3896 30.4894 23.7139 36.799 20.0371 43.1087C19.9897 43.1906 19.9482 43.2499 19.8327 43.2489C18.8273 43.243 17.822 43.2459 16.8176 43.2449C16.7702 43.2449 16.7228 43.238 16.6517 43.2321C16.6843 43.1669 16.707 43.1136 16.7356 43.0632C17.6176 41.5256 18.4896 39.982 19.3883 38.4542C19.7952 37.7609 20.281 37.1141 20.6879 36.4208C22.4053 33.4936 24.1119 30.5605 25.8125 27.6235C26.6973 26.0947 27.5486 24.5471 28.4414 23.0233C28.9312 22.1878 29.4793 21.3869 30.1489 20.6798C30.7227 20.0734 31.3785 19.5885 32.2268 19.47C33.165 19.3387 34.12 19.2685 35.0295 19.5964C36.6255 20.1732 37.5587 21.3365 37.8145 23.0085C37.8955 23.5359 37.8589 24.083 37.8639 24.6212C37.8728 25.5347 37.8737 26.4492 37.8767 27.3637C37.8816 28.932 37.8886 30.5003 37.8886 32.0675C37.8886 33.4235 37.8826 34.7794 37.8777 36.1354C37.8757 36.5472 37.8698 36.958 37.8658 37.3699C37.8649 37.4281 37.8658 37.4854 37.8658 37.5437C37.8807 37.5496 37.8955 37.5565 37.9113 37.5624C37.9498 37.5081 37.9923 37.4558 38.0258 37.3995C39.2751 35.292 40.5412 33.1934 41.7688 31.074C43.2699 28.4826 44.7285 25.8675 46.2257 23.2751C46.7945 22.2895 47.4256 21.3405 48.2374 20.5287C48.9435 19.8226 49.778 19.4315 50.7922 19.4019C51.4608 19.3821 52.1284 19.3505 52.7743 19.5382C53.7955 19.8344 54.5924 20.4349 55.1593 21.3494C55.6314 22.1128 55.8091 22.9364 55.8082 23.8223C55.8032 26.6862 55.8151 29.5502 55.8151 32.4132C55.8151 34.6293 55.8081 36.8454 55.8052 39.0606C55.8032 40.3681 55.7973 41.6757 55.8012 42.9842C55.8012 43.1452 55.7578 43.1887 55.5978 43.1877C54.8166 43.1798 54.0354 43.1837 53.2543 43.1837C53.193 43.1847 53.1338 43.1788 53.0548 43.1738Z" fill="black"/>
<path d="M60.2582 19.5654C61.1618 19.5654 62.0487 19.5654 62.9493 19.5654C62.9493 27.4344 62.9493 35.2956 62.9493 43.1715C62.0536 43.1715 61.1608 43.1715 60.2582 43.1715C60.2582 35.3025 60.2582 27.4453 60.2582 19.5654Z" fill="black"/>
<path d="M17.9889 47.5509C17.9889 48.9493 17.9889 50.3477 17.9889 51.755C17.7785 51.755 17.5929 51.755 17.3894 51.755C17.3894 50.082 17.3894 48.4101 17.3894 46.7144C17.6877 46.7144 17.9889 46.7095 18.2891 46.7203C18.3286 46.7223 18.381 46.8033 18.3997 46.8576C18.8491 48.1928 19.2945 49.529 19.7409 50.8652C19.7557 50.9096 19.7734 50.9531 19.8011 51.0262C19.8337 50.9699 19.8574 50.9393 19.8692 50.9057C20.3304 49.5685 20.7916 48.2313 21.2479 46.8932C21.2933 46.7588 21.3506 46.6996 21.5017 46.7114C21.7239 46.7282 21.9481 46.7154 22.1831 46.7154C22.1831 48.4012 22.1831 50.0741 22.1831 51.756C21.9836 51.756 21.792 51.756 21.5768 51.756C21.5768 50.3694 21.5768 48.9819 21.5768 47.5953C21.561 47.5914 21.5442 47.5874 21.5284 47.5835C21.5066 47.6407 21.4849 47.697 21.4642 47.7553C21.0207 49.0283 20.5754 50.3013 20.1379 51.5762C20.0895 51.7165 20.0322 51.7757 19.8742 51.7708C19.4732 51.7579 19.4762 51.7658 19.3488 51.3886C18.9251 50.1344 18.4995 48.8802 18.0748 47.6269C18.0659 47.5993 18.0521 47.5746 18.0402 47.5479C18.0235 47.5469 18.0057 47.5489 17.9889 47.5509Z" fill="black"/>
<path d="M78.5165 51.0008C78.6024 50.751 78.6883 50.5011 78.7752 50.2523C79.1644 49.1264 79.5564 48.0016 79.9406 46.8747C79.9831 46.7503 80.0354 46.7029 80.1687 46.7108C80.3968 46.7236 80.627 46.7138 80.8679 46.7138C80.8679 48.4005 80.8679 50.0725 80.8679 51.7554C80.6714 51.7554 80.4857 51.7554 80.2695 51.7554C80.2695 50.3698 80.2695 48.9852 80.2695 47.5996C80.2517 47.5957 80.2349 47.5927 80.2171 47.5888C80.1964 47.6332 80.1727 47.6757 80.1569 47.7211C79.7134 49 79.269 50.2789 78.8305 51.5608C78.7782 51.7129 78.712 51.7781 78.5382 51.7702C78.1679 51.7534 78.1649 51.7662 78.0464 51.4176C77.6227 50.1693 77.2 48.921 76.7774 47.6727C76.7625 47.6283 76.7428 47.5858 76.6796 47.5463C76.6796 48.9457 76.6796 50.3451 76.6796 51.7544C76.4594 51.7544 76.2737 51.7544 76.0722 51.7544C76.0722 50.0834 76.0722 48.4104 76.0722 46.7138C76.3715 46.7138 76.6727 46.7088 76.9729 46.7197C77.0124 46.7217 77.0667 46.8017 77.0845 46.855C77.5388 48.207 77.9891 49.561 78.4405 50.9139C78.4493 50.9406 78.4612 50.9673 78.4721 50.9929C78.4869 50.9959 78.5017 50.9989 78.5165 51.0008Z" fill="black"/>
<path d="M42.9913 48.8687C42.9913 49.0681 42.9913 49.2469 42.9913 49.4385C42.8146 49.4385 42.6516 49.4385 42.4887 49.4385C41.7865 49.4385 41.0843 49.4415 40.3822 49.4355C40.2459 49.4345 40.1866 49.4671 40.1886 49.6153C40.1955 50.0814 40.1955 50.5475 40.1886 51.0137C40.1866 51.1598 40.2419 51.1983 40.3802 51.1974C41.2759 51.1924 42.1726 51.1954 43.0684 51.1954C43.1395 51.1954 43.2116 51.1954 43.2955 51.1954C43.2955 51.386 43.2955 51.5588 43.2955 51.7474C42.0601 51.7474 40.8226 51.7474 39.5694 51.7474C39.5694 50.0794 39.5694 48.4075 39.5694 46.7227C40.7723 46.7227 41.9732 46.7227 43.1839 46.7227C43.1839 46.9054 43.1839 47.0782 43.1839 47.2708C43.1178 47.2737 43.0536 47.2797 42.9894 47.2797C42.1361 47.2806 41.2819 47.2797 40.4286 47.2797C40.1926 47.2797 40.1926 47.2806 40.1926 47.5226C40.1926 47.8979 40.2005 48.2731 40.1886 48.6484C40.1827 48.8282 40.2479 48.8716 40.4187 48.8706C41.2058 48.8627 41.9929 48.8667 42.78 48.8667C42.8452 48.8687 42.9114 48.8687 42.9913 48.8687Z" fill="black"/>
<path d="M64.6627 50.1553C64.8593 50.1385 65.044 50.1237 65.2316 50.1079C65.2444 50.1454 65.2543 50.1672 65.2583 50.1889C65.3807 50.9296 65.9189 51.1932 66.5154 51.2653C66.8739 51.3088 67.2295 51.2752 67.5583 51.1034C67.9306 50.9078 68.1054 50.5345 67.9899 50.1849C67.9119 49.9479 67.7371 49.7948 67.5129 49.7198C67.1583 49.6013 66.7939 49.5124 66.4345 49.4057C66.1629 49.3247 65.8834 49.2566 65.6237 49.146C65.1496 48.9426 64.8435 48.5939 64.8356 48.0518C64.8277 47.4879 65.0815 47.0652 65.597 46.839C66.311 46.525 67.0379 46.5378 67.7381 46.8825C68.2328 47.1254 68.4481 47.5639 68.4916 48.115C68.3089 48.1318 68.142 48.1545 67.9751 48.1584C67.9366 48.1594 67.8684 48.1011 67.8605 48.0607C67.7519 47.5165 67.3964 47.2459 66.869 47.2212C66.5668 47.2074 66.2527 47.24 65.9594 47.314C65.6908 47.3822 65.5081 47.5916 65.4637 47.8849C65.4202 48.1782 65.5466 48.429 65.837 48.5377C66.1639 48.6601 66.5066 48.7421 66.8423 48.8389C67.0981 48.9119 67.3578 48.9722 67.6097 49.0551C68.2605 49.2694 68.6229 49.703 68.6377 50.2689C68.6555 50.9246 68.3227 51.448 67.6818 51.6841C66.946 51.9547 66.2044 51.9211 65.4963 51.5794C64.9699 51.3256 64.6153 50.6995 64.6627 50.1553Z" fill="black"/>
<path d="M100.887 48.8686C100.887 49.0651 100.887 49.238 100.887 49.4384C100.82 49.4384 100.757 49.4384 100.693 49.4384C99.8877 49.4384 99.0818 49.4414 98.2769 49.4355C98.1357 49.4345 98.0873 49.472 98.0903 49.6192C98.0992 50.0606 98.0933 50.5031 98.0933 50.9455C98.0933 51.1953 98.0932 51.1963 98.3362 51.1963C99.2141 51.1963 100.092 51.1963 100.97 51.1963C101.042 51.1963 101.113 51.1963 101.198 51.1963C101.198 51.3899 101.198 51.5677 101.198 51.7553C99.9538 51.7553 98.7204 51.7553 97.4701 51.7553C97.4701 50.0843 97.4701 48.4114 97.4701 46.7266C98.6621 46.7266 99.858 46.7266 101.068 46.7266C101.068 46.9014 101.068 47.0791 101.068 47.2816C100.086 47.2816 99.1025 47.2816 98.0923 47.2816C98.0923 47.49 98.0923 47.6756 98.0923 47.8613C98.0923 48.1339 98.1002 48.4064 98.0893 48.679C98.0834 48.8321 98.1367 48.8745 98.2848 48.8736C99.0779 48.8676 99.8709 48.8706 100.665 48.8706C100.736 48.8686 100.807 48.8686 100.887 48.8686Z" fill="black"/>
<path d="M36.6738 51.7647C36.3855 51.7647 36.1386 51.7716 35.8927 51.7587C35.8364 51.7558 35.7692 51.6936 35.7317 51.6412C35.2102 50.9134 34.6937 50.1816 34.1763 49.4518C34.1239 49.3787 34.0726 49.3046 34.0015 49.2049C33.7239 49.4755 33.4553 49.7312 33.1946 49.9959C33.161 50.0305 33.163 50.1085 33.163 50.1668C33.161 50.627 33.162 51.0872 33.161 51.5464C33.161 51.6116 33.1561 51.6768 33.1521 51.7518C32.9418 51.7518 32.7462 51.7518 32.5359 51.7518C32.5359 50.0769 32.5359 48.4089 32.5359 46.726C32.7354 46.726 32.9368 46.726 33.162 46.726C33.162 47.5467 33.162 48.3644 33.162 49.2246C33.239 49.1535 33.2825 49.116 33.323 49.0745C34.0785 48.323 34.831 47.5694 35.5915 46.8238C35.6556 46.7606 35.7663 46.7221 35.8581 46.7162C36.0852 46.7014 36.3144 46.7112 36.5751 46.7112C35.8601 47.4035 35.1678 48.0741 34.4617 48.7585C35.1944 49.7559 35.9213 50.7425 36.6738 51.7647Z" fill="black"/>
<path d="M84.8705 51.7564C84.6503 51.7564 84.4577 51.7564 84.2533 51.7564C84.2533 50.0805 84.2533 48.4135 84.2533 46.7336C84.275 46.7277 84.3027 46.7139 84.3293 46.7139C85.1224 46.7198 85.9154 46.7129 86.7064 46.7386C87.4333 46.7623 87.8965 47.1356 88.0476 47.7923C88.2194 48.5389 87.9241 49.562 86.7469 49.6549C86.1998 49.6983 85.6468 49.6904 85.0967 49.6894C84.9179 49.6885 84.8715 49.7447 84.8755 49.9166C84.8853 50.4607 84.8794 51.0059 84.8784 51.551C84.8794 51.6152 84.8735 51.6804 84.8705 51.7564ZM84.8804 48.2012C84.8804 48.4609 84.8745 48.7206 84.8854 48.9804C84.8873 49.0297 84.9565 49.1186 84.994 49.1176C85.549 49.1147 86.107 49.1324 86.6581 49.0801C87.1755 49.0307 87.4649 48.6248 87.4264 48.1143C87.3889 47.6234 87.0531 47.3074 86.5395 47.2956C86.0448 47.2847 85.549 47.2886 85.0542 47.2797C84.9219 47.2778 84.8725 47.3212 84.8774 47.4575C84.8863 47.7064 84.8794 47.9543 84.8804 48.2012Z" fill="black"/>
<path d="M29.7114 51.7646C29.4823 51.7646 29.272 51.7715 29.0626 51.7587C29.0172 51.7557 28.9579 51.6886 28.9372 51.6382C28.7752 51.2343 28.6152 50.8294 28.4691 50.4195C28.4187 50.2783 28.3525 50.224 28.1975 50.227C27.599 50.2359 26.9995 50.2339 26.4011 50.226C26.2717 50.224 26.2213 50.2744 26.1828 50.386C26.0406 50.7968 25.8856 51.2037 25.7453 51.6155C25.7048 51.734 25.6485 51.7755 25.5241 51.7666C25.3621 51.7547 25.1982 51.7636 25.0076 51.7636C25.0461 51.6639 25.0777 51.5819 25.1093 51.5C25.694 49.9643 26.2806 48.4286 26.8613 46.8919C26.9107 46.7606 26.966 46.6924 27.118 46.7102C27.2958 46.731 27.516 46.6668 27.6454 46.7507C27.7679 46.8297 27.7985 47.0529 27.8647 47.2149C28.4542 48.6577 29.0438 50.1015 29.6324 51.5454C29.6601 51.6116 29.6808 51.6797 29.7114 51.7646ZM27.2968 47.285C27.0134 48.0849 26.7309 48.8819 26.4445 49.6917C27.0282 49.6917 27.596 49.6917 28.1856 49.6917C27.8844 48.874 27.5901 48.079 27.2968 47.285Z" fill="black"/>
<path d="M55.8664 47.2855C55.2976 47.2855 54.7504 47.2855 54.1964 47.2855C54.1964 47.086 54.1964 46.9132 54.1964 46.7266C55.5168 46.7266 56.8322 46.7266 58.1605 46.7266C58.1605 46.9014 58.1605 47.0742 58.1605 47.2707C58.1033 47.2737 58.0401 47.2816 57.9768 47.2816C57.5591 47.2826 57.1414 47.2895 56.7246 47.2786C56.5528 47.2747 56.4965 47.324 56.4975 47.5018C56.5044 48.839 56.5014 50.1762 56.5014 51.5134C56.5014 51.5904 56.5014 51.6674 56.5014 51.7543C56.2822 51.7543 56.0856 51.7543 55.8664 51.7543C55.8664 50.269 55.8664 48.7906 55.8664 47.2855Z" fill="black"/>
<path d="M94.3404 51.1963C94.3404 51.3998 94.3404 51.5726 94.3404 51.7543C93.2975 51.7543 92.2645 51.7543 91.2187 51.7543C91.2187 50.0804 91.2187 48.4114 91.2187 46.7275C91.4162 46.7275 91.6177 46.7275 91.8438 46.7275C91.8438 46.7907 91.8438 46.8549 91.8438 46.9191C91.8438 48.2691 91.8478 49.6202 91.8389 50.9702C91.8379 51.1608 91.8972 51.2023 92.0749 51.2003C92.7534 51.1904 93.4309 51.1963 94.1093 51.1963C94.1824 51.1963 94.2545 51.1963 94.3404 51.1963Z" fill="black"/>
<path d="M88.0032 20.7856C87.9962 21.9776 87.0492 22.9168 85.8601 22.9108C84.6632 22.9049 83.725 21.9529 83.7309 20.752C83.7378 19.5797 84.6918 18.6435 85.8759 18.6475C87.0689 18.6514 88.0101 19.5975 88.0032 20.7856ZM85.8601 22.58C86.8684 22.581 87.6832 21.7781 87.6842 20.7826C87.6852 19.797 86.8566 18.9674 85.868 18.9645C84.8805 18.9625 84.0657 19.7753 84.0637 20.7648C84.0618 21.7791 84.8528 22.578 85.8601 22.58Z" fill="black"/>
<path d="M71.9689 46.7217C72.1733 46.7217 72.3708 46.7217 72.5821 46.7217C72.5821 48.3986 72.5821 50.0715 72.5821 51.7544C72.3757 51.7544 72.1792 51.7544 71.9689 51.7544C71.9689 50.0814 71.9689 48.4124 71.9689 46.7217Z" fill="black"/>
<path d="M50.4663 46.7227C50.6727 46.7227 50.8703 46.7227 51.0796 46.7227C51.0796 48.4015 51.0796 50.0725 51.0796 51.7534C50.8713 51.7534 50.6757 51.7534 50.4663 51.7534C50.4663 50.0755 50.4663 48.4035 50.4663 46.7227Z" fill="black"/>
<path d="M86.1297 20.9126C86.3687 21.2454 86.6028 21.5703 86.8428 21.9041C86.508 21.9979 86.4339 21.9663 86.2788 21.7095C86.1672 21.5239 86.0497 21.3402 85.9253 21.1624C85.79 20.9698 85.5836 20.9461 85.3732 20.9728C85.3357 20.9777 85.2853 21.0745 85.2834 21.1298C85.2735 21.3935 85.2794 21.6582 85.2794 21.9327C85.1629 21.9327 85.07 21.9327 84.9634 21.9327C84.9634 21.1792 84.9634 20.4336 84.9634 19.6465C85.3999 19.6682 85.8275 19.6722 86.2502 19.7176C86.507 19.7452 86.6798 19.9842 86.6936 20.243C86.7094 20.5314 86.5465 20.7763 86.2729 20.8711C86.2176 20.8898 86.1603 20.9037 86.1297 20.9126ZM85.2814 20.3121C85.2814 20.3961 85.2715 20.482 85.2853 20.5649C85.2922 20.6064 85.3406 20.6726 85.3703 20.6726C85.6102 20.6696 85.8522 20.6716 86.0882 20.6341C86.2492 20.6084 86.346 20.4751 86.3401 20.3032C86.3341 20.1334 86.2314 20.0188 86.0705 19.9823C85.9371 19.9516 85.7959 19.9467 85.6586 19.9447C85.2794 19.9398 85.2794 19.9428 85.2814 20.3121Z" fill="black"/>
</svg>
