<svg width="121" height="60" viewBox="0 0 121 60" fill="none" xmlns="http://www.w3.org/2000/svg">
<path d="M68.4351 36.3239C69.3228 31.9716 70.2145 27.6006 71.1152 23.1881C70.9085 23.1605 70.7587 23.1239 70.6089 23.1239C69.0262 23.12 67.4425 23.1308 65.8598 23.115C65.4614 23.1111 65.2597 23.2089 65.1728 23.6395C64.357 27.6905 63.5022 31.7346 62.7014 35.7886C62.5925 36.3407 62.3779 36.475 61.8596 36.4572C60.871 36.4236 59.8795 36.4473 58.7831 36.4473C59.6977 31.9835 60.5964 27.6016 61.5111 23.1378C59.8555 23.1378 58.2788 23.1062 56.7051 23.1654C56.4125 23.1763 56.1259 23.5437 55.8503 23.7629C55.5538 23.9989 55.2732 24.2547 55.0295 24.3179C54.1468 23.9229 53.297 23.3195 52.3744 23.1743C50.2934 22.8474 48.6907 23.8607 47.4915 25.4665C46.3162 27.0397 45.8608 28.8331 46.1464 30.7885C46.5708 33.694 49.5075 35.0736 52.2326 33.6495C52.6779 33.4165 53.1592 32.9671 53.5657 33.0234C54.002 33.0846 54.3725 33.6209 54.7649 33.9577C54.9846 34.1463 55.1903 34.3507 55.4509 34.5927C53.7933 36.1372 51.8801 36.9974 49.6443 37.0053C47.3846 37.0132 45.5543 36.0602 44.1264 34.3102C44.2542 34.9857 44.382 35.6602 44.5298 36.4384C43.4244 36.4384 42.3699 36.4543 41.3174 36.4167C41.1966 36.4128 41.0219 36.1264 40.9819 35.9466C40.7303 34.8168 40.5096 33.6801 40.268 32.4951C38.2639 32.4951 36.2997 32.4842 34.3356 32.5148C34.1598 32.5178 33.9312 32.7607 33.8243 32.9474C33.2551 33.9379 32.7039 34.9393 32.1767 35.9516C31.988 36.315 31.7613 36.473 31.3349 36.4562C30.5021 36.4226 29.6674 36.4463 28.6578 36.4463C31.0923 32.022 33.4638 27.7112 35.9003 23.2819C34.3126 23.2819 32.8607 23.2819 31.3299 23.2819C31.4837 22.4741 31.5986 21.7512 31.7753 21.0441C31.8112 20.9019 32.0848 20.7231 32.2496 20.7221C35.1674 20.7024 38.0851 20.6994 41.0019 20.7261C41.1746 20.7281 41.4602 20.9829 41.4982 21.1606C41.9375 23.2355 42.34 25.3183 42.7534 27.3992C42.8003 27.6382 42.8562 27.8752 42.966 28.1398C43.658 25.269 45.1409 22.9422 47.7132 21.4144C50.3304 19.86 53.0234 19.6575 55.5548 21.0876C56.0321 20.9276 56.3566 20.7241 56.6811 20.7231C61.3623 20.7024 66.0445 20.7093 70.7267 20.7093C74.3664 20.7093 78.0062 20.7083 81.6459 20.7083C81.9075 20.7083 82.1701 20.7083 82.4008 20.7083C82.4447 20.8505 82.4737 20.894 82.4687 20.9335C82.1601 23.122 82.1601 23.122 79.9394 23.122C78.4236 23.122 76.9088 23.1387 75.394 23.1121C74.9446 23.1042 74.7529 23.2503 74.674 23.6839C74.4613 24.8433 74.2107 25.9968 73.956 27.2461C75.9352 27.2461 77.8434 27.2461 79.8056 27.2461C79.6927 27.9028 79.6418 28.4845 79.471 29.0296C79.4161 29.2044 79.0476 29.3822 78.818 29.3871C77.3481 29.4197 75.8773 29.4375 74.4084 29.3891C73.7444 29.3674 73.4668 29.5254 73.3669 30.2276C73.1902 31.462 72.8676 32.6758 72.584 33.9981C75.1703 33.9981 77.7056 33.9981 80.3567 33.9981C80.196 34.7981 80.0732 35.4914 79.9044 36.1728C79.8755 36.2883 79.6478 36.4325 79.512 36.4325C75.8713 36.4404 72.2306 36.4315 68.5908 36.4226C68.5519 36.4207 68.5149 36.3752 68.4351 36.3239ZM39.8106 30.1614C39.4152 28.1606 39.0427 26.2783 38.6703 24.3959C38.6184 24.388 38.5654 24.3811 38.5135 24.3732C37.482 26.2713 36.4515 28.1695 35.3691 30.1614C36.9108 30.1614 38.2988 30.1614 39.8106 30.1614Z" fill="black"/>
<path d="M97.8004 26.3196C97.5148 27.718 97.2612 28.9525 97.0105 30.189C96.6241 32.095 96.2247 33.999 95.8642 35.91C95.7863 36.3208 95.6415 36.4808 95.2102 36.465C94.4023 36.4354 93.5935 36.4561 92.6878 36.4561C92.9475 35.1239 93.1891 33.8864 93.4298 32.649C93.3998 32.6342 93.3708 32.6204 93.3409 32.6056C92.9415 33.1142 92.565 33.6435 92.1376 34.1284C90.6837 35.7747 88.8973 36.8423 86.6566 37.0022C84.3979 37.1632 82.0393 36.1401 80.8331 33.6119C79.1805 30.1485 79.7956 26.846 81.9315 23.7875C83.1906 21.9842 84.8982 20.7201 87.1289 20.3004C90.7437 19.6199 93.8851 21.762 94.5881 25.3538C94.62 25.5187 94.667 25.6797 94.8197 25.8407C95.1133 24.3889 95.4298 22.9421 95.6885 21.4845C95.7903 20.9097 95.976 20.5956 96.6331 20.6954C97.0085 20.7527 97.41 20.7596 97.7834 20.6964C98.746 20.5324 99.2064 20.9788 99.6178 21.8054C101.096 24.7721 102.658 27.6983 104.189 30.6393C104.259 30.7726 104.335 30.903 104.506 31.2101C104.667 30.4191 104.794 29.8028 104.92 29.1856C105.458 26.5349 106.006 23.8872 106.521 21.2326C106.604 20.807 106.771 20.6845 107.187 20.6983C107.993 20.726 108.8 20.7062 109.669 20.7062C109.378 22.1787 109.111 23.5544 108.83 24.9271C108.092 28.5377 107.338 32.1453 106.621 35.7599C106.512 36.308 106.311 36.5144 105.737 36.4709C105.04 36.4176 104.334 36.4285 103.635 36.465C103.157 36.4897 102.918 36.3129 102.706 35.8892C101.214 32.9038 99.6936 29.9322 98.1788 26.9576C98.094 26.7897 97.9871 26.6317 97.8004 26.3196ZM82.8851 29.4986C82.953 29.8591 83.0089 30.4882 83.1926 31.0778C84.1073 34.0158 87.068 34.9669 89.4535 33.1112C91.7302 31.3395 92.5101 27.7111 91.1501 25.2165C89.8569 22.8434 87.1119 22.395 85.1088 24.227C83.631 25.577 82.972 27.2766 82.8851 29.4986Z" fill="black"/>
<path d="M28.8146 16.0451C28.555 16.1745 28.3003 16.3157 28.0337 16.4302C24.8444 17.804 21.8058 19.4167 19.3523 21.9202C17.7716 23.5339 16.6263 25.3807 16.5294 27.7024C16.4356 29.9581 17.491 31.7565 18.9779 33.3376C21.4293 35.9448 24.5158 37.6246 27.7591 39.0398C32.7039 41.1987 37.8904 42.5526 43.1957 43.5136C47.6692 44.3244 52.1757 44.7984 56.7171 44.9752C56.8569 44.9801 56.9947 45.0404 57.1465 45.2369C57.0027 45.2724 56.8579 45.3416 56.7141 45.3386C53.2821 45.2764 49.8461 45.2892 46.42 45.1105C43.7849 44.9732 41.1487 44.6848 38.5375 44.2997C32.0289 43.3407 25.6931 41.7685 19.8376 38.6744C17.8146 37.6049 15.9383 36.325 14.3716 34.6431C10.9645 30.9881 11.0823 26.5875 14.6581 23.0727C17.1096 20.664 20.0633 19.0463 23.2127 17.7546C24.7964 17.1048 26.436 16.5892 28.0537 16.0204C28.2744 15.9424 28.51 15.9088 28.7387 15.8545C28.7627 15.9187 28.7886 15.9819 28.8146 16.0451Z" fill="black"/>
</svg>
